<svg width="375" height="306" viewBox="0 0 375 306" fill="none" xmlns="http://www.w3.org/2000/svg">
<path d="M295.473 64.7964H74.5274L24.9548 240.95H345.045L295.473 64.7964Z" fill="#9087E5"/>
<path d="M79.44 69.77L36.5969 230.891H333.403L290.56 69.77H79.44ZM207.482 71.0997C207.695 82.4677 197.789 92.1 185 92.1C172.211 92.1 162.305 82.4575 162.548 71.0591L207.482 71.0997ZM142.928 228.303L145.232 197.772H224.829L227.133 228.303H142.928ZM229.203 228.303L226.595 195.457H143.466L140.858 228.303H111.423L120.345 160.907H249.757L258.679 228.303H229.203ZM164.375 158.907C165.39 146.88 174.434 137.674 185.061 137.674C195.688 137.674 204.762 146.88 205.747 158.907H164.375ZM330.734 228.303H260.699L251.259 158.907H207.462C206.447 145.834 196.52 135.857 185 135.857C173.48 135.857 163.604 145.834 162.538 158.907H118.781L109.342 228.303H39.3069L80.5159 71.0692H161.087C160.762 83.2492 171.318 93.6022 185 93.6022C198.682 93.6022 209.238 83.2492 208.913 71.0692H289.484L330.734 228.303Z" fill="white"/>
<path opacity="0.08" d="M121.39 102.828C132.837 102.828 142.116 100.806 142.116 98.3117C142.116 95.8171 132.837 93.7949 121.39 93.7949C109.943 93.7949 100.664 95.8171 100.664 98.3117C100.664 100.806 109.943 102.828 121.39 102.828Z" fill="black"/>
<path d="M131.134 44.7505H111.636C108.19 44.7479 104.854 45.963 102.217 48.1812L89.3667 58.9605L100.024 71.4551L106.307 66.3801V98.1293H136.463V66.3801L142.746 71.4551L153.403 58.9605L140.553 48.1812C137.916 45.963 134.58 44.7479 131.134 44.7505Z" fill="#FF8FA2"/>
<path opacity="0.08" d="M130.525 44.7505C130.525 47.0139 126.353 48.8105 121.207 48.8105C116.061 48.8105 111.879 46.9632 111.879 44.7505" fill="black"/>
<path opacity="0.46" d="M136.473 72.4395H106.307V83.706H136.473V72.4395Z" fill="white"/>
<path opacity="0.08" d="M248.61 102.828C260.057 102.828 269.336 100.806 269.336 98.3117C269.336 95.8171 260.057 93.7949 248.61 93.7949C237.163 93.7949 227.884 95.8171 227.884 98.3117C227.884 100.806 237.163 102.828 248.61 102.828Z" fill="black"/>
<path d="M258.364 44.7505H238.866C235.42 44.7479 232.084 45.963 229.447 48.1812L216.597 58.9605L227.254 71.4551L233.537 66.3801V98.1293H263.693V66.3801L269.976 71.4551L280.633 58.9605L267.783 48.1812C265.146 45.963 261.81 44.7479 258.364 44.7505Z" fill="#FF8FA2"/>
<path opacity="0.08" d="M257.755 44.7505C257.755 47.0139 253.584 48.8105 248.427 48.8105C243.271 48.8105 239.11 46.9632 239.11 44.7505" fill="black"/>
<path opacity="0.46" d="M263.703 72.4395H233.537V83.706H263.703V72.4395Z" fill="white"/>
<path opacity="0.08" d="M185 156.4C196.447 156.4 205.726 154.378 205.726 151.883C205.726 149.389 196.447 147.367 185 147.367C173.553 147.367 164.274 149.389 164.274 151.883C164.274 154.378 173.553 156.4 185 156.4Z" fill="black"/>
<path d="M194.744 98.312H175.256C171.807 98.3123 168.469 99.5269 165.827 101.743L152.987 112.522L163.685 125.027L169.968 119.952V151.701H200.134V119.952L206.417 125.027L217.064 112.522L204.173 101.743C201.531 99.5269 198.193 98.3123 194.744 98.312Z" fill="#FF8FA2"/>
<path opacity="0.08" d="M194.135 98.312C194.135 100.586 189.953 102.433 184.807 102.433C179.661 102.433 175.479 100.586 175.479 98.312" fill="black"/>
<path opacity="0.46" d="M200.083 126.011H169.917V137.278H200.083V126.011Z" fill="white"/>
<path opacity="0.08" d="M185 225.38C196.447 225.38 205.726 223.357 205.726 220.863C205.726 218.368 196.447 216.346 185 216.346C173.553 216.346 164.274 218.368 164.274 220.863C164.274 223.357 173.553 225.38 185 225.38Z" fill="black"/>
<path d="M194.744 167.301H175.256C171.807 167.297 168.467 168.512 165.827 170.732L152.987 181.511L163.685 194.006L169.968 188.931V220.68H200.134V188.931L206.417 194.006L217.064 181.511L204.224 170.732C201.571 168.501 198.211 167.285 194.744 167.301Z" fill="#4E42A9"/>
<path opacity="0.46" d="M194.135 167.301C194.135 169.575 189.953 171.361 184.807 171.361C179.661 171.361 175.479 169.524 175.479 167.301" fill="white"/>
<path opacity="0.08" d="M287.038 181.643C298.485 181.643 307.764 179.621 307.764 177.127C307.764 174.632 298.485 172.61 287.038 172.61C275.591 172.61 266.312 174.632 266.312 177.127C266.312 179.621 275.591 181.643 287.038 181.643Z" fill="black"/>
<path d="M296.782 123.565H277.294C273.849 123.568 270.515 124.782 267.875 126.996L255.035 137.775L265.693 150.27L271.965 145.195V176.944H302.131V145.184L308.414 150.259L319.061 137.775L306.211 126.996C303.569 124.78 300.231 123.565 296.782 123.565Z" fill="#FF8FA2"/>
<path opacity="0.08" d="M296.183 123.565C296.183 125.839 292.011 127.676 286.855 127.676C281.699 127.676 277.538 125.839 277.538 123.565" fill="black"/>
<path opacity="0.46" d="M302.121 151.254H271.955V162.521H302.121V151.254Z" fill="white"/>
<path opacity="0.08" d="M82.9621 181.643C94.4089 181.643 103.688 179.621 103.688 177.127C103.688 174.632 94.4089 172.61 82.9621 172.61C71.5153 172.61 62.2358 174.632 62.2358 177.127C62.2358 179.621 71.5153 181.643 82.9621 181.643Z" fill="black"/>
<path d="M92.706 123.565H73.218C69.7695 123.565 66.4311 124.78 63.7887 126.996L50.9388 137.775L61.5963 150.27L67.8791 145.195V176.944H98.0449V145.184L104.318 150.259L114.965 137.775L102.115 126.996C99.478 124.784 96.1476 123.57 92.706 123.565Z" fill="#FF8FA2"/>
<path opacity="0.08" d="M92.097 123.565C92.097 125.839 87.9254 127.676 82.7793 127.676C77.6333 127.676 73.4515 125.828 73.4515 123.565" fill="black"/>
<path opacity="0.46" d="M98.045 151.254H67.8792V162.521H98.045V151.254Z" fill="white"/>
</svg>
