<svg width="328" height="73" viewBox="0 0 328 73" fill="none" xmlns="http://www.w3.org/2000/svg">
<path d="M32.1912 17.4571H4C1.79086 17.4571 0 19.248 0 21.4571V33H308.052C312.377 33 313.625 27.0894 309.669 25.3413L292.599 17.7984C292.09 17.5734 291.539 17.4571 290.982 17.4571H257.741C257.029 17.4571 256.33 17.2671 255.716 16.9065L230.543 2.12577C229.35 1.4257 227.881 1.39101 226.657 2.03405L198.173 16.9982C197.599 17.2997 196.961 17.4571 196.312 17.4571H161.403C160.13 17.4571 158.933 16.8513 158.179 15.8254L148.486 2.63172C147.733 1.60588 146.536 1 145.263 1H109.923C109.199 1 108.489 1.19643 107.868 1.56836L81.3378 17.4571L61.5372 27.5927C60.5004 28.1234 59.2839 28.1759 58.2053 27.7364L33.7004 17.7528C33.2212 17.5575 32.7087 17.4571 32.1912 17.4571Z" fill="url(#paint0_linear_135_3086)"/>
<path d="M0 17.4571H32.1912C32.7087 17.4571 33.2212 17.5575 33.7004 17.7528L58.2053 27.7364C59.2839 28.1759 60.5004 28.1234 61.5372 27.5927L81.3378 17.4571L107.868 1.56836C108.489 1.19643 109.199 1 109.923 1H145.263C146.536 1 147.733 1.60588 148.486 2.63172L158.179 15.8254C158.933 16.8513 160.13 17.4571 161.403 17.4571H196.312C196.961 17.4571 197.599 17.2997 198.173 16.9982L226.657 2.03405C227.881 1.39101 229.35 1.4257 230.543 2.12577L255.716 16.9065C256.33 17.2671 257.029 17.4571 257.741 17.4571H290.982C291.539 17.4571 292.09 17.5734 292.599 17.7984L327 33" stroke="#6A5AE0" stroke-width="2"/>
<path d="M8.64318 68C8.54985 68 8.47051 67.9673 8.40518 67.902C8.33985 67.8367 8.30718 67.7573 8.30718 67.664V60.44L6.19318 62.064C6.13718 62.1107 6.06718 62.134 5.98318 62.134C5.87118 62.134 5.78251 62.0873 5.71718 61.994L5.11518 61.21C5.06851 61.1447 5.04518 61.0793 5.04518 61.014C5.04518 60.902 5.09651 60.8087 5.19918 60.734L8.33518 58.298C8.43785 58.2327 8.55451 58.2 8.68518 58.2H9.94518C10.0385 58.2 10.1178 58.2327 10.1832 58.298C10.2485 58.3633 10.2812 58.4427 10.2812 58.536V67.664C10.2812 67.7573 10.2485 67.8367 10.1832 67.902C10.1178 67.9673 10.0385 68 9.94518 68H8.64318Z" fill="#0C092A"/>
<path d="M39.1902 68C39.0968 68 39.0175 67.9673 38.9522 67.902C38.8868 67.8367 38.8542 67.7573 38.8542 67.664V66.936C38.8542 66.6747 38.9708 66.4553 39.2042 66.278L41.3882 64.108C42.0508 63.5853 42.5595 63.1607 42.9142 62.834C43.2782 62.498 43.5488 62.19 43.7262 61.91C43.9035 61.63 43.9922 61.3547 43.9922 61.084C43.9922 60.6453 43.8755 60.3 43.6422 60.048C43.4088 59.796 43.0542 59.67 42.5782 59.67C42.1115 59.67 41.7428 59.81 41.4722 60.09C41.2108 60.3607 41.0475 60.7153 40.9822 61.154C40.9542 61.266 40.8982 61.35 40.8142 61.406C40.7395 61.4527 40.6555 61.476 40.5622 61.476H39.3022C39.2182 61.476 39.1482 61.448 39.0922 61.392C39.0362 61.336 39.0082 61.266 39.0082 61.182C39.0268 60.6313 39.1762 60.118 39.4562 59.642C39.7455 59.1567 40.1562 58.7693 40.6882 58.48C41.2202 58.1813 41.8455 58.032 42.5642 58.032C43.3108 58.032 43.9455 58.1627 44.4682 58.424C44.9908 58.676 45.3828 59.026 45.6442 59.474C45.9055 59.922 46.0362 60.4307 46.0362 61C46.0362 61.6253 45.8588 62.1947 45.5042 62.708C45.1588 63.212 44.6175 63.7533 43.8802 64.332L41.9342 66.306H45.8962C45.9988 66.306 46.0828 66.3387 46.1482 66.404C46.2135 66.4693 46.2462 66.5533 46.2462 66.656V67.664C46.2462 67.7667 46.2135 67.8507 46.1482 67.916C46.0828 67.972 45.9988 68 45.8962 68H39.1902Z" fill="#0C092A"/>
<path d="M77.0697 68.14C76.239 68.14 75.5344 68.0093 74.9557 67.748C74.3864 67.4867 73.957 67.16 73.6677 66.768C73.3877 66.3667 73.2384 65.956 73.2197 65.536C73.2197 65.452 73.2477 65.382 73.3037 65.326C73.3597 65.27 73.4297 65.242 73.5137 65.242H74.8017C75.007 65.242 75.147 65.3353 75.2217 65.522C75.427 66.1847 76.043 66.516 77.0697 66.516C77.639 66.516 78.0824 66.3853 78.3997 66.124C78.7264 65.8627 78.8897 65.4893 78.8897 65.004C78.8897 64.5187 78.7404 64.1687 78.4417 63.954C78.1524 63.73 77.723 63.618 77.1537 63.618H75.7117C75.6184 63.618 75.539 63.5853 75.4737 63.52C75.4084 63.4547 75.3757 63.3753 75.3757 63.282V62.68C75.3757 62.5027 75.4364 62.3627 75.5577 62.26L78.0497 59.824H74.0597C73.957 59.824 73.873 59.7913 73.8077 59.726C73.7424 59.6607 73.7097 59.5813 73.7097 59.488V58.55C73.7097 58.4473 73.7424 58.3633 73.8077 58.298C73.873 58.2327 73.957 58.2 74.0597 58.2H80.0797C80.1824 58.2 80.2664 58.2327 80.3317 58.298C80.397 58.3633 80.4297 58.4473 80.4297 58.55V59.404C80.4297 59.5627 80.369 59.6933 80.2477 59.796L77.8397 62.274L78.0077 62.288C78.9037 62.3627 79.613 62.6333 80.1357 63.1C80.6677 63.5667 80.9337 64.234 80.9337 65.102C80.9337 65.718 80.7657 66.2547 80.4297 66.712C80.103 67.1693 79.6457 67.524 79.0577 67.776C78.479 68.0187 77.8164 68.14 77.0697 68.14Z" fill="#0C092A"/>
<path d="M112.628 68C112.534 68 112.455 67.9673 112.39 67.902C112.324 67.8367 112.292 67.7573 112.292 67.664V65.872H107.854C107.76 65.872 107.681 65.8393 107.616 65.774C107.55 65.7087 107.518 65.6293 107.518 65.536V64.57C107.518 64.4207 107.569 64.2807 107.672 64.15L111.802 58.438C111.848 58.3633 111.918 58.3073 112.012 58.27C112.105 58.2233 112.208 58.2 112.32 58.2H113.86C113.962 58.2 114.042 58.2327 114.098 58.298C114.163 58.354 114.196 58.4333 114.196 58.536V64.206H115.456C115.558 64.206 115.638 64.2387 115.694 64.304C115.759 64.36 115.792 64.4393 115.792 64.542V65.536C115.792 65.6293 115.759 65.7087 115.694 65.774C115.638 65.8393 115.558 65.872 115.456 65.872H114.196V67.664C114.196 67.7573 114.163 67.8367 114.098 67.902C114.042 67.9673 113.962 68 113.86 68H112.628ZM109.492 64.262H112.334V60.244L109.492 64.262Z" fill="#0C092A"/>
<path d="M146.174 68.154C145.399 68.154 144.727 68.0233 144.158 67.762C143.598 67.5007 143.173 67.1553 142.884 66.726C142.595 66.2967 142.441 65.8347 142.422 65.34V65.312C142.422 65.2373 142.45 65.1767 142.506 65.13C142.571 65.074 142.641 65.046 142.716 65.046H144.046C144.261 65.046 144.396 65.1393 144.452 65.326C144.583 65.7367 144.797 66.04 145.096 66.236C145.404 66.432 145.763 66.53 146.174 66.53C146.697 66.53 147.126 66.3713 147.462 66.054C147.807 65.7367 147.98 65.298 147.98 64.738C147.98 64.234 147.807 63.828 147.462 63.52C147.126 63.2027 146.697 63.044 146.174 63.044C145.894 63.044 145.665 63.0813 145.488 63.156C145.311 63.2307 145.138 63.3333 144.97 63.464C144.951 63.4733 144.909 63.5013 144.844 63.548C144.779 63.5947 144.718 63.6273 144.662 63.646C144.615 63.6647 144.564 63.674 144.508 63.674H143.192C143.108 63.674 143.033 63.646 142.968 63.59C142.912 63.5247 142.884 63.45 142.884 63.366L143.36 58.592C143.369 58.4707 143.411 58.3773 143.486 58.312C143.57 58.2373 143.668 58.2 143.78 58.2H149.044C149.147 58.2 149.226 58.2327 149.282 58.298C149.347 58.354 149.38 58.4333 149.38 58.536V59.488C149.38 59.5813 149.347 59.6607 149.282 59.726C149.226 59.7913 149.147 59.824 149.044 59.824H144.998L144.774 62.092C144.989 61.952 145.236 61.84 145.516 61.756C145.796 61.6627 146.16 61.616 146.608 61.616C147.215 61.616 147.775 61.7467 148.288 62.008C148.811 62.26 149.226 62.6287 149.534 63.114C149.851 63.59 150.01 64.1453 150.01 64.78C150.01 65.4613 149.851 66.0587 149.534 66.572C149.217 67.076 148.769 67.468 148.19 67.748C147.611 68.0187 146.939 68.154 146.174 68.154Z" fill="#0C092A"/>
<path d="M180.861 68.14C180.077 68.14 179.386 67.9907 178.789 67.692C178.201 67.3933 177.744 66.9827 177.417 66.46C177.1 65.9373 176.941 65.3493 176.941 64.696C176.941 63.8747 177.305 62.9693 178.033 61.98L180.581 58.48C180.656 58.3867 180.726 58.3167 180.791 58.27C180.856 58.2233 180.95 58.2 181.071 58.2H182.401C182.485 58.2 182.55 58.2327 182.597 58.298C182.653 58.354 182.681 58.424 182.681 58.508C182.681 58.5733 182.662 58.634 182.625 58.69L180.665 61.392C180.814 61.3547 181.01 61.336 181.253 61.336C181.878 61.3453 182.452 61.4993 182.975 61.798C183.507 62.0873 183.927 62.484 184.235 62.988C184.552 63.492 184.711 64.052 184.711 64.668C184.711 65.3027 184.552 65.886 184.235 66.418C183.927 66.9407 183.479 67.3607 182.891 67.678C182.312 67.986 181.636 68.14 180.861 68.14ZM180.833 66.516C181.356 66.516 181.799 66.3573 182.163 66.04C182.527 65.7133 182.709 65.2653 182.709 64.696C182.709 64.136 182.527 63.6973 182.163 63.38C181.808 63.0533 181.365 62.89 180.833 62.89C180.31 62.89 179.867 63.0533 179.503 63.38C179.148 63.6973 178.971 64.136 178.971 64.696C178.971 65.2653 179.148 65.7133 179.503 66.04C179.867 66.3573 180.31 66.516 180.833 66.516Z" fill="#0C092A"/>
<path d="M213.545 68C213.461 68 213.391 67.972 213.335 67.916C213.279 67.8507 213.251 67.776 213.251 67.692C213.251 67.664 213.26 67.622 213.279 67.566L216.639 59.88H212.257C212.163 59.88 212.084 59.8473 212.019 59.782C211.953 59.7167 211.921 59.6373 211.921 59.544V58.55C211.921 58.4473 211.949 58.3633 212.005 58.298C212.07 58.2327 212.154 58.2 212.257 58.2H218.417C218.519 58.2 218.603 58.2327 218.669 58.298C218.734 58.3633 218.767 58.4473 218.767 58.55V59.432C218.767 59.628 218.72 59.8287 218.627 60.034L215.295 67.664C215.239 67.7667 215.178 67.8507 215.113 67.916C215.047 67.972 214.959 68 214.847 68H213.545Z" fill="#0C092A"/>
<path d="M249.873 68.14C249.061 68.14 248.361 68.014 247.773 67.762C247.195 67.5007 246.751 67.1413 246.443 66.684C246.135 66.2267 245.981 65.704 245.981 65.116C245.981 64.5933 246.107 64.1313 246.359 63.73C246.621 63.3193 246.971 63.0067 247.409 62.792C247.064 62.5773 246.798 62.302 246.611 61.966C246.425 61.6207 246.331 61.2287 246.331 60.79C246.331 59.9687 246.639 59.3107 247.255 58.816C247.881 58.312 248.753 58.06 249.873 58.06C250.993 58.06 251.861 58.3073 252.477 58.802C253.093 59.2967 253.401 59.9547 253.401 60.776C253.401 61.2147 253.308 61.6067 253.121 61.952C252.944 62.288 252.683 62.568 252.337 62.792C252.785 63.0067 253.135 63.3193 253.387 63.73C253.649 64.1313 253.779 64.598 253.779 65.13C253.779 65.718 253.625 66.2407 253.317 66.698C253.009 67.146 252.561 67.5007 251.973 67.762C251.385 68.014 250.685 68.14 249.873 68.14ZM249.873 62.176C250.359 62.1667 250.76 62.0453 251.077 61.812C251.404 61.5693 251.567 61.252 251.567 60.86C251.567 60.4587 251.409 60.1367 251.091 59.894C250.774 59.6513 250.368 59.53 249.873 59.53C249.388 59.53 248.987 59.6513 248.669 59.894C248.352 60.1367 248.193 60.4587 248.193 60.86C248.193 61.2613 248.352 61.5833 248.669 61.826C248.987 62.0593 249.388 62.176 249.873 62.176ZM249.873 66.67C250.424 66.67 250.881 66.53 251.245 66.25C251.619 65.97 251.805 65.5967 251.805 65.13C251.805 64.6633 251.619 64.29 251.245 64.01C250.881 63.73 250.424 63.59 249.873 63.59C249.323 63.59 248.865 63.73 248.501 64.01C248.137 64.2807 247.955 64.654 247.955 65.13C247.955 65.5967 248.137 65.97 248.501 66.25C248.865 66.53 249.323 66.67 249.873 66.67Z" fill="#0C092A"/>
<path d="M282.67 68C282.586 68 282.516 67.972 282.46 67.916C282.404 67.8507 282.376 67.776 282.376 67.692C282.376 67.636 282.399 67.5753 282.446 67.51L284.504 64.682C284.345 64.7193 284.149 64.738 283.916 64.738C283.3 64.7193 282.735 64.5653 282.222 64.276C281.718 63.9773 281.317 63.5853 281.018 63.1C280.719 62.6053 280.57 62.0593 280.57 61.462C280.57 60.874 280.715 60.3233 281.004 59.81C281.293 59.2873 281.723 58.8673 282.292 58.55C282.861 58.2233 283.547 58.06 284.35 58.06C285.162 58.06 285.857 58.214 286.436 58.522C287.015 58.8207 287.449 59.2267 287.738 59.74C288.037 60.244 288.186 60.7993 288.186 61.406C288.186 61.7887 288.125 62.148 288.004 62.484C287.883 62.82 287.743 63.114 287.584 63.366C287.435 63.6087 287.22 63.926 286.94 64.318L284.49 67.72C284.415 67.8133 284.345 67.8833 284.28 67.93C284.215 67.9767 284.126 68 284.014 68H282.67ZM284.364 63.226C284.877 63.226 285.307 63.0673 285.652 62.75C285.997 62.4233 286.17 61.994 286.17 61.462C286.17 60.9207 285.997 60.4913 285.652 60.174C285.307 59.8473 284.877 59.684 284.364 59.684C283.86 59.684 283.435 59.8473 283.09 60.174C282.745 60.4913 282.572 60.9207 282.572 61.462C282.572 61.994 282.74 62.4233 283.076 62.75C283.421 63.0673 283.851 63.226 284.364 63.226Z" fill="#0C092A"/>
<path d="M315.005 68C314.911 68 314.832 67.9673 314.767 67.902C314.701 67.8367 314.669 67.7573 314.669 67.664V60.44L312.555 62.064C312.499 62.1107 312.429 62.134 312.345 62.134C312.233 62.134 312.144 62.0873 312.079 61.994L311.477 61.21C311.43 61.1447 311.407 61.0793 311.407 61.014C311.407 60.902 311.458 60.8087 311.561 60.734L314.697 58.298C314.799 58.2327 314.916 58.2 315.047 58.2H316.307C316.4 58.2 316.479 58.2327 316.545 58.298C316.61 58.3633 316.643 58.4427 316.643 58.536V67.664C316.643 67.7573 316.61 67.8367 316.545 67.902C316.479 67.9673 316.4 68 316.307 68H315.005ZM322.227 68.14C320.976 68.14 320.043 67.7947 319.427 67.104C318.82 66.4133 318.489 65.508 318.433 64.388C318.423 64.136 318.419 63.7067 318.419 63.1C318.419 62.484 318.423 62.0453 318.433 61.784C318.479 60.6827 318.815 59.7867 319.441 59.096C320.066 58.4053 320.995 58.06 322.227 58.06C323.459 58.06 324.387 58.4053 325.013 59.096C325.638 59.7867 325.974 60.6827 326.021 61.784C326.039 62.3067 326.049 62.7453 326.049 63.1C326.049 63.4547 326.039 63.884 326.021 64.388C325.965 65.508 325.629 66.4133 325.013 67.104C324.406 67.7947 323.477 68.14 322.227 68.14ZM322.227 66.502C322.805 66.502 323.239 66.3153 323.529 65.942C323.818 65.5593 323.972 65.018 323.991 64.318C324 64.0473 324.005 63.632 324.005 63.072C324.005 62.512 324 62.106 323.991 61.854C323.972 61.1727 323.818 60.6407 323.529 60.258C323.239 59.8753 322.805 59.6793 322.227 59.67C321.648 59.6793 321.214 59.8753 320.925 60.258C320.635 60.6407 320.481 61.1727 320.463 61.854C320.453 62.106 320.449 62.512 320.449 63.072C320.449 63.632 320.453 64.0473 320.463 64.318C320.481 65.018 320.635 65.5593 320.925 65.942C321.214 66.3153 321.648 66.502 322.227 66.502Z" fill="#0C092A"/>
<line y1="44.25" x2="327" y2="44.25" stroke="#EFEEFC" stroke-width="1.5"/>
<defs>
<linearGradient id="paint0_linear_135_3086" x1="163.5" y1="-18.5" x2="163.5" y2="33" gradientUnits="userSpaceOnUse">
<stop stop-color="#6A5AE0" stop-opacity="0.4"/>
<stop offset="1" stop-color="#6A5AE0" stop-opacity="0"/>
</linearGradient>
</defs>
</svg>
