<svg width="327" height="151" viewBox="0 0 327 151" fill="none" xmlns="http://www.w3.org/2000/svg">
<path d="M0 26C0 26 9.15572 0.49967 25.0062 0.0103104C41.7281 -0.504188 41.2907 18.4099 54.719 17.9557C68.1473 17.5016 66.7629 10.979 84.4806 10.2986C102.198 9.61818 118 26 118 26H0Z" fill="#EFEEFC"/>
<path d="M327 151H262C262.854 143.038 266.647 135.67 272.646 130.316C278.646 124.962 286.428 122 294.496 122C302.566 122 310.348 124.962 316.349 130.316C322.348 135.67 326.139 143.038 326.994 151H327Z" fill="#EFEEFC"/>
<path fill-rule="evenodd" clip-rule="evenodd" d="M139.809 87.9064L116.644 89.9942C109.614 90.6278 104.429 96.8404 105.062 103.871L105.647 110.366C106.281 117.396 112.494 122.583 119.524 121.949L142.689 119.859C149.719 119.227 154.904 113.014 154.271 105.984L153.685 99.4883C153.052 92.4583 146.839 87.2728 139.809 87.9064Z" stroke="#274992" stroke-width="6"/>
<path fill-rule="evenodd" clip-rule="evenodd" d="M201.464 82.3493L178.299 84.4371C171.269 85.0707 166.084 91.2833 166.717 98.3137L167.303 104.809C167.936 111.839 174.149 117.025 181.179 116.391L204.344 114.303C211.374 113.67 216.559 107.457 215.926 100.427L215.34 93.9312C214.707 86.9012 208.494 81.7157 201.464 82.3493Z" stroke="#274992" stroke-width="6"/>
<path d="M256.901 59.8296C256.901 59.8296 259.992 80.9386 214.014 85.0728" stroke="#9087E5" stroke-width="6"/>
<path d="M255.104 39.876L256.603 56.5041" stroke="#9087E5" stroke-width="4" stroke-linecap="round"/>
<path d="M83.5367 83.4129L170.484 75.5767L172.65 99.6125L85.7029 107.449C84.1248 107.591 82.5341 107.421 81.0214 106.949C79.5088 106.476 78.1043 105.71 76.8875 104.695C75.671 103.679 74.6663 102.434 73.9312 101.031C73.1957 99.6269 72.7441 98.0922 72.6017 96.5141C72.3146 93.3267 73.3053 90.1558 75.356 87.6987C77.4067 85.2416 80.3493 83.6999 83.5367 83.4129Z" fill="#274992"/>
<path d="M226.537 71.9362L144.985 79.2761C138.321 79.8757 133.405 85.7645 134.005 92.4287C134.605 99.0929 140.493 104.009 147.158 103.41L228.709 96.0698C235.373 95.4701 240.289 89.5813 239.689 82.9171C239.09 76.2529 233.201 71.3366 226.537 71.9362Z" fill="#9087E5"/>
<path opacity="0.26" d="M125.798 22.0785V22.075L120.021 6.014L120.162 6L125.934 22.0645L125.798 22.0785Z" fill="white"/>
<path d="M203.797 45.7769L172.279 48.6174C158.979 49.816 149.169 61.5694 150.368 74.8691C151.566 88.1692 163.319 97.9791 176.62 96.7805L208.138 93.9397C221.437 92.741 231.247 80.9876 230.049 67.6879C228.85 54.3878 217.097 44.5779 203.797 45.7769Z" fill="#9087E5"/>
<path d="M208.246 48.5417L176.717 51.3832C166.868 52.2709 159.603 60.975 160.491 70.8241L160.491 70.8276C161.379 80.677 170.083 87.9416 179.932 87.0538L211.461 84.2123C221.31 83.3246 228.575 74.6209 227.687 64.7714L227.687 64.7679C226.799 54.9188 218.095 47.6539 208.246 48.5417Z" fill="#0C092A"/>
<path d="M191.485 64.6729C191.485 64.6729 193.586 68.9857 197.839 68.4256" stroke="white" stroke-width="2"/>
<path d="M199.521 55.6416L199.945 60.3675" stroke="white" stroke-width="4" stroke-linecap="round"/>
<path d="M205.805 55.0742L206.232 59.8036" stroke="white" stroke-width="4" stroke-linecap="round"/>
<path d="M44.5613 78.9678C44.5613 78.9678 45.2614 100.283 92.5203 96.023" stroke="#274992" stroke-width="6"/>
<path d="M37.9968 76.2186L50.5169 75.0903L52.1003 92.6587C52.2505 94.3233 51.7331 95.9791 50.6622 97.2621C49.5914 98.5451 48.0546 99.3502 46.3904 99.5001C44.7258 99.6502 43.07 99.1329 41.787 98.062C40.504 96.9912 39.6989 95.4544 39.549 93.7901L37.9653 76.2214L37.9968 76.2186Z" fill="#274992"/>
<path d="M42.2544 59.0737L43.7492 75.6739" stroke="#274992" stroke-width="4" stroke-linecap="round"/>
<path d="M250.345 57.0799L262.865 55.9517L264.448 73.5201C264.599 75.1846 264.081 76.8404 263.01 78.1234C261.94 79.4064 260.403 80.2116 258.738 80.3614C257.074 80.5116 255.418 79.9942 254.135 78.9233C252.852 77.8525 252.047 76.3157 251.897 74.6515L250.313 57.0827L250.345 57.0799Z" fill="#6A5AE0"/>
<path d="M269.275 42.7221L243.437 45.05L241.417 42.386L267.255 40.0581L269.275 42.7221Z" fill="#6A5AE0"/>
<path d="M97.7993 74.1724C97.7993 74.1724 98.531 95.4809 144.509 91.3256" stroke="#9087E5" stroke-width="6"/>
<path d="M95.9998 54.2144L97.498 70.8425" stroke="#9087E5" stroke-width="4" stroke-linecap="round"/>
<path d="M99.6439 94.6846C97.9794 94.8344 96.3235 94.3173 95.0406 93.2465C93.7576 92.1756 92.9524 90.6389 92.8026 88.9743L91.2192 71.4059L103.757 70.2759L105.342 87.8653C105.486 89.5242 104.967 91.1727 103.9 92.4504C102.832 93.7282 101.302 94.5312 99.6439 94.6846Z" fill="#6A5AE0"/>
<path d="M82.5642 59.5498L108.403 57.2219L109.915 54.2358L84.0765 56.5673L82.5642 59.5498Z" fill="#6A5AE0"/>
<path d="M56.4249 61.9057L30.583 64.2336L28.5667 61.5696L54.405 59.2417L56.4249 61.9057Z" fill="#274992"/>
<path d="M47.9324 56.9871L56.775 56.189" stroke="#24272D"/>
<path d="M37.2273 66.4395L28.4722 67.2271" stroke="#24272D"/>
<path d="M260.338 37.6428L269.178 36.8481" stroke="#24272D"/>
<path d="M249.633 47.0942L240.878 47.8854" stroke="#24272D"/>
</svg>
