<svg width="375" height="340" viewBox="0 0 375 340" fill="none" xmlns="http://www.w3.org/2000/svg">
<path d="M219.374 310.467V260.856L268.863 256.424L277.705 310.467H219.374Z" fill="#B9B2F0"/>
<path d="M210.183 235.56L222.468 252.883V260.586L265.758 256.706L263.564 235.56C263.564 235.56 268.863 210.366 262.236 193.968C259.286 186.367 257.978 178.226 258.4 170.081C258.726 162.582 247.971 160.856 246.025 168.119C245.002 173.275 244.565 178.53 244.72 183.784C244.751 186.436 244.197 189.062 243.1 191.475C240.456 197.329 236.046 208.821 238.69 215.26L233.594 240.387L210.183 235.56Z" fill="#FFCCD7"/>
<path opacity="0.09" d="M258.594 240.331L262.97 259.198L247.468 260.586V252.883L235.183 235.56L258.594 240.331Z" fill="black"/>
<rect x="126" y="53.1309" width="120" height="200.494" rx="20" fill="#B9B2F0"/>
<path opacity="0.6" d="M192.572 225.406C187.926 220.903 180.577 221.788 177.294 227.59C176.465 229 176.017 230.642 176 232.324C176 239.443 180.438 244.11 189.307 242.147C196.073 240.646 198.652 231.284 192.572 225.406Z" fill="white"/>
<path opacity="0.08" d="M201.365 134.996C201.365 134.996 219.365 165.446 195.639 188.87C171.912 212.294 142.426 203.08 142.426 203.08L127.565 241.019L116.742 227.643L128.735 195.4L137.037 177.931L170.787 163.473L201.365 134.996Z" fill="black"/>
<path d="M138.714 182.584L126.641 175.489L113.185 198.499L125.258 205.594L138.714 182.584Z" fill="#24285B"/>
<path opacity="0.29" d="M138.714 182.584L126.641 175.489L113.185 198.499L125.258 205.594L138.714 182.584Z" fill="white"/>
<rect x="138" y="69" width="96" height="144" rx="12" fill="white" fill-opacity="0.8"/>
<path d="M205.479 181.447H166.521C161.815 181.447 158 185.262 158 189.968C158 194.674 161.815 198.489 166.521 198.489H205.479C210.185 198.489 214 194.674 214 189.968C214 185.262 210.185 181.447 205.479 181.447Z" fill="#6A5AE0"/>
<path d="M153.485 192.197C180.339 192.197 202.108 170.374 202.108 143.455C202.108 116.535 180.339 94.7121 153.485 94.7121C126.632 94.7121 104.863 116.535 104.863 143.455C104.863 170.374 126.632 192.197 153.485 192.197Z" fill="#C4D0FB"/>
<path d="M153.105 178.16C172.435 178.16 188.105 162.451 188.105 143.074C188.105 123.696 172.435 107.987 153.105 107.987C133.775 107.987 118.105 123.696 118.105 143.074C118.105 162.451 133.775 178.16 153.105 178.16Z" fill="white"/>
<rect x="131" y="138.333" width="4" height="10.2667" rx="2" fill="#6A5AE0"/>
<rect x="139" y="135.533" width="4" height="16.8" rx="2" fill="#6A5AE0"/>
<rect x="147" y="129" width="4" height="28" rx="2" fill="#6A5AE0"/>
<rect x="171" y="131.8" width="4" height="22.4" rx="2" fill="#6A5AE0"/>
<rect x="155" y="138.333" width="4" height="9.33333" rx="2" fill="#6A5AE0"/>
<rect x="163" y="133.667" width="4" height="18.6667" rx="2" fill="#6A5AE0"/>
<path d="M127.502 201.318L115.681 194.371C112.942 192.762 109.42 193.683 107.815 196.429L85.2785 234.966C83.6728 237.712 84.5916 241.243 87.3306 242.852L99.1516 249.799C101.891 251.409 105.413 250.488 107.018 247.742L129.554 209.205C131.16 206.459 130.241 202.928 127.502 201.318Z" fill="#24285B"/>
<path d="M79.4262 232.673C79.8397 227.4 81.3983 222.282 83.9926 217.677C86.5869 213.071 90.1543 209.09 94.4449 206.012C100.135 201.867 107.163 199.997 114.155 200.768C136.295 203.249 131.705 236.677 120.905 255.68C110.105 274.683 94.2087 277.164 84.4999 267.239C78.1549 260.766 78.4362 243.872 79.4262 232.673Z" fill="#FFCCD7"/>
<path d="M74.6112 251.834L65.4199 310.467H119.094L120.95 260.281L74.6112 251.834Z" fill="#B9B2F0"/>
<path d="M266 37.0914H226C219.373 37.0914 214 42.4639 214 49.0913V81.2296C214 87.857 219.373 93.2296 226 93.2296H266C272.627 93.2296 278 87.857 278 81.2296V49.0914C278 42.4639 272.627 37.0914 266 37.0914Z" fill="#C4D0FB"/>
<rect x="223" y="49.121" width="20" height="32.079" rx="4" fill="#6A5AE0"/>
<g clip-path="url(#clip0_244_852)">
<path d="M228.333 65.1604L231.667 68.502L238.333 61.8189" stroke="white" stroke-width="2" stroke-linecap="round" stroke-linejoin="round"/>
</g>
<rect x="249" y="49.121" width="20" height="32.079" rx="4" fill="white"/>
<g clip-path="url(#clip1_244_852)">
<path d="M263 61.1506L255 69.1704" stroke="#6A5AE0" stroke-width="2" stroke-linecap="round" stroke-linejoin="round"/>
<path d="M255 61.1506L263 69.1704" stroke="#6A5AE0" stroke-width="2" stroke-linecap="round" stroke-linejoin="round"/>
</g>
<path d="M133 9.02222H101C94.3726 9.02222 89 14.3948 89 21.0222V53.1605C89 59.7879 94.3726 65.1605 101 65.1605H133C139.627 65.1605 145 59.7879 145 53.1605V21.0222C145 14.3948 139.627 9.02222 133 9.02222Z" fill="#C4D0FB"/>
<line x1="128.5" y1="27.1667" x2="128.5" y2="49.1667" stroke="#6A5AE0" stroke-width="2"/>
<path d="M110.487 47.8333C110.3 47.8333 110.132 47.768 109.983 47.6373C109.852 47.488 109.787 47.32 109.787 47.1333V32.6293H104.803C104.616 32.6293 104.448 32.564 104.299 32.4333C104.168 32.284 104.103 32.116 104.103 31.9293V28.9333C104.103 28.728 104.168 28.56 104.299 28.4293C104.448 28.2987 104.616 28.2333 104.803 28.2333H119.867C120.072 28.2333 120.24 28.2987 120.371 28.4293C120.502 28.56 120.567 28.728 120.567 28.9333V31.9293C120.567 32.1347 120.502 32.3027 120.371 32.4333C120.24 32.564 120.072 32.6293 119.867 32.6293H114.883V47.1333C114.883 47.32 114.818 47.488 114.687 47.6373C114.556 47.768 114.388 47.8333 114.183 47.8333H110.487Z" fill="white"/>
<defs>
<clipPath id="clip0_244_852">
<rect width="16" height="16.0395" fill="white" transform="translate(225 57.1407)"/>
</clipPath>
<clipPath id="clip1_244_852">
<rect width="16" height="16.0395" fill="white" transform="translate(251 57.1407)"/>
</clipPath>
</defs>
</svg>
