<svg width="375" height="333" viewBox="0 0 375 333" fill="none" xmlns="http://www.w3.org/2000/svg">
<path d="M90.1417 248.542H90.0613C89.0562 248.453 88.0512 248.321 87.0461 248.155C86.9142 248.134 86.7872 248.085 86.6726 248.01C86.558 247.935 86.4579 247.836 86.3781 247.719C86.2983 247.602 86.2404 247.468 86.2076 247.326C86.1747 247.185 86.1677 247.037 86.1868 246.892C86.206 246.747 86.2509 246.608 86.3191 246.482C86.3873 246.356 86.4774 246.246 86.5842 246.159C86.6911 246.071 86.8126 246.007 86.9419 245.971C87.0712 245.935 87.2056 245.927 87.3376 245.948C88.3091 246.103 89.284 246.224 90.2623 246.313C90.5288 246.324 90.7802 246.452 90.9612 246.667C91.1421 246.882 91.2378 247.168 91.2271 247.46C91.2164 247.753 91.1003 248.029 90.9043 248.228C90.7083 248.426 90.4484 248.531 90.1819 248.52L90.1417 248.542ZM100.192 248.122C100.06 248.133 99.9275 248.115 99.8017 248.07C99.676 248.025 99.5597 247.952 99.4593 247.858C99.359 247.763 99.2767 247.647 99.217 247.518C99.1574 247.388 99.1216 247.247 99.1117 247.102C99.1018 246.957 99.118 246.811 99.1593 246.673C99.2007 246.535 99.2664 246.407 99.3527 246.297C99.4391 246.187 99.5443 246.097 99.6625 246.031C99.7806 245.966 99.9094 245.926 100.041 245.915C100.996 245.75 101.971 245.54 102.926 245.286C103.054 245.254 103.188 245.249 103.318 245.273C103.448 245.297 103.573 245.349 103.685 245.426C103.797 245.503 103.894 245.603 103.971 245.721C104.048 245.839 104.102 245.973 104.132 246.114C104.192 246.398 104.148 246.696 104.009 246.944C103.869 247.193 103.646 247.37 103.388 247.438C102.383 247.703 101.378 247.924 100.373 248.1L100.192 248.122ZM77.4781 245.43C77.3616 245.43 77.246 245.407 77.1364 245.364C76.1314 244.977 75.2268 244.558 74.2821 244.117C74.1607 244.059 74.0507 243.976 73.9585 243.873C73.8662 243.769 73.7935 243.646 73.7446 243.511C73.6956 243.376 73.6712 243.232 73.6729 243.087C73.6746 242.942 73.7023 242.799 73.7545 242.666C73.8066 242.532 73.8821 242.411 73.9768 242.31C74.0714 242.209 74.1833 242.129 74.306 242.075C74.4287 242.022 74.5599 241.995 74.692 241.997C74.8242 241.999 74.9547 242.029 75.0761 242.086C75.9806 242.517 76.9153 242.914 77.8299 243.289C78.0528 243.378 78.24 243.55 78.3582 243.776C78.4765 244.002 78.5183 244.266 78.4762 244.522C78.4341 244.779 78.3108 245.01 78.1282 245.176C77.9455 245.342 77.7153 245.432 77.4781 245.43ZM112.584 243.73C112.396 243.731 112.211 243.673 112.051 243.564C111.891 243.455 111.763 243.298 111.68 243.112C111.561 242.851 111.542 242.548 111.627 242.27C111.712 241.993 111.894 241.764 112.132 241.634C113.006 241.17 113.881 240.652 114.735 240.111C114.85 240.038 114.976 239.991 115.108 239.972C115.239 239.953 115.373 239.962 115.501 240C115.629 240.038 115.749 240.104 115.854 240.193C115.959 240.282 116.046 240.393 116.112 240.519C116.243 240.773 116.277 241.073 116.208 241.354C116.138 241.635 115.97 241.874 115.74 242.02C114.846 242.583 113.931 243.123 113.026 243.62C112.877 243.7 112.711 243.738 112.544 243.73H112.584ZM65.8096 239.029C65.618 239.032 65.4297 238.975 65.2669 238.864C64.4126 238.268 63.5583 237.639 62.7241 236.999C62.5058 236.832 62.3568 236.577 62.3097 236.289C62.2626 236.002 62.3213 235.705 62.4728 235.465C62.625 235.225 62.8575 235.062 63.1194 235.01C63.3813 234.958 63.6512 235.023 63.8699 235.189C64.6839 235.818 65.5081 236.414 66.3423 236.999C66.5236 237.128 66.6625 237.317 66.7382 237.539C66.814 237.761 66.8226 238.004 66.7628 238.231C66.7031 238.459 66.5781 238.66 66.4064 238.804C66.2347 238.947 66.0255 239.027 65.8096 239.029ZM123.399 235.862C123.253 235.861 123.109 235.825 122.977 235.756C122.845 235.688 122.728 235.588 122.635 235.465C122.549 235.355 122.484 235.227 122.443 235.09C122.402 234.952 122.386 234.807 122.396 234.662C122.407 234.518 122.443 234.377 122.503 234.248C122.562 234.118 122.645 234.003 122.745 233.909L122.966 233.655C123.63 233.026 124.303 232.375 124.976 231.691C125.172 231.492 125.432 231.387 125.699 231.398C125.966 231.409 126.217 231.537 126.399 231.752C126.58 231.967 126.676 232.252 126.665 232.545C126.655 232.838 126.539 233.114 126.343 233.313C125.64 234.02 124.956 234.693 124.273 235.333L124.042 235.542C123.87 235.731 123.641 235.845 123.399 235.862ZM55.4175 230.345C55.1684 230.344 54.9284 230.242 54.7441 230.058C53.9903 229.297 53.2466 228.524 52.533 227.752C52.3424 227.547 52.2337 227.267 52.2309 226.974C52.2281 226.681 52.3313 226.399 52.5179 226.19C52.7045 225.981 52.9591 225.862 53.2258 225.859C53.4925 225.855 53.7495 225.969 53.94 226.174C54.6436 226.935 55.3672 227.685 56.1009 228.381C56.1991 228.479 56.2787 228.597 56.335 228.729C56.3912 228.862 56.4231 229.005 56.4287 229.15C56.4343 229.296 56.4135 229.442 56.3676 229.578C56.3217 229.715 56.2515 229.841 56.1612 229.948C56.07 230.068 55.9565 230.166 55.8283 230.234C55.7 230.303 55.56 230.34 55.4175 230.345ZM132.715 225.809C132.466 225.809 132.226 225.707 132.042 225.523C131.845 225.326 131.727 225.052 131.714 224.761C131.701 224.469 131.793 224.183 131.972 223.967C132.635 223.161 133.308 222.344 133.982 221.506C134.067 221.39 134.172 221.294 134.292 221.224C134.412 221.154 134.543 221.111 134.678 221.099C134.814 221.086 134.95 221.103 135.079 221.15C135.207 221.196 135.326 221.271 135.428 221.37C135.53 221.468 135.613 221.588 135.671 221.722C135.73 221.857 135.763 222.003 135.768 222.152C135.774 222.301 135.752 222.449 135.704 222.588C135.656 222.728 135.583 222.855 135.489 222.962C134.806 223.812 134.132 224.64 133.479 225.445C133.378 225.552 133.258 225.635 133.127 225.688C132.995 225.742 132.855 225.764 132.715 225.754V225.809ZM46.5831 219.784C46.4305 219.785 46.2796 219.748 46.1421 219.675C46.0045 219.603 45.8838 219.496 45.7891 219.365C45.1459 218.471 44.5328 217.577 43.9399 216.683C43.8622 216.566 43.8066 216.432 43.7762 216.29C43.7458 216.149 43.7412 216.002 43.7627 215.858C43.7842 215.715 43.8313 215.577 43.9014 215.454C43.9715 215.33 44.0631 215.223 44.171 215.139C44.3873 214.97 44.6555 214.902 44.9172 214.949C45.1788 214.997 45.4128 215.156 45.568 215.392C46.151 216.264 46.7439 217.136 47.3671 217.997C47.4839 218.159 47.5568 218.354 47.5775 218.56C47.5982 218.765 47.5658 218.973 47.4841 219.16C47.4023 219.346 47.2745 219.503 47.1152 219.614C46.9559 219.724 46.7715 219.783 46.5831 219.784ZM141.238 214.896C141.003 214.896 140.776 214.806 140.595 214.642C140.391 214.457 140.261 214.191 140.235 213.901C140.209 213.612 140.287 213.323 140.454 213.097C141.087 212.247 141.72 211.398 142.354 210.526C142.437 210.413 142.539 210.318 142.655 210.249C142.772 210.179 142.899 210.135 143.031 210.12C143.163 210.104 143.296 210.118 143.423 210.159C143.55 210.2 143.668 210.269 143.771 210.36C143.976 210.544 144.107 210.809 144.136 211.099C144.164 211.388 144.087 211.678 143.921 211.905L142.012 214.487C141.918 214.614 141.8 214.716 141.667 214.787C141.533 214.858 141.386 214.895 141.238 214.896ZM39.4272 207.811C39.2402 207.806 39.0582 207.743 38.902 207.63C38.7457 207.516 38.6213 207.358 38.5428 207.171C38.0604 206.145 37.6081 205.119 37.2061 204.126C37.1525 203.993 37.1233 203.85 37.1201 203.705C37.1169 203.56 37.1398 203.416 37.1874 203.281C37.235 203.145 37.3064 203.022 37.3976 202.917C37.4887 202.812 37.5978 202.728 37.7187 202.669C37.8394 202.61 37.9695 202.578 38.1016 202.575C38.2336 202.571 38.365 202.596 38.4882 202.648C38.6114 202.701 38.7241 202.779 38.8197 202.879C38.9152 202.979 38.9919 203.099 39.0453 203.232C39.4373 204.181 39.8694 205.174 40.3318 206.156C40.3924 206.286 40.429 206.427 40.4395 206.572C40.4501 206.717 40.4344 206.864 40.3933 207.002C40.3522 207.14 40.2865 207.269 40.2 207.379C40.1136 207.49 40.008 207.58 39.8895 207.646C39.7465 207.726 39.588 207.768 39.4272 207.767V207.811ZM149.379 203.651C149.191 203.651 149.008 203.592 148.849 203.483C148.69 203.374 148.562 203.218 148.479 203.034C148.396 202.849 148.363 202.642 148.381 202.437C148.4 202.233 148.47 202.038 148.585 201.874L150.434 199.259C150.511 199.134 150.611 199.028 150.726 198.947C150.842 198.867 150.972 198.813 151.107 198.789C151.243 198.765 151.381 198.772 151.514 198.809C151.647 198.846 151.772 198.913 151.88 199.005C151.989 199.097 152.079 199.213 152.146 199.344C152.212 199.476 152.253 199.622 152.266 199.771C152.28 199.921 152.265 200.073 152.223 200.216C152.181 200.36 152.113 200.492 152.022 200.605L150.173 203.221C150.075 203.346 149.953 203.446 149.816 203.513C149.678 203.58 149.529 203.612 149.379 203.607V203.651ZM35.2764 194.271C35.0325 194.274 34.7961 194.179 34.6112 194.004C34.4263 193.83 34.3055 193.587 34.2714 193.322C34.1307 192.219 34.0402 191.038 34 189.912C34 189.62 34.1059 189.339 34.2944 189.132C34.4829 188.925 34.7385 188.809 35.005 188.809C35.2716 188.809 35.5272 188.925 35.7157 189.132C35.9042 189.339 36.0101 189.62 36.0101 189.912C36.0435 190.976 36.1273 192.037 36.2613 193.09C36.2797 193.235 36.2719 193.382 36.2383 193.523C36.2048 193.663 36.1461 193.796 36.0658 193.912C35.9854 194.028 35.8849 194.125 35.7702 194.198C35.6554 194.271 35.5286 194.318 35.397 194.337L35.2764 194.271ZM157.369 192.274C157.181 192.275 156.996 192.219 156.835 192.111C156.675 192.002 156.545 191.847 156.461 191.661C156.377 191.476 156.343 191.269 156.361 191.063C156.379 190.857 156.45 190.661 156.565 190.497L158.404 187.871C158.57 187.653 158.806 187.513 159.063 187.481C159.32 187.449 159.579 187.527 159.785 187.699C159.991 187.871 160.128 188.124 160.169 188.405C160.209 188.686 160.15 188.973 160.002 189.206L158.143 191.799C158.051 191.93 157.934 192.036 157.8 192.111C157.666 192.185 157.519 192.226 157.369 192.23V192.274ZM322.97 186.205C322.876 186.215 322.782 186.215 322.688 186.205C322.562 186.164 322.443 186.096 322.341 186.006C322.238 185.915 322.152 185.803 322.089 185.676C322.025 185.549 321.985 185.409 321.971 185.265C321.956 185.121 321.968 184.975 322.005 184.836C322.256 183.865 322.528 182.806 322.799 181.669C322.832 181.528 322.889 181.396 322.969 181.28C323.048 181.164 323.148 181.066 323.262 180.992C323.376 180.919 323.502 180.87 323.633 180.85C323.764 180.83 323.897 180.838 324.025 180.875C324.153 180.912 324.274 180.976 324.379 181.065C324.485 181.153 324.573 181.264 324.639 181.39C324.706 181.516 324.749 181.656 324.766 181.8C324.783 181.945 324.774 182.091 324.739 182.232C324.467 183.335 324.196 184.439 323.935 185.443C323.868 185.666 323.739 185.86 323.566 185.997C323.392 186.134 323.183 186.207 322.97 186.205ZM165.309 180.886C165.087 180.885 164.871 180.803 164.696 180.654C164.486 180.475 164.349 180.212 164.315 179.923C164.281 179.633 164.353 179.34 164.515 179.109L166.354 176.483C166.518 176.25 166.759 176.098 167.025 176.061C167.291 176.024 167.559 176.104 167.771 176.284C167.983 176.464 168.121 176.729 168.155 177.021C168.189 177.313 168.116 177.607 167.952 177.84L166.103 180.455C166.006 180.576 165.887 180.672 165.754 180.737C165.62 180.801 165.475 180.833 165.329 180.831L165.309 180.886ZM36.3216 180.102C36.225 180.118 36.1268 180.118 36.0302 180.102C35.7757 180.016 35.5629 179.822 35.4385 179.563C35.3141 179.305 35.2884 179.002 35.3669 178.723C35.6583 177.619 36.0101 176.571 36.3719 175.512C36.4156 175.369 36.4854 175.237 36.577 175.125C36.6687 175.013 36.7803 174.923 36.9049 174.86C37.0295 174.797 37.1646 174.763 37.3017 174.76C37.4388 174.756 37.5752 174.784 37.7023 174.84C37.8294 174.897 37.9446 174.981 38.0409 175.089C38.1371 175.196 38.2123 175.324 38.2619 175.464C38.3114 175.605 38.3343 175.755 38.329 175.905C38.3237 176.056 38.2904 176.203 38.2312 176.339C37.8694 177.343 37.5377 178.359 37.2262 179.363C37.1535 179.558 37.0317 179.726 36.875 179.847C36.7183 179.968 36.5332 180.037 36.3418 180.047L36.3216 180.102ZM325.985 172.179C325.922 172.191 325.857 172.191 325.794 172.179C325.533 172.125 325.302 171.961 325.152 171.721C325.001 171.481 324.943 171.186 324.99 170.899C325.171 169.795 325.342 168.758 325.513 167.655C325.534 167.51 325.582 167.371 325.652 167.246C325.723 167.121 325.815 167.013 325.924 166.928C326.033 166.842 326.156 166.781 326.286 166.748C326.416 166.714 326.551 166.709 326.683 166.733C326.815 166.757 326.942 166.809 327.055 166.887C327.169 166.964 327.268 167.066 327.345 167.185C327.423 167.305 327.479 167.44 327.51 167.583C327.54 167.726 327.544 167.874 327.523 168.019C327.352 169.122 327.181 170.226 327 171.329C326.947 171.578 326.816 171.799 326.631 171.954C326.446 172.109 326.218 172.188 325.985 172.179ZM173.349 169.497C173.16 169.499 172.974 169.441 172.813 169.331C172.653 169.222 172.523 169.064 172.44 168.878C172.357 168.691 172.324 168.482 172.344 168.276C172.365 168.069 172.438 167.873 172.555 167.71L174.435 165.106C174.515 164.987 174.617 164.888 174.734 164.814C174.85 164.74 174.979 164.692 175.112 164.674C175.246 164.655 175.381 164.666 175.511 164.706C175.641 164.746 175.762 164.815 175.867 164.907C175.972 165 176.059 165.114 176.123 165.244C176.187 165.374 176.226 165.517 176.239 165.664C176.251 165.812 176.237 165.96 176.196 166.101C176.156 166.242 176.09 166.373 176.002 166.485L174.133 169.078C174.042 169.205 173.926 169.309 173.794 169.381C173.662 169.454 173.517 169.493 173.369 169.497H173.349ZM42.3017 167.357C42.0876 167.354 41.8799 167.277 41.7087 167.136C41.4968 166.962 41.3558 166.704 41.3162 166.417C41.2767 166.13 41.3419 165.837 41.4976 165.602C42.1006 164.708 42.7439 163.814 43.4072 162.943C43.5791 162.719 43.825 162.579 44.0908 162.554C44.3565 162.529 44.6204 162.621 44.8243 162.81C45.0282 162.999 45.1555 163.269 45.1781 163.561C45.2007 163.853 45.1168 164.142 44.9449 164.366C44.3017 165.194 43.6886 166.055 43.1157 166.904C43.0222 167.045 42.8996 167.159 42.7582 167.238C42.6167 167.316 42.4602 167.357 42.3017 167.357ZM181.55 158.297C181.319 158.295 181.095 158.205 180.917 158.043C180.713 157.858 180.584 157.592 180.557 157.302C180.531 157.013 180.61 156.724 180.776 156.498L182.696 153.938C182.778 153.824 182.879 153.729 182.995 153.659C183.11 153.588 183.237 153.543 183.368 153.526C183.499 153.509 183.632 153.521 183.759 153.56C183.886 153.6 184.005 153.666 184.108 153.756C184.212 153.846 184.298 153.957 184.363 154.084C184.427 154.21 184.468 154.349 184.483 154.493C184.499 154.637 184.488 154.783 184.452 154.923C184.416 155.062 184.356 155.193 184.274 155.306L182.364 157.855C182.27 157.994 182.147 158.106 182.005 158.183C181.864 158.26 181.708 158.299 181.55 158.297ZM327.754 157.966H327.673C327.408 157.943 327.162 157.806 326.989 157.585C326.816 157.364 326.729 157.076 326.749 156.785C326.829 155.682 326.889 154.578 326.95 153.475C326.95 153.325 326.977 153.177 327.031 153.039C327.084 152.902 327.163 152.777 327.262 152.674C327.36 152.571 327.477 152.491 327.605 152.439C327.733 152.387 327.869 152.364 328.005 152.371C328.27 152.388 328.518 152.52 328.695 152.737C328.872 152.954 328.964 153.239 328.95 153.53C328.9 154.633 328.829 155.737 328.749 156.84C328.751 156.986 328.728 157.131 328.679 157.267C328.63 157.403 328.558 157.526 328.465 157.631C328.373 157.736 328.262 157.819 328.14 157.877C328.018 157.934 327.887 157.964 327.754 157.966ZM51.3671 157.028C51.1586 157.029 50.955 156.959 50.7845 156.827C50.614 156.695 50.485 156.508 50.4154 156.293C50.3459 156.077 50.3391 155.843 50.3962 155.622C50.4533 155.402 50.5713 155.207 50.734 155.064C52.2315 153.739 53.1963 153.033 53.2365 153C53.4591 152.845 53.7283 152.792 53.9861 152.853C54.2439 152.913 54.4697 153.083 54.6147 153.325C54.7597 153.566 54.8124 153.861 54.7614 154.145C54.7104 154.429 54.5598 154.68 54.3421 154.843C54.3421 154.843 53.4074 155.527 52.0003 156.774C51.8168 156.941 51.5853 157.031 51.347 157.028H51.3671ZM189.993 147.306C189.801 147.304 189.615 147.242 189.454 147.127C189.294 147.013 189.167 146.85 189.088 146.659C189.008 146.468 188.981 146.256 189.007 146.048C189.034 145.84 189.115 145.645 189.239 145.485C189.892 144.647 190.555 143.808 191.249 142.98C191.334 142.864 191.44 142.768 191.559 142.698C191.679 142.628 191.811 142.586 191.946 142.573C192.081 142.56 192.217 142.578 192.346 142.624C192.475 142.671 192.594 142.746 192.696 142.844C192.797 142.942 192.88 143.062 192.939 143.197C192.997 143.331 193.03 143.477 193.036 143.626C193.041 143.775 193.02 143.924 192.972 144.063C192.924 144.202 192.85 144.329 192.756 144.437C192.093 145.264 191.43 146.092 190.746 146.931C190.65 147.051 190.531 147.147 190.397 147.212C190.264 147.277 190.119 147.309 189.973 147.306H189.993ZM327.995 143.62C327.739 143.621 327.492 143.514 327.305 143.321C327.118 143.128 327.005 142.864 326.99 142.583C326.93 141.479 326.859 140.376 326.769 139.272C326.745 138.98 326.828 138.689 326.999 138.463C327.171 138.237 327.417 138.096 327.683 138.07C327.95 138.043 328.215 138.134 328.421 138.323C328.626 138.511 328.755 138.781 328.779 139.074C328.869 140.177 328.95 141.281 329 142.384C329 142.666 328.903 142.937 328.727 143.142C328.552 143.347 328.311 143.471 328.055 143.488L327.995 143.62ZM198.747 136.613C198.493 136.612 198.248 136.506 198.063 136.315C197.869 136.116 197.755 135.84 197.745 135.548C197.736 135.257 197.832 134.973 198.013 134.759C198.696 133.942 199.39 133.137 200.083 132.342C200.271 132.154 200.516 132.05 200.77 132.052C201.024 132.055 201.268 132.162 201.453 132.354C201.637 132.545 201.749 132.807 201.765 133.085C201.782 133.363 201.701 133.638 201.541 133.854L199.53 136.26C199.427 136.384 199.299 136.48 199.156 136.541C199.013 136.603 198.859 136.627 198.706 136.613H198.747ZM326.176 129.429C325.946 129.436 325.721 129.357 325.538 129.205C325.356 129.052 325.226 128.835 325.171 128.59C324.94 127.487 324.688 126.461 324.407 125.445C324.37 125.306 324.358 125.161 324.373 125.017C324.387 124.873 324.427 124.733 324.491 124.606C324.554 124.479 324.64 124.367 324.743 124.276C324.846 124.185 324.964 124.118 325.09 124.077C325.345 123.995 325.619 124.026 325.852 124.165C326.086 124.303 326.26 124.538 326.337 124.816C326.618 125.92 326.889 126.968 327.131 128.072C327.162 128.213 327.168 128.36 327.147 128.504C327.127 128.647 327.081 128.785 327.012 128.909C326.943 129.033 326.852 129.141 326.745 129.227C326.637 129.312 326.516 129.373 326.387 129.407L326.176 129.429ZM207.862 126.328C207.663 126.327 207.469 126.262 207.305 126.14C207.14 126.018 207.012 125.845 206.936 125.643C206.861 125.441 206.842 125.219 206.882 125.005C206.921 124.791 207.018 124.595 207.159 124.441L209.34 122.124C209.433 122.021 209.544 121.938 209.667 121.882C209.789 121.826 209.921 121.798 210.053 121.798C210.186 121.798 210.317 121.826 210.44 121.882C210.562 121.938 210.673 122.021 210.767 122.124C210.954 122.331 211.059 122.61 211.059 122.902C211.059 123.193 210.954 123.473 210.767 123.68C210.043 124.43 209.33 125.203 208.606 125.975C208.507 126.093 208.385 126.186 208.25 126.247C208.114 126.308 207.968 126.336 207.822 126.328H207.862ZM217.481 116.595C217.277 116.595 217.077 116.527 216.91 116.399C216.742 116.271 216.614 116.091 216.542 115.881C216.47 115.672 216.457 115.443 216.507 115.226C216.556 115.008 216.664 114.812 216.817 114.664L219.129 112.457C219.334 112.268 219.599 112.177 219.866 112.203C220.133 112.229 220.379 112.37 220.551 112.595C220.723 112.82 220.806 113.112 220.783 113.404C220.759 113.697 220.631 113.968 220.425 114.157C219.661 114.852 218.898 115.569 218.134 116.286C217.947 116.484 217.699 116.594 217.44 116.595H217.481ZM321.663 116.011C321.48 116.009 321.301 115.953 321.146 115.848C320.99 115.743 320.863 115.593 320.779 115.415C320.316 114.455 319.834 113.506 319.321 112.59C319.185 112.339 319.144 112.04 319.208 111.756C319.272 111.473 319.436 111.229 319.663 111.078C319.891 110.928 320.164 110.883 320.422 110.953C320.68 111.023 320.902 111.203 321.04 111.453C321.573 112.402 322.045 113.395 322.558 114.388C322.64 114.557 322.68 114.746 322.675 114.937C322.67 115.129 322.621 115.315 322.53 115.479C322.44 115.642 322.313 115.777 322.161 115.87C322.009 115.964 321.837 116.012 321.663 116.011ZM227.692 107.646C227.533 107.646 227.377 107.606 227.235 107.527C227.094 107.448 226.971 107.334 226.878 107.193C226.799 107.077 226.742 106.944 226.71 106.804C226.678 106.663 226.672 106.516 226.691 106.373C226.711 106.229 226.756 106.092 226.824 105.967C226.893 105.843 226.982 105.735 227.089 105.649C227.913 104.986 228.737 104.346 229.561 103.706C229.669 103.623 229.791 103.564 229.921 103.532C230.05 103.501 230.183 103.498 230.313 103.523C230.443 103.548 230.568 103.601 230.679 103.679C230.791 103.757 230.887 103.858 230.963 103.977C231.039 104.096 231.093 104.23 231.122 104.371C231.15 104.513 231.153 104.659 231.13 104.802C231.108 104.945 231.059 105.082 230.988 105.204C230.917 105.327 230.825 105.433 230.717 105.516L228.285 107.425C228.103 107.575 227.879 107.653 227.652 107.646H227.692ZM314.025 104.446C313.892 104.445 313.76 104.416 313.638 104.359C313.515 104.302 313.404 104.219 313.311 104.115C312.641 103.379 311.928 102.643 311.171 101.908C310.971 101.714 310.849 101.442 310.832 101.15C310.815 100.859 310.904 100.571 311.08 100.352C311.256 100.132 311.504 99.9989 311.77 99.9803C312.036 99.9616 312.297 100.06 312.497 100.252C313.261 100.992 314.015 101.775 314.738 102.581C314.926 102.788 315.031 103.067 315.031 103.359C315.031 103.65 314.926 103.93 314.738 104.137C314.639 104.242 314.521 104.325 314.391 104.378C314.261 104.431 314.123 104.454 313.985 104.446H314.025ZM238.647 99.7669C238.47 99.7676 238.295 99.717 238.142 99.6201C237.988 99.5232 237.861 99.3835 237.772 99.2151C237.64 98.9631 237.604 98.6641 237.672 98.3831C237.74 98.1021 237.906 97.8618 238.134 97.7144C239.019 97.1516 239.903 96.6108 240.787 96.0812C240.903 96.0087 241.03 95.9619 241.162 95.9435C241.294 95.9251 241.428 95.9354 241.556 95.9738C241.685 96.0122 241.805 96.078 241.91 96.1675C242.015 96.2569 242.103 96.3682 242.169 96.495C242.235 96.6218 242.278 96.7616 242.295 96.9065C242.312 97.0514 242.302 97.1984 242.267 97.3393C242.232 97.4802 242.172 97.6122 242.091 97.7277C242.009 97.8431 241.908 97.9398 241.792 98.0123C240.918 98.531 240.054 99.1158 239.189 99.6234C238.996 99.7489 238.769 99.7994 238.546 99.7669H238.647ZM303.653 95.8825C303.483 95.8831 303.317 95.8336 303.17 95.7391C302.326 95.2315 301.442 94.7349 300.537 94.2714C300.418 94.2091 300.311 94.1216 300.222 94.0138C300.133 93.906 300.065 93.7802 300.021 93.6434C299.976 93.5066 299.957 93.3615 299.964 93.2165C299.97 93.0715 300.003 92.9294 300.06 92.7982C300.117 92.6671 300.196 92.5495 300.294 92.4522C300.393 92.3549 300.507 92.2797 300.632 92.231C300.756 92.1824 300.889 92.1611 301.021 92.1685C301.153 92.1759 301.282 92.2117 301.402 92.2741C302.336 92.7596 303.251 93.2783 304.135 93.8079C304.333 93.9248 304.489 94.1108 304.578 94.3362C304.668 94.5616 304.687 94.8136 304.632 95.052C304.576 95.2905 304.45 95.5017 304.272 95.6522C304.095 95.8027 303.877 95.8838 303.653 95.8825ZM250.335 93.4327C250.101 93.4334 249.874 93.3442 249.694 93.1807C249.513 93.0172 249.39 92.7895 249.346 92.537C249.302 92.2845 249.339 92.0231 249.452 91.7978C249.565 91.5725 249.746 91.3975 249.963 91.303C250.908 90.8836 251.853 90.4864 252.808 90.1112C253.056 90.0212 253.327 90.0411 253.562 90.1666C253.797 90.2922 253.979 90.5136 254.068 90.7838C254.157 91.0539 254.146 91.3515 254.039 91.6133C253.931 91.8751 253.735 92.0805 253.491 92.1858C252.567 92.5499 251.642 92.9362 250.717 93.3555C250.571 93.4208 250.412 93.4473 250.255 93.4327H250.335ZM291.592 90.4533C291.495 90.464 291.398 90.464 291.301 90.4533C290.356 90.1443 289.391 89.8574 288.437 89.6146C288.17 89.5458 287.939 89.3636 287.795 89.108C287.651 88.8524 287.605 88.5444 287.668 88.2518C287.73 87.9591 287.896 87.7058 288.129 87.5474C288.362 87.3891 288.642 87.3388 288.909 87.4076C289.914 87.6724 290.919 87.9594 291.924 88.2794C292.191 88.3203 292.431 88.4759 292.593 88.7118C292.756 88.9477 292.826 89.2447 292.788 89.5374C292.751 89.83 292.609 90.0944 292.394 90.2724C292.18 90.4504 291.909 90.5274 291.643 90.4864L291.592 90.4533ZM262.667 89.2284C262.434 89.2341 262.205 89.1502 262.022 88.9911C261.838 88.8319 261.711 88.6076 261.662 88.3566C261.634 88.2138 261.632 88.0663 261.657 87.9228C261.681 87.7792 261.731 87.6424 261.804 87.5202C261.877 87.3981 261.972 87.293 262.082 87.2112C262.192 87.1293 262.316 87.0723 262.446 87.0434C263.451 86.8227 264.456 86.6131 265.461 86.4475C265.728 86.4022 266 86.4749 266.218 86.6498C266.435 86.8247 266.581 87.0873 266.622 87.38C266.663 87.6727 266.597 87.9714 266.438 88.2104C266.279 88.4494 266.039 88.6092 265.773 88.6546C264.768 88.8201 263.833 89.0187 262.858 89.2394C262.794 89.2456 262.73 89.2419 262.667 89.2284ZM278.678 87.9925H278.607C277.602 87.9262 276.597 87.8821 275.652 87.8711C275.386 87.8711 275.13 87.7548 274.942 87.5479C274.753 87.3409 274.647 87.0602 274.647 86.7676C274.647 86.4749 274.753 86.1942 274.942 85.9873C275.13 85.7803 275.386 85.6641 275.652 85.6641C276.657 85.6641 277.662 85.7192 278.718 85.7854C278.984 85.7942 279.237 85.9189 279.42 86.1321C279.602 86.3452 279.701 86.6294 279.693 86.9221C279.685 87.2147 279.571 87.4919 279.377 87.6927C279.183 87.8934 278.924 88.0012 278.657 87.9925H278.678Z" fill="#C4D0FB"/>
<g clip-path="url(#clip0_244_264)">
<rect x="289" y="171" width="56" height="56" rx="28" fill="#C4D0FB"/>
<rect x="297" y="187" width="40" height="50" rx="8" fill="white"/>
<mask id="path-4-inside-1_244_264" fill="white">
<path d="M330.982 207.705C330.866 210.005 330.185 212.24 328.999 214.213C327.813 216.186 326.158 217.837 324.182 219.018C322.205 220.199 319.968 220.874 317.669 220.984C315.369 221.094 313.078 220.635 310.998 219.648C308.918 218.661 307.113 217.176 305.744 215.325C304.375 213.474 303.484 211.314 303.149 209.036C302.814 206.758 303.046 204.433 303.825 202.266C304.603 200.1 305.904 198.158 307.612 196.614L310.617 199.939C309.456 200.989 308.572 202.309 308.043 203.782C307.514 205.255 307.356 206.836 307.583 208.384C307.811 209.933 308.417 211.401 309.348 212.66C310.279 213.918 311.505 214.928 312.919 215.599C314.333 216.27 315.891 216.582 317.455 216.507C319.018 216.432 320.539 215.973 321.882 215.17C323.226 214.367 324.351 213.245 325.157 211.904C325.964 210.562 326.427 209.043 326.506 207.479L330.982 207.705Z"/>
</mask>
<path d="M330.982 207.705C330.866 210.005 330.185 212.24 328.999 214.213C327.813 216.186 326.158 217.837 324.182 219.018C322.205 220.199 319.968 220.874 317.669 220.984C315.369 221.094 313.078 220.635 310.998 219.648C308.918 218.661 307.113 217.176 305.744 215.325C304.375 213.474 303.484 211.314 303.149 209.036C302.814 206.758 303.046 204.433 303.825 202.266C304.603 200.1 305.904 198.158 307.612 196.614L310.617 199.939C309.456 200.989 308.572 202.309 308.043 203.782C307.514 205.255 307.356 206.836 307.583 208.384C307.811 209.933 308.417 211.401 309.348 212.66C310.279 213.918 311.505 214.928 312.919 215.599C314.333 216.27 315.891 216.582 317.455 216.507C319.018 216.432 320.539 215.973 321.882 215.17C323.226 214.367 324.351 213.245 325.157 211.904C325.964 210.562 326.427 209.043 326.506 207.479L330.982 207.705Z" stroke="#6A5AE0" stroke-width="8" mask="url(#path-4-inside-1_244_264)"/>
<mask id="path-5-inside-2_244_264" fill="white">
<path d="M309.129 195.422C311.158 194.042 313.515 193.22 315.962 193.039C318.41 192.857 320.862 193.321 323.073 194.386C325.284 195.45 327.177 197.077 328.561 199.104C329.945 201.13 330.772 203.485 330.959 205.932L326.49 206.274C326.363 204.61 325.801 203.01 324.86 201.632C323.919 200.254 322.632 199.148 321.129 198.424C319.625 197.701 317.958 197.385 316.294 197.508C314.631 197.632 313.029 198.191 311.649 199.129L309.129 195.422Z"/>
</mask>
<path d="M309.129 195.422C311.158 194.042 313.515 193.22 315.962 193.039C318.41 192.857 320.862 193.321 323.073 194.386C325.284 195.45 327.177 197.077 328.561 199.104C329.945 201.13 330.772 203.485 330.959 205.932L326.49 206.274C326.363 204.61 325.801 203.01 324.86 201.632C323.919 200.254 322.632 199.148 321.129 198.424C319.625 197.701 317.958 197.385 316.294 197.508C314.631 197.632 313.029 198.191 311.649 199.129L309.129 195.422Z" stroke="#C4D0FB" stroke-width="8" mask="url(#path-5-inside-2_244_264)"/>
</g>
<g clip-path="url(#clip1_244_264)">
<rect x="26" y="104" width="56" height="56" rx="28" fill="#C4D0FB"/>
<rect x="34" y="120" width="40" height="50" rx="8" fill="white"/>
<rect x="40" y="126" width="12" height="12" rx="2" fill="#6A5AE0"/>
<path d="M43.2891 135H44.5051L44.8971 133.728H46.9691L47.3611 135H48.7131L46.8571 129.28H45.1691L43.2891 135ZM45.9371 130.336L46.6891 132.808H45.1771L45.9371 130.336Z" fill="white"/>
<rect x="40" y="142" width="12" height="12" rx="2" fill="#C4D0FB"/>
<rect x="56" y="126" width="12" height="12" rx="2" fill="#C4D0FB"/>
<rect x="56" y="142" width="12" height="12" rx="2" fill="#C4D0FB"/>
<path d="M59.9793 135H62.3313C63.6513 135 64.3393 134.448 64.3393 133.4V133.368C64.3393 132.6 63.9393 132.176 63.1953 132.024C63.8353 131.84 64.1233 131.4 64.1233 130.8V130.768C64.1233 129.792 63.4753 129.28 62.2273 129.28H59.9793V135ZM61.2433 134.104V132.464H62.0673C62.7713 132.464 63.0593 132.736 63.0593 133.264V133.296C63.0593 133.816 62.7713 134.104 62.1313 134.104H61.2433ZM61.2433 131.632V130.168H62.0113C62.6193 130.168 62.8913 130.384 62.8913 130.864V130.896C62.8913 131.408 62.6433 131.632 62.0193 131.632H61.2433Z" fill="white"/>
<path d="M61.0097 149.992V146.288H61.5217C62.7297 146.288 63.2337 146.92 63.2337 148.096V148.16C63.2337 149.344 62.6897 149.992 61.5377 149.992H61.0097ZM59.7137 151H61.5777C63.5857 151 64.5857 149.856 64.5857 148.144V148.08C64.5857 146.368 63.5937 145.28 61.5857 145.28H59.7137V151Z" fill="white"/>
<path d="M46.1998 151.088C47.6078 151.088 48.6238 150.36 48.7678 148.944H47.4958C47.3918 149.68 46.8958 150.04 46.1838 150.04C45.2398 150.04 44.6958 149.352 44.6958 148.168V148.104C44.6958 146.92 45.2718 146.216 46.1758 146.216C46.8958 146.216 47.2798 146.584 47.3758 147.272H48.7038C48.5678 145.864 47.5438 145.192 46.1678 145.192C44.5438 145.192 43.3278 146.376 43.3278 148.112V148.176C43.3278 149.936 44.3278 151.088 46.1998 151.088Z" fill="white"/>
</g>
<path d="M252.906 273.156C251.805 283.307 243.234 291 233.022 291H141.546C129.647 291 120.38 280.674 121.663 268.845L143.339 68.845C144.439 58.6928 153.011 51 163.223 51H252.046C258.724 51 264.962 54.333 268.673 59.8846L270.96 63.3051C273.57 67.2092 274.723 71.9072 274.216 76.576L252.906 273.156Z" fill="#9087E5"/>
<path d="M238.656 273.155C237.555 283.307 228.984 291 218.772 291H127.285C115.386 291 106.119 280.674 107.401 268.845L129.078 68.845C130.178 58.6928 138.75 51 148.961 51H240.449C252.347 51 261.614 61.3256 260.332 73.155L238.656 273.155Z" fill="#B9B2F0"/>
<path d="M231.394 234.753C230.733 240.844 225.59 245.46 219.464 245.46H133.55C126.41 245.46 120.85 239.264 121.62 232.166L137.784 83.1066C138.444 77.0156 143.587 72.4003 149.714 72.4003H235.628C242.767 72.4003 248.327 78.5961 247.558 85.694L231.394 234.753Z" fill="white" fill-opacity="0.8"/>
<path opacity="0.6" d="M177.739 257.134C171.606 251.056 161.908 252.251 157.574 260.081C156.48 261.984 155.888 264.2 155.866 266.47C155.866 276.08 161.724 282.378 173.429 279.728C182.359 277.703 185.764 265.068 177.739 257.134Z" fill="white"/>
<path d="M199.234 205.299H151.449C146.256 205.299 141.646 209.49 141.151 214.659C140.657 219.828 144.466 224.019 149.659 224.019H197.445C202.638 224.019 207.248 219.828 207.742 214.659C208.236 209.49 204.427 205.299 199.234 205.299Z" fill="#6A5AE0"/>
<path d="M211.555 143.347H186.472C184.54 143.347 182.824 144.907 182.64 146.831C182.456 148.755 183.874 150.314 185.806 150.314H210.889C212.822 150.314 214.537 148.755 214.721 146.831C214.905 144.907 213.488 143.347 211.555 143.347Z" fill="#6A5AE0"/>
<path d="M228.974 157.192H185.149C183.216 157.192 181.501 158.751 181.317 160.675C181.133 162.599 182.551 164.159 184.483 164.159H228.308C230.241 164.159 231.957 162.599 232.14 160.675C232.324 158.751 230.907 157.192 228.974 157.192Z" fill="#C4D0FB"/>
<path d="M147.539 141.189H164.522C166.731 141.189 168.351 142.972 168.141 145.171L166.554 161.775C166.344 163.975 164.382 165.757 162.173 165.757H145.191C142.982 165.757 141.361 163.975 141.572 161.775L143.159 145.171C143.369 142.972 145.33 141.189 147.539 141.189Z" stroke="#6A5AE0" stroke-width="4"/>
<path d="M169.131 94.6839H152.149C148.836 94.6839 145.874 97.3561 145.535 100.652L143.827 117.245C143.488 120.541 145.899 123.213 149.213 123.213H166.195C169.508 123.213 172.47 120.541 172.809 117.245L174.517 100.652C174.856 97.3561 172.445 94.6839 169.131 94.6839Z" fill="#6A5AE0"/>
<path d="M154.436 108.909L157.348 113.815L165.362 104.786" stroke="white" stroke-width="4.06" stroke-linecap="round" stroke-linejoin="round"/>
<path d="M216.048 97.824H190.965C189.033 97.824 187.306 99.3825 187.108 101.305C186.91 103.227 188.316 104.786 190.249 104.786H215.331C217.264 104.786 218.991 103.227 219.189 101.305C219.387 99.3825 217.98 97.824 216.048 97.824Z" fill="#6A5AE0"/>
<path d="M233.366 111.658H189.541C187.608 111.658 185.881 113.217 185.683 115.139C185.485 117.062 186.892 118.62 188.824 118.62H232.649C234.582 118.62 236.309 117.062 236.507 115.139C236.705 113.217 235.299 111.658 233.366 111.658Z" fill="#C4D0FB"/>
<defs>
<clipPath id="clip0_244_264">
<rect x="289" y="171" width="56" height="56" rx="28" fill="white"/>
</clipPath>
<clipPath id="clip1_244_264">
<rect x="26" y="104" width="56" height="56" rx="28" fill="white"/>
</clipPath>
</defs>
</svg>
