<svg width="250" height="251" viewBox="0 0 250 251" fill="none" xmlns="http://www.w3.org/2000/svg">
<path d="M142.5 93C163.763 93 181 75.9869 181 55C181 34.0131 163.763 17 142.5 17C121.237 17 104 34.0131 104 55C104 75.9869 121.237 93 142.5 93Z" fill="#EFEEFC"/>
<path d="M193 204H92L130.296 52H154.704L193 204Z" fill="#EFEEFC"/>
<path fill-rule="evenodd" clip-rule="evenodd" d="M11.2964 21.5169C16.983 21.5169 21.5929 16.924 21.5929 11.2584C21.5929 5.59284 16.983 1 11.2964 1C5.60989 1 1 5.59284 1 11.2584C1 16.924 5.60989 21.5169 11.2964 21.5169Z" stroke="#EFEEFC" stroke-width="2"/>
<path d="M18.3383 18.75L34.1893 35.0001" stroke="#EFEEFC" stroke-width="2"/>
<path d="M32.7787 34.1176L37.3784 29.7383" stroke="#EFEEFC" stroke-width="2"/>
<path d="M28.2518 28.9136L32.1444 25.2314" stroke="#EFEEFC" stroke-width="2"/>
<path fill-rule="evenodd" clip-rule="evenodd" d="M225.597 148.059C232.543 148.059 238.173 142.449 238.173 135.53C238.173 128.61 232.543 123 225.597 123C218.652 123 213.021 128.61 213.021 135.53C213.021 142.449 218.652 148.059 225.597 148.059Z" stroke="#EFEEFC" stroke-width="3"/>
<path d="M232.806 145.8L248.299 168.767" stroke="#EFEEFC" stroke-width="3"/>
<path d="M247.598 166.864L241.187 171.236" stroke="#E9EEF2" stroke-width="3"/>
<path d="M115.316 240.23L125.758 154.608L130.697 177.104L126.894 240.23H155.577L159.615 170.869C159.892 166.113 159.439 161.343 158.27 156.724L143.088 96.7359L94.8462 96.3516L94.6745 167.154L87.3364 240.23H115.316Z" fill="#09074A"/>
<path d="M125.902 156.469L129.14 122.665" stroke="white" stroke-linecap="square"/>
<path d="M180.917 33.2787L180.397 30.3519C180.244 28.9244 180.167 27.4898 180.162 26.0543C180.162 23.8117 181.383 21.0138 179.304 17.295C177.224 13.5762 181.42 15.8234 182.483 17.5786C183.382 19.0431 183.391 22.3425 184.41 23.4368C184.833 23.1331 185.212 22.7708 185.532 22.3612L192.588 10.5768C192.696 10.3862 192.872 10.2414 193.079 10.169C193.286 10.0967 193.514 10.1017 193.719 10.1831L194.189 10.3729C194.307 10.4203 194.415 10.492 194.504 10.5832C194.594 10.6745 194.662 10.7834 194.707 10.9028C194.751 11.0222 194.77 11.1496 194.761 11.2767C194.754 11.4038 194.718 11.5278 194.66 11.6406C193.317 14.2183 189.107 21.8129 189.25 21.8668L189.502 22.1011L198.065 10.633C198.192 10.4512 198.383 10.3221 198.599 10.2699C198.816 10.2177 199.044 10.246 199.241 10.3495L199.879 10.6893C199.989 10.7468 200.086 10.8261 200.163 10.9222C200.241 11.0183 200.297 11.1293 200.33 11.2483C200.363 11.3673 200.373 11.4918 200.354 11.614C200.337 11.7363 200.295 11.8538 200.231 11.9593C198.585 14.701 192.235 23.5352 192.376 23.5962L192.7 23.8445L200.857 14.7291C200.991 14.5379 201.196 14.4057 201.424 14.3599C201.654 14.3141 201.894 14.3582 202.092 14.4831L202.581 14.7947C202.682 14.8591 202.772 14.9427 202.84 15.041C202.908 15.1392 202.957 15.2501 202.983 15.3672C203.009 15.4843 203.011 15.6054 202.99 15.7235C202.969 15.8416 202.927 15.9544 202.861 16.0554L195.231 25.1498L195.525 25.5106L202.374 19.3876C202.522 19.2205 202.727 19.1132 202.95 19.0865C203.171 19.0598 203.397 19.1151 203.581 19.2423L203.816 19.404C204.011 19.5411 204.145 19.7485 204.187 19.9821C204.232 20.2157 204.183 20.4573 204.051 20.6553C203.11 22.0777 199.97 24.6389 197.618 27.6313C195.793 29.9488 195.01 32.0344 192.392 34.7034C191.287 35.8352 189.509 37.0233 188.535 37.6935" fill="#FFCCD7"/>
<path d="M128.501 240.23L123.077 251H171.845L151.531 240.23H128.501Z" fill="#0D0B6D"/>
<path d="M88.9899 240.23L83.5685 251H132.334L112.02 240.23H88.9899Z" fill="#0D0B6D"/>
<path d="M165.85 57.7026C165.85 57.7026 147.27 50.9797 123.395 51.5022C95.251 52.1185 81.8611 72.1631 76.12 85.1848C75.5915 86.3795 75.3692 87.6861 75.4732 88.9873C75.5771 90.2888 76.0038 91.5439 76.715 92.6403C77.4263 93.7367 78.3997 94.6398 79.548 95.2685C80.6962 95.8975 81.9832 96.2323 83.2935 96.2429L143.088 96.735L149.069 76.6412L173.123 78.0589C176.42 78.2536 179.68 77.2706 182.317 75.2865C184.953 73.3024 186.795 70.4469 187.507 67.2328L194.246 36.866L177.718 32.498L165.85 57.7026Z" fill="#9087E5"/>
<mask id="mask0_145_3731" style="mask-type:luminance" maskUnits="userSpaceOnUse" x="75" y="32" width="120" height="65">
<path fill-rule="evenodd" clip-rule="evenodd" d="M165.85 57.7026C165.85 57.7026 147.27 50.9797 123.395 51.5022C95.251 52.1185 81.8611 72.1631 76.12 85.1848C75.5915 86.3795 75.3692 87.6861 75.4732 88.9873C75.5771 90.2888 76.0038 91.5439 76.715 92.6403C77.4263 93.7367 78.3997 94.6398 79.548 95.2685C80.6962 95.8975 81.9832 96.2323 83.2935 96.2429L108.93 96.4467L143.088 96.735L149.069 76.6412L173.123 78.0589C176.42 78.2536 179.68 77.2706 182.317 75.2865C184.953 73.3024 186.795 70.4469 187.507 67.2328L194.246 36.866L177.718 32.498L165.85 57.7026Z" fill="white"/>
</mask>
<g mask="url(#mask0_145_3731)">
<path d="M82.6747 58.2812L98.2989 73.8478" stroke="#9087E5" stroke-width="31" stroke-linecap="round"/>
<path d="M107.378 60.8258L124.698 43.5674" stroke="#9087E5" stroke-width="31" stroke-linecap="round"/>
<path d="M135.785 76.939L125.159 66.3496" stroke="#9087E5" stroke-width="31" stroke-linecap="round"/>
<path d="M142.149 59.9143L157.571 44.5493" stroke="#9087E5" stroke-width="31" stroke-linecap="round"/>
<path d="M161.454 66.4102L179.214 84.1044" stroke="#9087E5" stroke-width="31" stroke-linecap="round"/>
<path d="M182.255 58.473L199.745 41.0459" stroke="#9087E5" stroke-width="31" stroke-linecap="round"/>
<path d="M180.228 40.5918L161.511 21.9438" stroke="#9087E5" stroke-width="31" stroke-linecap="round"/>
<path d="M115.737 78.3008L105.778 88.22" stroke="#9087E5" stroke-width="31" stroke-linecap="round"/>
<path d="M82.6937 80.3125L65.4772 97.4655" stroke="#9087E5" stroke-width="31" stroke-linecap="round"/>
<path d="M130.829 92.8052L144.193 106.12" stroke="#9087E5" stroke-width="31" stroke-linecap="round"/>
<path d="M148.095 95.3388L119.18 94.8584" stroke="white" stroke-width="4" stroke-linecap="square"/>
</g>
<path d="M126.805 26.249L126.069 53.0283" stroke="#FFCCD7" stroke-width="16" stroke-linecap="round" stroke-linejoin="round"/>
<path d="M131.038 45.6329L132.469 45.6634C134.132 45.6985 135.782 45.3681 137.303 44.6954C138.823 44.0226 140.176 43.0241 141.265 41.7712C142.354 40.5182 143.152 39.0414 143.603 37.4461C144.054 35.8506 144.146 34.1758 143.873 32.5409L142.526 24.4471C142.09 21.8313 140.743 19.4521 138.721 17.7276C136.699 16.0031 134.133 15.0436 131.471 15.0177C129.985 15.0025 128.51 15.2792 127.131 15.8319C125.752 16.3846 124.496 17.2026 123.435 18.239C122.373 19.2755 121.526 20.5099 120.944 21.8723C120.361 23.2347 120.053 24.6981 120.038 26.1788L119.968 34.2445C119.938 37.212 121.083 40.072 123.156 42.2037C125.228 44.3357 128.06 45.5678 131.038 45.6329Z" fill="#FFCCD7"/>
<path d="M117.866 36.7356C119.244 38.5695 121.853 38.9435 123.693 37.571C125.533 36.1985 125.907 33.5996 124.529 31.7657L123.116 29.8843C121.738 28.0504 119.129 27.6764 117.289 29.0489C115.449 30.4214 115.074 33.0206 116.452 34.8542L117.866 36.7356Z" fill="#FFCCD7"/>
<path fill-rule="evenodd" clip-rule="evenodd" d="M118.049 32.2246L120.909 35.21L118.049 32.2246Z" fill="#0C092A"/>
<path d="M118.049 32.2246L120.909 35.21" stroke="#0C092A" stroke-linecap="square"/>
<path d="M137.998 28.1943L138.831 34.7251L136.502 35.0321" stroke="#0C092A" stroke-linecap="square"/>
<path d="M130.632 37.5692C130.307 38.3239 130.297 39.1762 130.603 39.9385C130.91 40.7007 131.508 41.3105 132.265 41.6336C133.023 41.9568 133.878 41.9668 134.643 41.6617C135.408 41.3564 136.02 40.761 136.345 40.0062C137.02 38.4362 135.376 37.8972 133.797 37.2223C132.219 36.5475 131.307 35.9991 130.632 37.5692Z" fill="#0C092A"/>
<path d="M124.302 34.7057L126.382 22.5908L126.873 19.7156C127.648 20.4017 128.531 20.9559 129.486 21.3559C132.955 22.8275 142.867 21.2129 143.598 14.1198C144.205 8.33414 138.447 12.1514 135.312 12.0787C130.389 11.9616 126.741 9.41206 120.403 13.6113C112.813 18.64 117.562 28.8427 117.562 28.8427C117.562 28.8427 120.963 27.1696 124.302 34.7057Z" fill="#0C092A"/>
<path d="M133.873 45.6655L129.611 45.6679L133.816 49.068L133.873 45.6655Z" fill="#0C092A"/>
<path d="M132.276 31.0196C132.919 31.0196 133.44 30.5003 133.44 29.8596C133.44 29.219 132.919 28.6997 132.276 28.6997C131.633 28.6997 131.112 29.219 131.112 29.8596C131.112 30.5003 131.633 31.0196 132.276 31.0196Z" fill="#0C092A"/>
<path d="M140.738 31.0196C141.381 31.0196 141.902 30.5003 141.902 29.8596C141.902 29.219 141.381 28.6997 140.738 28.6997C140.095 28.6997 139.574 29.219 139.574 29.8596C139.574 30.5003 140.095 31.0196 140.738 31.0196Z" fill="#0C092A"/>
<path d="M97.4971 138.031L97.2615 137.986C93.8172 137.341 90.5 139.6 89.8525 143.032L70.897 243.459C70.2492 246.892 72.5163 250.196 75.9605 250.843L76.1964 250.885C79.6407 251.532 82.9577 249.273 83.6054 245.842L102.561 145.412C103.208 141.981 100.941 138.676 97.4971 138.031Z" fill="#FF8FA2"/>
<path d="M74.9899 232.185L74.9457 232.42C74.2979 235.853 76.565 239.157 80.0092 239.801L91.0372 241.868C94.4814 242.512 97.7987 240.256 98.4464 236.823L98.4906 236.589C99.1384 233.156 96.8713 229.852 93.4271 229.206L82.3991 227.14C78.9549 226.495 75.6376 228.754 74.9899 232.185Z" fill="#FF8FA2"/>
<path d="M82.4562 214.298L82.4118 214.533C81.7643 217.965 84.0314 221.269 87.4756 221.915L102.079 224.651C105.524 225.296 108.841 223.037 109.488 219.606L109.533 219.371C110.18 215.94 107.913 212.635 104.469 211.989L89.8652 209.253C86.421 208.608 83.104 210.866 82.4562 214.298Z" fill="#FF8FA2"/>
<path fill-rule="evenodd" clip-rule="evenodd" d="M81.3788 102.191C86.7576 97.0765 93.9071 94.2224 101.343 94.2217C103.146 94.2214 104.945 94.3895 106.717 94.7231C114.023 96.0994 120.516 100.226 124.848 106.248C129.18 112.269 131.018 119.721 129.979 127.056C128.941 134.392 125.106 141.047 119.272 145.639C113.438 150.232 106.052 152.409 98.6487 151.718C91.2456 151.027 84.3941 147.522 79.517 141.93C74.64 136.338 72.1123 129.089 72.459 121.689C72.8059 114.289 76.0003 107.306 81.3788 102.191ZM103.974 109.232C103.109 109.069 102.23 108.986 101.35 108.984H101.343C97.84 108.994 94.467 110.305 91.8826 112.661C89.2983 115.016 87.6883 118.247 87.3671 121.722C87.0458 125.197 88.0364 128.667 90.1452 131.453C92.2542 134.239 95.3302 136.142 98.7718 136.79C99.6404 136.953 100.522 137.036 101.406 137.038C104.909 137.027 108.281 135.716 110.865 133.36C113.449 131.004 115.058 127.773 115.379 124.299C115.7 120.824 114.71 117.354 112.601 114.568C110.492 111.782 107.416 109.88 103.974 109.232Z" fill="#FF8FA2"/>
<path d="M109.271 95.1776L113.519 98.8261C113.519 98.8261 111.973 109.786 116.896 109.786C116.896 109.786 116.701 111.522 117.668 111.808C118.634 112.094 121.816 108.321 121.816 108.321C121.816 108.321 125.676 107.384 126.833 103.92C127.99 100.457 129.15 92.0962 128.087 91.3276C127.024 90.559 115.833 88.9233 115.833 88.9233C115.833 88.9233 111.105 88.9233 109.271 95.1776Z" fill="#FFCCD7"/>
<path d="M118.086 87.77L100.284 78.6616" stroke="white" stroke-linecap="square"/>
<path d="M103.859 80.1353L115.861 68.7188" stroke="white" stroke-linecap="square"/>
<path d="M148.387 81.0172L150.508 72.7031" stroke="white" stroke-linecap="square"/>
<path d="M109.184 95.6504C109.184 95.6504 109.511 88.9228 118.413 87.9175" stroke="white" stroke-linecap="square"/>
<path d="M133.574 172.958L130.688 177.104L133.863 180.495" stroke="white" stroke-linecap="square"/>
<path d="M88.7897 149.331C88.7897 149.331 92.5529 150.941 94.7638 151.44" stroke="white" stroke-linecap="square"/>
<path d="M73.8456 242.331L76.7409 227.238" stroke="white" stroke-linecap="square"/>
<path d="M77.4652 224.162L78.7682 217.434" stroke="white" stroke-linecap="square"/>
</svg>
