<svg width="230" height="150" viewBox="0 0 230 150" fill="none" xmlns="http://www.w3.org/2000/svg">
<path opacity="0.35" d="M303.533 33.6384H168.958C168.958 33.6384 175.595 13.3586 189.447 13.3586C199.821 13.3586 202.324 22.1473 212.282 22.1473C222.241 22.1473 228.912 0 243.97 0C259.814 0 267.63 25.3357 281.92 28.1127C299.466 31.5189 303.533 33.6384 303.533 33.6384Z" fill="white"/>
<path d="M177.236 173.77H322.841C322.841 173.77 318.079 151.448 304.489 151.448C292.762 151.448 282.84 164.758 272.952 164.758C263.064 164.758 258.132 135.278 238.818 135.278C220.851 135.278 206.424 166.216 192.347 168.947C180.213 171.3 177.236 173.77 177.236 173.77Z" fill="#F2F6F9"/>
<path opacity="0.35" d="M7.62939e-06 57.6588L5.84838 59.2157C6.10249 63.7577 7.81868 68.0956 10.7429 71.5808C13.6671 75.0661 17.6399 77.5115 22.0686 78.5515C26.4972 79.5918 31.1436 79.1707 35.3121 77.3514C39.4826 75.5322 42.9513 72.4123 45.1999 68.4582L46.1013 67.8915C49.3422 65.8554 51.6412 62.6154 52.4942 58.8841C53.3453 55.1529 52.6818 51.2358 50.6449 47.9948C50.2759 47.4077 49.689 46.9909 49.0114 46.836C48.3358 46.6809 47.626 46.8003 47.0371 47.168L42.7214 49.8804C41.9268 47.9365 40.7168 46.1899 39.1761 44.762C38.6679 44.2909 37.9923 44.0409 37.2985 44.0665C36.6048 44.0923 35.9514 44.3916 35.4775 44.8992L23.2866 58.0299H19.5114C19.4973 56.3972 18.9003 54.8229 17.8295 53.5907C16.7586 52.3587 15.2824 51.5492 13.6671 51.3084C12.0517 51.0674 10.4041 51.4107 9.0186 52.2766C7.63516 53.1424 6.60464 54.4738 6.11459 56.0313L5.93711 56.0777L7.62939e-06 57.6588Z" fill="white"/>
<path opacity="0.35" d="M76.5898 32.981L80.0505 33.8966C80.2017 36.5828 81.2181 39.148 82.9484 41.2089C84.6787 43.2698 87.0282 44.7157 89.6479 45.3308C92.2675 45.9459 95.0142 45.697 97.4806 44.6217C99.947 43.5462 102 41.7018 103.331 39.3638L103.865 39.0291C105.783 37.8247 107.145 35.9078 107.649 33.6999C108.155 31.4919 107.762 29.1739 106.558 27.2556C106.34 26.9077 105.991 26.6607 105.592 26.5689C105.19 26.4769 104.771 26.5477 104.422 26.7655L101.867 28.3789C101.397 27.2298 100.681 26.1972 99.7696 25.3539C99.4691 25.0745 99.0698 24.9261 98.6584 24.9412C98.249 24.9564 97.8618 25.1338 97.5815 25.4345L90.3658 33.2069H88.1333C88.1333 32.2352 87.7865 31.2956 87.1532 30.5593C86.518 29.8228 85.6407 29.3388 84.6808 29.1953C83.7188 29.0519 82.7387 29.2584 81.9179 29.7775C81.0951 30.2966 80.4881 31.0936 80.2057 32.0231L80.1009 32.0513L76.5898 32.981Z" fill="white"/>
<path d="M201.507 46.3345L155.855 95.5146C150.382 101.41 147.475 109.238 147.774 117.277C148.073 125.316 151.553 132.907 157.449 138.379C163.345 143.852 171.173 146.759 179.212 146.46C187.25 146.161 194.841 142.681 200.314 136.785L217.367 118.415C221.954 113.472 225.524 107.675 227.871 101.353C230.218 95.0316 231.297 88.3094 231.046 81.5706C230.796 74.8318 229.22 68.2084 226.409 62.0786C223.599 55.9489 219.609 50.4326 214.666 45.8451C212.856 44.1655 210.453 43.2736 207.985 43.3653C205.518 43.4571 203.188 44.5251 201.507 46.3345Z" fill="#FFADBC"/>
<path d="M254.756 81.783L264.835 121.55L200.634 123.714L198.492 115.27L254.756 81.783Z" fill="#5E93D1"/>
<path d="M172.864 83.9106L150.052 78.05L121.177 113.223C119.414 115.396 118.107 117.9 117.329 120.588C116.55 123.275 116.321 126.091 116.649 128.869L121.768 170.921L140.478 170.719L134.856 126.775L162.529 107.415C167.599 102.978 170.959 96.7387 171.981 89.8699L172.864 83.9106Z" fill="#211F5C"/>
<path d="M171.715 43.7098C163.975 39.9688 151.28 39.6764 145.7 40.9953C140.119 42.3142 134.449 64.6108 134.449 64.6108L121.669 82.761L134.186 90.8036L149.148 69.344L143.207 64.0381C143.207 64.0381 148.636 72.4376 150.029 78.5462H175.831C175.831 78.5462 174.193 66.446 173.736 59.5247" fill="#FF8FA2"/>
<path d="M120.328 118.384C106.875 118.384 95.9683 107.478 95.9683 94.0242C95.9683 80.5706 106.875 69.6646 120.328 69.6646C133.781 69.6646 144.687 80.5706 144.687 94.0242C144.687 107.478 133.781 118.384 120.328 118.384Z" fill="#9087E5"/>
<path d="M95.9682 94.0242C95.9682 135.423 129.528 168.985 170.926 168.985C212.325 168.985 245.886 135.423 245.886 94.0242" fill="#9087E5"/>
<path d="M145.373 50.9294L141.589 60.2667L145.597 70.4994" stroke="#FFE0E6"/>
<path d="M175.722 78.4998H152.242L132.075 119.886C130.851 122.414 130.142 125.16 129.989 127.965C129.836 130.769 130.243 133.576 131.186 136.222L146.093 178.001H167.185L153.785 128.254L170.942 103.904C174.897 98.243 176.755 91.3804 176.196 84.4974L175.722 78.4998Z" fill="#211F5C"/>
<path d="M137.244 83.4266H135.546C134.853 83.4123 134.161 83.4849 133.487 83.6424C132.228 83.9106 131.766 84.8241 129.655 84.927C127.269 85.046 128.983 87.1212 130.133 87.347C131.03 87.5164 132.111 87.0707 132.835 87.6273C132.634 88.1517 132.595 89.3032 129.911 91.57C128.374 92.8667 125.676 93.2237 126.281 96.4342C127.122 98.8886 130.948 99.0338 132 98.6022C135.076 97.3418 137.508 94.7705 138.776 92.6832C139.353 91.6787 139.849 90.6308 140.263 89.5493" fill="#FFCCD7"/>
<path d="M142.291 72.9074L130.978 81.4602L142.055 93.2922L167.883 75.6522C167.883 75.6522 176.757 54.2651 170.608 48.2554" fill="#FF8FA2"/>
<path d="M142.83 28.5019C138.639 28.5019 135.241 24.1626 135.241 18.8097C135.241 13.4568 138.639 9.11743 142.83 9.11743C147.021 9.11743 150.419 13.4568 150.419 18.8097C150.419 24.1626 147.021 28.5019 142.83 28.5019Z" fill="#24272D"/>
<path d="M154.285 45.668C153.156 45.6674 152.058 45.2985 151.157 44.6171C150.257 43.9356 149.604 42.9791 149.297 41.8927L144.479 24.892C144.274 24.2307 144.202 23.535 144.27 22.8457C144.337 22.1564 144.542 21.4876 144.871 20.8788C145.201 20.2697 145.65 19.7332 146.191 19.3004C146.731 18.8677 147.353 18.5476 148.02 18.359C148.686 18.1705 149.383 18.1173 150.071 18.2026C150.758 18.2879 151.421 18.51 152.021 18.8557C152.621 19.2015 153.146 19.6639 153.565 20.2157C153.983 20.7675 154.287 21.3975 154.458 22.0686L159.276 39.0714C159.494 39.843 159.53 40.6547 159.382 41.4428C159.234 42.2307 158.905 42.9737 158.421 43.6134C157.938 44.2531 157.313 44.772 156.595 45.1295C155.877 45.4871 155.086 45.6734 154.285 45.674V45.668Z" fill="#FFCCD7"/>
<path d="M149.545 38.1175L148.64 38.3696C147.586 38.6606 146.482 38.7159 145.404 38.5315C144.327 38.347 143.304 37.9275 142.407 37.3028C141.51 36.678 140.762 35.8635 140.216 34.9166C139.669 33.97 139.338 32.9144 139.246 31.8254L138.788 26.4288C138.641 24.6873 139.112 22.9498 140.117 21.5205C141.123 20.0912 142.599 19.0616 144.288 18.6121C146.195 18.1072 148.225 18.3804 149.93 19.3716C151.636 20.3627 152.878 21.9908 153.383 23.8978L154.746 29.0444C155.248 30.9369 154.983 32.9505 154.009 34.649C153.036 36.3475 151.432 37.5938 149.545 38.1175Z" fill="#FFCCD7"/>
<path d="M142.424 27.0498L141.142 31.8032L143.017 31.8374" stroke="#25282D"/>
<path d="M144.687 28.8972C144.185 28.8972 143.778 28.49 143.778 27.9877C143.778 27.4853 144.185 27.0781 144.687 27.0781C145.189 27.0781 145.597 27.4853 145.597 27.9877C145.597 28.49 145.189 28.8972 144.687 28.8972Z" fill="#24272D"/>
<path d="M140.313 28.8972C139.811 28.8972 139.404 28.49 139.404 27.9877C139.404 27.4853 139.811 27.0781 140.313 27.0781C140.815 27.0781 141.223 27.4853 141.223 27.9877C141.223 28.49 140.815 28.8972 140.313 28.8972Z" fill="#24272D"/>
<path d="M144.947 33.6385C144.947 33.6385 146.065 33.576 146.524 32.606" stroke="#25282D"/>
<path d="M186.991 32.848C188 44.6295 178.033 40.7998 178.033 40.7998C178.033 40.7998 184.4 53.7308 170.152 52.6519C155.904 51.573 152.016 41.4512 152.566 35.6633C152.786 33.3562 153.978 31.5694 155.343 29.8451C147.535 28.6452 147.654 23.2888 147.654 23.2888C147.654 23.2888 135.134 28.1531 135.235 18.5597C135.336 8.96627 145.212 5.89081 151.048 5.99165C152.277 6.01734 153.496 6.22879 154.662 6.61884C158.419 7.84095 161.329 9.83345 166.314 9.9121C180.088 10.1299 181.411 23.1376 181.411 23.1376C181.411 23.1376 186.314 24.8739 186.991 32.848Z" fill="#24272D"/>
<path d="M151.302 31.5304L151.3 31.5296C149.596 30.8108 148.796 28.8464 149.515 27.1417L150.699 24.3336C151.418 22.6289 153.382 21.8297 155.087 22.5484L155.089 22.5492C156.793 23.2678 157.593 25.2325 156.874 26.9372L155.69 29.745C154.972 31.4497 153.007 32.2489 151.302 31.5304Z" fill="#FFCCD7"/>
<path d="M154.327 24.6643L152.645 28.6453" stroke="#25282D"/>
<path d="M75.2791 92.7014L96.3918 98.324L99.6185 99.1811C100.47 99.1815 101.312 99.0143 102.099 98.6888C102.885 98.3633 103.599 97.8861 104.2 97.2842C104.803 96.6824 105.279 95.9679 105.604 95.1815C105.931 94.3952 106.096 93.5525 106.096 92.7014H75.2791Z" fill="#FFADBC"/>
<path d="M117.113 86.2215C115.621 86.2215 114.413 85.0125 114.413 83.5212C114.413 82.0298 115.621 80.8208 117.113 80.8208C118.603 80.8208 119.813 82.0298 119.813 83.5212C119.813 85.0125 118.603 86.2215 117.113 86.2215Z" fill="#FFADBC"/>
<path d="M75.2791 92.7016H106.094C106.094 91.8505 105.929 91.0075 105.604 90.221C105.277 89.4347 104.801 88.72 104.198 88.1182C103.597 87.5162 102.883 87.0389 102.097 86.7136C101.31 86.3883 100.467 86.2211 99.6164 86.2219L96.3897 87.081L75.2791 92.7016Z" fill="#FFADBC"/>
<path d="M137.373 76.6243L153.486 64.623L157.328 53.5332" stroke="#FFE0E6"/>
<path d="M163.751 78.4777C163.751 78.4777 167.851 76.0859 168.912 72.96C169.972 69.8342 174.155 56.1428 174.155 56.1428" stroke="#FFE0E6"/>
<path d="M151.536 124.124L153.784 128.25L151.536 131.107" stroke="#FFE0E6"/>
<path d="M242.625 55.2394L185.791 90.9333C178.978 95.2115 174.145 102.021 172.353 109.863C170.561 117.705 171.958 125.938 176.236 132.75C180.515 139.563 187.324 144.396 195.166 146.188C203.008 147.98 211.241 146.583 218.053 142.305L239.285 128.971C244.996 125.384 249.945 120.708 253.848 115.208C257.752 109.709 260.534 103.495 262.036 96.9203C263.538 90.3458 263.73 83.5397 262.601 76.8909C261.473 70.2422 259.046 63.8808 255.458 58.1701C254.144 56.0808 252.054 54.5985 249.648 54.049C247.242 53.4994 244.716 53.9276 242.625 55.2394Z" fill="#FFADBC"/>
<path d="M227.46 64.6028L185.257 91.1546C185.257 91.1546 180.52 94.5023 178.34 97.9044" stroke="#FFE0E6"/>
</svg>
