<svg width="327" height="16" viewBox="0 0 327 16" fill="none" xmlns="http://www.w3.org/2000/svg">
<path d="M12.35 -5.09238e-07C18.7841 -2.27994e-07 24 5.21588 24 11.65L24 16L0.7 16L0.7 11.65C0.700001 5.21588 5.91589 -7.90482e-07 12.35 -5.09238e-07V-5.09238e-07Z" fill="white"/>
<path d="M35.6499 -5.09238e-07C42.084 -2.27994e-07 47.2999 5.21588 47.2999 11.65L47.2999 16L23.9999 16L23.9999 11.65C23.9999 5.21588 29.2158 -7.90482e-07 35.6499 -5.09238e-07V-5.09238e-07Z" fill="white"/>
<path d="M58.95 -5.09238e-07C65.3841 -2.27994e-07 70.6 5.21588 70.6 11.65L70.6 16L47.3 16L47.3 11.65C47.3 5.21588 52.5159 -7.90482e-07 58.95 -5.09238e-07V-5.09238e-07Z" fill="white"/>
<path d="M82.2499 -5.09238e-07C88.684 -2.27994e-07 93.8999 5.21588 93.8999 11.65L93.8999 16L70.5999 16L70.5999 11.65C70.5999 5.21588 75.8158 -7.90482e-07 82.2499 -5.09238e-07V-5.09238e-07Z" fill="white"/>
<path d="M105.55 -5.09238e-07C111.984 -2.27994e-07 117.2 5.21588 117.2 11.65L117.2 16L93.9 16L93.9 11.65C93.9 5.21588 99.1158 -7.90482e-07 105.55 -5.09238e-07V-5.09238e-07Z" fill="white"/>
<path d="M128.85 -5.09238e-07C135.284 -2.27994e-07 140.5 5.21588 140.5 11.65L140.5 16L117.2 16L117.2 11.65C117.2 5.21588 122.416 -7.90482e-07 128.85 -5.09238e-07V-5.09238e-07Z" fill="white"/>
<path d="M152.15 -5.09238e-07C158.584 -2.27994e-07 163.8 5.21588 163.8 11.65L163.8 16L140.5 16L140.5 11.65C140.5 5.21588 145.716 -7.90482e-07 152.15 -5.09238e-07V-5.09238e-07Z" fill="white"/>
<path d="M175.45 -5.09238e-07C181.884 -2.27994e-07 187.1 5.21588 187.1 11.65L187.1 16L163.8 16L163.8 11.65C163.8 5.21588 169.016 -7.90482e-07 175.45 -5.09238e-07V-5.09238e-07Z" fill="white"/>
<path d="M198.75 -5.09238e-07C205.184 -2.27994e-07 210.4 5.21588 210.4 11.65L210.4 16L187.1 16L187.1 11.65C187.1 5.21588 192.316 -7.90482e-07 198.75 -5.09238e-07V-5.09238e-07Z" fill="white"/>
<path d="M222.05 -5.09238e-07C228.484 -2.27994e-07 233.7 5.21588 233.7 11.65L233.7 16L210.4 16L210.4 11.65C210.4 5.21588 215.616 -7.90482e-07 222.05 -5.09238e-07V-5.09238e-07Z" fill="white"/>
<path d="M245.35 -5.09238e-07C251.784 -2.27994e-07 257 5.21588 257 11.65L257 16L233.7 16L233.7 11.65C233.7 5.21588 238.916 -7.90482e-07 245.35 -5.09238e-07V-5.09238e-07Z" fill="white"/>
<path d="M268.65 -5.09238e-07C275.084 -2.27994e-07 280.3 5.21588 280.3 11.65L280.3 16L257 16L257 11.65C257 5.21588 262.216 -7.90482e-07 268.65 -5.09238e-07V-5.09238e-07Z" fill="white"/>
<path d="M291.95 -5.09238e-07C298.384 -2.27994e-07 303.6 5.21588 303.6 11.65L303.6 16L280.3 16L280.3 11.65C280.3 5.21588 285.516 -7.90482e-07 291.95 -5.09238e-07V-5.09238e-07Z" fill="white"/>
<path d="M315.25 -5.09238e-07C321.684 -2.27994e-07 326.9 5.21588 326.9 11.65L326.9 16L303.6 16L303.6 11.65C303.6 5.21588 308.816 -7.90482e-07 315.25 -5.09238e-07V-5.09238e-07Z" fill="white"/>
</svg>
