<svg width="124" height="166" viewBox="0 0 124 166" fill="none" xmlns="http://www.w3.org/2000/svg">
<path d="M24.6177 155.88C24.9537 156.408 25.1217 156.924 25.1217 157.428C25.1217 158.076 24.8457 158.616 24.2937 159.048C23.7657 159.48 23.1417 159.696 22.4217 159.696C21.9177 159.696 21.4377 159.576 20.9817 159.336C20.5497 159.096 20.2017 158.748 19.9377 158.292L17.7777 154.692C17.4897 154.212 17.1057 153.864 16.6257 153.648C16.1457 153.432 15.4977 153.324 14.6817 153.324C12.1617 153.324 9.96566 152.796 8.09366 151.74C6.24566 150.66 4.81766 149.148 3.80966 147.204C2.80166 145.236 2.29766 142.932 2.29766 140.292C2.29766 137.652 2.80166 135.36 3.80966 133.416C4.81766 131.448 6.24566 129.936 8.09366 128.88C9.96566 127.824 12.1617 127.296 14.6817 127.296C17.2017 127.296 19.3857 127.824 21.2337 128.88C23.1057 129.936 24.5457 131.448 25.5537 133.416C26.5617 135.36 27.0657 137.652 27.0657 140.292C27.0657 143.052 26.5137 145.44 25.4097 147.456C24.3297 149.448 22.7817 150.936 20.7657 151.92C21.9417 152.28 22.8897 153.048 23.6097 154.224L24.6177 155.88ZM14.6817 148.968C16.7937 148.968 18.4497 148.224 19.6497 146.736C20.8737 145.248 21.4857 143.1 21.4857 140.292C21.4857 137.484 20.8857 135.348 19.6857 133.884C18.4857 132.396 16.8177 131.652 14.6817 131.652C12.5457 131.652 10.8777 132.396 9.67766 133.884C8.50166 135.348 7.91366 137.484 7.91366 140.292C7.91366 143.1 8.51366 145.248 9.71366 146.736C10.9137 148.224 12.5697 148.968 14.6817 148.968ZM44.8536 134.964C45.6936 134.964 46.3536 135.192 46.8336 135.648C47.3376 136.104 47.5896 136.728 47.5896 137.52V150.732C47.5896 151.476 47.3256 152.076 46.7976 152.532C46.2936 152.988 45.6336 153.216 44.8176 153.216C44.0496 153.216 43.4376 153 42.9816 152.568C42.5256 152.136 42.2976 151.56 42.2976 150.84V150.48C41.7456 151.392 41.0136 152.088 40.1016 152.568C39.2136 153.048 38.2056 153.288 37.0776 153.288C34.8456 153.288 33.1776 152.676 32.0736 151.452C30.9936 150.204 30.4536 148.332 30.4536 145.836V137.52C30.4536 136.728 30.6936 136.104 31.1736 135.648C31.6776 135.192 32.3496 134.964 33.1896 134.964C34.0296 134.964 34.6896 135.192 35.1696 135.648C35.6496 136.104 35.8896 136.728 35.8896 137.52V145.944C35.8896 147 36.1056 147.78 36.5376 148.284C36.9936 148.788 37.6776 149.04 38.5896 149.04C39.6456 149.04 40.4976 148.68 41.1456 147.96C41.8176 147.24 42.1536 146.292 42.1536 145.116V137.52C42.1536 136.728 42.3936 136.104 42.8736 135.648C43.3536 135.192 44.0136 134.964 44.8536 134.964ZM65.5848 147.744C66.0648 147.744 66.4488 147.936 66.7368 148.32C67.0488 148.704 67.2048 149.196 67.2048 149.796C67.2048 150.204 67.0848 150.588 66.8448 150.948C66.6048 151.284 66.2688 151.572 65.8368 151.812C65.0208 152.244 64.0728 152.604 62.9928 152.892C61.9128 153.156 60.9168 153.288 60.0048 153.288C58.0848 153.288 56.4048 152.916 54.9648 152.172C53.5488 151.428 52.4568 150.372 51.6888 149.004C50.9208 147.612 50.5368 145.98 50.5368 144.108C50.5368 142.308 50.9088 140.712 51.6528 139.32C52.3968 137.928 53.4288 136.848 54.7488 136.08C56.0688 135.288 57.5688 134.892 59.2488 134.892C60.8568 134.892 62.2608 135.252 63.4608 135.972C64.6848 136.668 65.6328 137.676 66.3048 138.996C66.9768 140.292 67.3128 141.816 67.3128 143.568C67.3128 144.096 67.1808 144.504 66.9168 144.792C66.6768 145.056 66.3288 145.188 65.8728 145.188H55.7928C55.9608 146.604 56.3928 147.636 57.0888 148.284C57.7848 148.908 58.7808 149.22 60.0768 149.22C60.7728 149.22 61.3968 149.136 61.9488 148.968C62.5008 148.8 63.1128 148.572 63.7848 148.284C64.1208 148.14 64.4448 148.02 64.7568 147.924C65.0688 147.804 65.3448 147.744 65.5848 147.744ZM59.3928 138.636C58.3608 138.636 57.5328 138.972 56.9088 139.644C56.2848 140.292 55.9128 141.24 55.7928 142.488H62.7408C62.6688 141.216 62.3448 140.256 61.7688 139.608C61.2168 138.96 60.4248 138.636 59.3928 138.636ZM84.4201 147.744C84.9001 147.744 85.2841 147.936 85.5721 148.32C85.8841 148.704 86.0401 149.196 86.0401 149.796C86.0401 150.204 85.9201 150.588 85.6801 150.948C85.4401 151.284 85.1041 151.572 84.6721 151.812C83.8561 152.244 82.9081 152.604 81.8281 152.892C80.7481 153.156 79.7521 153.288 78.8401 153.288C76.9201 153.288 75.2401 152.916 73.8001 152.172C72.3841 151.428 71.2921 150.372 70.5241 149.004C69.7561 147.612 69.3721 145.98 69.3721 144.108C69.3721 142.308 69.7441 140.712 70.4881 139.32C71.2321 137.928 72.2641 136.848 73.5841 136.08C74.9041 135.288 76.4041 134.892 78.0841 134.892C79.6921 134.892 81.0961 135.252 82.2961 135.972C83.5201 136.668 84.4681 137.676 85.1401 138.996C85.8121 140.292 86.1481 141.816 86.1481 143.568C86.1481 144.096 86.0161 144.504 85.7521 144.792C85.5121 145.056 85.1641 145.188 84.7081 145.188H74.6281C74.7961 146.604 75.2281 147.636 75.9241 148.284C76.6201 148.908 77.6161 149.22 78.9121 149.22C79.6081 149.22 80.2321 149.136 80.7841 148.968C81.3361 148.8 81.9481 148.572 82.6201 148.284C82.9561 148.14 83.2801 148.02 83.5921 147.924C83.9041 147.804 84.1801 147.744 84.4201 147.744ZM78.2281 138.636C77.1961 138.636 76.3681 138.972 75.7441 139.644C75.1201 140.292 74.7481 141.24 74.6281 142.488H81.5761C81.5041 141.216 81.1801 140.256 80.6041 139.608C80.0521 138.96 79.2601 138.636 78.2281 138.636ZM101.863 148.932C103.495 148.932 104.311 149.616 104.311 150.984C104.311 152.328 103.495 153 101.863 153H90.1992C89.4792 153 88.8912 152.772 88.4352 152.316C87.9792 151.86 87.7512 151.32 87.7512 150.696C87.7512 149.976 88.0032 149.352 88.5072 148.824L96.9312 139.392H90.0192C88.3872 139.392 87.5712 138.72 87.5712 137.376C87.5712 136.008 88.3872 135.324 90.0192 135.324H101.251C101.995 135.324 102.583 135.552 103.015 136.008C103.471 136.464 103.699 137.016 103.699 137.664C103.699 138.384 103.447 139.008 102.943 139.536L94.5552 148.932H101.863ZM118.42 136.512C118.636 136.008 118.936 135.636 119.32 135.396C119.728 135.156 120.16 135.036 120.616 135.036C121.312 135.036 121.924 135.264 122.452 135.72C122.98 136.152 123.244 136.68 123.244 137.304C123.244 137.64 123.16 137.976 122.992 138.312L113.308 158.184C113.068 158.688 112.744 159.06 112.336 159.3C111.928 159.564 111.496 159.696 111.04 159.696C110.368 159.696 109.78 159.48 109.276 159.048C108.772 158.616 108.52 158.088 108.52 157.464C108.52 157.08 108.604 156.72 108.772 156.384L111.148 151.452L104.74 138.312C104.596 137.976 104.524 137.652 104.524 137.34C104.524 136.692 104.8 136.14 105.352 135.684C105.928 135.228 106.576 135 107.296 135C107.776 135 108.22 135.132 108.628 135.396C109.036 135.636 109.36 136.008 109.6 136.512L114.064 146.232L118.42 136.512Z" fill="white"/>
<mask id="mask0_199_1944" style="mask-type:alpha" maskUnits="userSpaceOnUse" x="12" y="0" width="100" height="100">
<rect x="12" width="100" height="100" rx="24" fill="#6A5AE0"/>
</mask>
<g mask="url(#mask0_199_1944)">
<path d="M115.216 72.2475C115.216 86.2713 109.6 99.7208 99.6048 109.637C89.6092 119.554 76.0524 125.125 61.9164 125.125C61.1874 125.125 60.4721 125.111 59.7431 125.084C55.8495 124.926 51.9848 124.35 48.2165 123.365C48.9455 122.996 49.6608 122.628 50.376 122.232C50.3898 122.232 50.4035 122.218 50.4311 122.205L50.4448 122.191C51.2013 121.782 51.9441 121.372 52.6731 120.949C52.8519 120.84 53.0307 120.745 53.2095 120.649C53.8973 120.24 54.585 119.83 55.259 119.394C55.4583 119.287 55.6512 119.168 55.8367 119.039C56.3594 118.725 56.8821 118.384 57.391 118.043C57.7486 117.811 58.12 117.565 58.4639 117.333C58.9866 116.978 59.4955 116.624 60.0044 116.255C60.3483 116.023 60.6647 115.791 60.9948 115.532C61.4349 115.232 61.8613 114.904 62.2877 114.577C62.6729 114.304 63.0443 114.017 63.4156 113.717C63.9383 113.321 64.4473 112.912 64.9562 112.475C65.1763 112.312 65.3963 112.134 65.6164 111.943C66.1666 111.493 66.7031 111.029 67.2395 110.551C67.5283 110.306 67.8172 110.06 68.1061 109.787C68.4224 109.514 68.725 109.241 69.0276 108.955C69.6053 108.436 70.1693 107.89 70.7332 107.345C70.8087 107.283 70.8779 107.215 70.9396 107.14C71.4897 106.621 72.0262 106.075 72.5489 105.53C72.9203 105.175 73.2641 104.806 73.5942 104.438C73.9931 104.042 74.3645 103.633 74.7359 103.224C74.956 102.992 75.1623 102.76 75.3549 102.528C75.85 101.982 76.3315 101.422 76.8129 100.863C77.0605 100.576 77.3081 100.276 77.5419 99.9758C77.8995 99.5664 78.2434 99.1571 78.5597 98.734C78.8899 98.3383 79.2062 97.9289 79.5088 97.5196C79.7977 97.1648 80.0728 96.7963 80.3341 96.4415C80.6918 95.9776 81.0356 95.5136 81.3657 95.036C81.6959 94.5584 82.0535 94.0808 82.3836 93.5896C82.5474 93.3753 82.699 93.1521 82.8375 92.9209C83.3052 92.2386 83.7591 91.5427 84.1992 90.8468C84.7632 89.9871 85.2996 89.1137 85.8086 88.2268C86.0424 87.8447 86.2625 87.4626 86.4825 87.0805C88.2663 83.9596 89.8558 80.733 91.2417 77.4193C91.4481 76.9553 91.6406 76.4914 91.8194 76.0138C92.0395 75.5089 92.2321 74.9903 92.4246 74.4718C92.5897 74.0488 92.7548 73.6121 92.9061 73.1754C93.0849 72.6978 93.2499 72.2066 93.415 71.729C94.0202 69.9823 94.5704 68.222 95.0518 66.4344C95.1756 65.9841 95.2994 65.5474 95.4094 65.0971C95.492 64.8106 95.5608 64.5376 95.6295 64.2511L95.9596 62.8592C96.3998 60.9625 96.7712 59.052 97.0875 57.1143L97.2939 55.8043C97.3214 55.5997 97.3489 55.4086 97.3764 55.2039C97.4589 54.6854 97.5277 54.1668 97.5827 53.6483C97.679 52.8705 97.7753 52.0927 97.8441 51.3149C97.8716 51.1102 97.8853 50.9055 97.8991 50.7008C97.9541 50.1686 97.9954 49.6228 98.0366 49.0906C98.0779 48.5584 98.1054 47.9989 98.1329 47.4531C98.1604 47.071 98.1742 46.6889 98.1879 46.2932C98.243 45.0378 98.2705 43.7824 98.2705 42.527C98.2705 41.8856 98.2705 41.2579 98.243 40.6302C98.243 40.3027 98.243 39.9889 98.2292 39.6614C98.1879 38.5288 98.1329 37.4098 98.0504 36.2908L98.0504 36.2499C98.0366 35.977 98.0229 35.7041 97.9954 35.4312C97.9403 34.6806 97.8716 33.9438 97.8028 33.1932C97.8032 33.1698 97.7985 33.1464 97.789 33.125C99.6422 34.7995 101.375 36.6006 102.975 38.5151L103.016 38.556C103.023 38.5634 103.028 38.573 103.03 38.5833C110.926 48.0509 115.237 59.9593 115.216 72.2475Z" fill="#FF8FA2"/>
<path d="M98.2165 42.2831C98.2239 58.6065 93.7876 74.6283 85.377 88.6527C76.9665 102.677 64.8945 114.183 50.4389 121.951C50.421 121.972 50.3969 121.987 50.3701 121.992L50.3565 122.006C49.6419 122.388 48.9274 122.757 48.2129 123.125C43.7285 121.951 39.4216 120.189 35.4062 117.885C32.5013 116.223 29.7594 114.295 27.2165 112.126C27.6974 111.621 28.1646 111.116 28.6318 110.597L28.6454 110.584C28.6454 110.57 28.6593 110.557 28.673 110.543L28.6867 110.543C43.7231 93.9463 52.0268 72.4011 51.9916 50.0752C51.9938 40.458 50.4634 30.9009 47.457 21.7588L47.4433 21.7588C47.4433 21.7315 47.4296 21.7042 47.4296 21.6769L47.4157 21.6769C47.4079 21.655 47.4032 21.6319 47.4021 21.6087C47.1273 20.7762 46.8387 19.9438 46.5364 19.125L61.899 19.125C75.1547 19.1068 87.9379 24.0135 97.7355 32.8807C97.8455 33.9178 97.9279 34.9549 97.9966 36.0057C98.1478 38.08 98.2165 40.1679 98.2165 42.2831Z" fill="#9087E5"/>
<path d="M52 49.95C52 50.8643 51.9864 51.7786 51.9591 52.6792C51.9455 53.266 51.9182 53.8392 51.8909 54.426C51.7819 56.7731 51.5774 59.1067 51.2774 61.4266C51.2093 62.027 51.1275 62.6138 51.032 63.2006C50.9366 63.9238 50.8139 64.6335 50.6912 65.3567C50.5821 66.039 50.4594 66.7077 50.3231 67.39C50.2958 67.5538 50.2549 67.7175 50.2276 67.8813C50.1186 68.4408 49.9959 69.0139 49.8732 69.5734C49.2328 72.4818 48.4456 75.3557 47.5146 78.1843C47.3374 78.7438 47.1465 79.2897 46.9556 79.8219C46.939 79.8875 46.9162 79.9515 46.8874 80.0129C46.6966 80.5724 46.5057 81.1046 46.3012 81.6505C46.2467 81.8142 46.1785 81.9916 46.1103 82.169C45.8922 82.7558 45.6604 83.329 45.4287 83.9021C45.1696 84.5572 44.897 85.2122 44.6107 85.8536C44.3244 86.5222 44.0244 87.1909 43.7245 87.8596C43.4382 88.4737 43.1382 89.0877 42.8519 89.6882C42.5384 90.3296 42.2248 90.9573 41.8976 91.5714C41.5704 92.1855 41.2432 92.8132 40.9023 93.4273C40.5615 94.0414 40.2207 94.6555 39.8798 95.2559C39.539 95.8563 39.1709 96.4704 38.8028 97.0709C38.4347 97.6713 38.0666 98.2581 37.6848 98.8449C36.935 100.018 36.1579 101.178 35.3535 102.311C34.5491 103.444 33.7039 104.563 32.8586 105.668C31.577 107.292 30.2501 108.875 28.8776 110.417L28.864 110.417C28.8503 110.431 28.8504 110.431 28.8504 110.444C28.8504 110.448 28.849 110.451 28.8464 110.454C28.8438 110.456 28.8404 110.458 28.8367 110.458C28.3732 110.977 27.896 111.495 27.4188 112C25.2707 110.152 23.2738 108.135 21.4474 105.968C21.4336 105.942 21.4151 105.919 21.3929 105.9C13.3752 96.3821 8.98462 84.3294 9.00004 71.8797L9.00004 19L46.5875 19C46.8874 19.8188 47.1737 20.6376 47.4328 21.47L47.4464 21.4836C47.4476 21.5069 47.4523 21.5299 47.46 21.5519L47.4737 21.5519L47.4737 21.5928C47.4729 21.6002 47.4735 21.6077 47.4759 21.6148C47.4783 21.6219 47.4823 21.6283 47.4873 21.6337L47.5009 21.6337C47.5131 21.6858 47.5314 21.7362 47.5555 21.7838L47.7191 22.3161C48.1826 23.7626 48.6053 25.2227 48.987 26.7102C49.2597 27.7064 49.5051 28.7298 49.7368 29.7533C50.1595 31.6092 50.5276 33.5061 50.8412 35.4302C50.9093 35.8942 50.9911 36.3445 51.0457 36.8085C51.2093 37.9412 51.3592 39.0738 51.4819 40.2201C51.5365 40.6431 51.5774 41.0798 51.6046 41.5029C51.6864 42.2943 51.741 43.0995 51.7955 43.891C51.9318 45.897 52 47.9167 52 49.95Z" fill="#C4D0FB"/>
</g>
<rect x="12" width="100" height="90" rx="24" fill="white"/>
<mask id="mask1_199_1944" style="mask-type:alpha" maskUnits="userSpaceOnUse" x="35" y="14" width="54" height="62">
<path fill-rule="evenodd" clip-rule="evenodd" d="M60.3881 61.5758C62.2584 61.4892 64.0977 61.1912 65.8726 60.6961L68.3771 63.177C70.7337 65.5115 74.563 65.5201 76.9302 63.1964C79.2973 60.8727 79.3059 57.0965 76.9493 54.7621L74.1056 51.9451C73.5754 51.4199 72.9707 51.0124 72.3248 50.7228C70.4574 49.3959 67.821 49.57 65.6936 50.6026C63.9109 51.4678 61.9513 51.9724 59.9312 52.0659C56.314 52.2334 52.7632 51.0705 49.973 48.8046C47.1828 46.5386 45.3538 43.3326 44.8435 39.8133C44.3333 36.2939 45.1785 32.7143 47.214 29.7742C49.2494 26.8341 52.3287 24.7449 55.8499 23.915C59.3711 23.0852 63.081 23.5743 66.2543 25.2869C69.4276 26.9994 71.8362 29.8122 73.0091 33.1754C73.6378 34.9778 73.8873 36.8689 73.7621 38.738C73.582 41.4277 74.6263 44.3347 77.1074 45.3887C79.5416 46.4227 82.4108 45.3097 82.9675 42.7242C83.8666 38.5496 83.6118 34.1835 82.1846 30.0915C80.2296 24.4863 76.2153 19.7983 70.9265 16.944C65.6376 14.0898 59.4545 13.2745 53.5859 14.6576C47.7172 16.0407 42.585 19.5227 39.1927 24.4229C35.8003 29.3231 34.3916 35.2892 35.242 41.1547C36.0923 47.0203 39.1407 52.3637 43.791 56.1402C48.4414 59.9167 54.3594 61.8549 60.3881 61.5758ZM78.6856 65.8097C76.3187 68.1332 76.3098 71.9095 78.6662 74.2437C81.0226 76.5779 84.852 76.5863 87.2189 74.2627C89.5859 71.9392 89.5948 68.163 87.2384 65.8287C84.882 63.4945 81.0526 63.4862 78.6856 65.8097Z" fill="#6A5AE0"/>
</mask>
<g mask="url(#mask1_199_1944)">
<path fill-rule="evenodd" clip-rule="evenodd" d="M67.8162 95.3205L116.83 46.9278L106.232 36.8094L50.1537 92.6809L67.8162 95.3205Z" fill="#6A5AE0"/>
<path fill-rule="evenodd" clip-rule="evenodd" d="M58.1888 82.4282L105.717 36.4962L95.4407 26.8923L41.0615 79.9228L58.1888 82.4282Z" fill="#6A5AE0"/>
<path fill-rule="evenodd" clip-rule="evenodd" d="M43.8935 80.472L99.7438 25.247L89.9547 14.9235L34.1043 70.1484L43.8935 80.472Z" fill="#6A5AE0"/>
<path fill-rule="evenodd" clip-rule="evenodd" d="M33.8086 71.5194L89.5532 16.1382L75.0684 10.0331L25.9078 58.8733L33.8086 71.5194Z" fill="#6A5AE0"/>
<path fill-rule="evenodd" clip-rule="evenodd" d="M25.9078 59.6188L76.42 10.0331L49.3599 12.6895L25.9078 37.9251V59.6188Z" fill="#6A5AE0"/>
</g>
</svg>
