<svg width="30" height="30" viewBox="0 0 30 30" fill="none" xmlns="http://www.w3.org/2000/svg">
<path d="M15 25.8C13.5817 25.8 12.1773 25.5206 10.867 24.9779C9.55668 24.4351 8.36609 23.6396 7.36322 22.6367C6.36035 21.6338 5.56483 20.4432 5.02208 19.1329C4.47932 17.8226 4.19997 16.4182 4.19997 15C4.19997 13.5817 4.47932 12.1773 5.02208 10.867C5.56483 9.55665 6.36035 8.36607 7.36322 7.3632C8.36609 6.36033 9.55668 5.5648 10.867 5.02205C12.1773 4.4793 13.5817 4.19995 15 4.19995C17.8643 4.19995 20.6113 5.21138 22.6367 7.01173C24.6621 8.81208 25.8 11.2539 25.8 13.8C25.8 15.073 25.231 16.2939 24.2183 17.1941C23.2057 18.0942 21.8321 18.6 20.4 18.6H17.4C16.8646 18.5913 16.3417 18.762 15.9145 19.0847C15.4873 19.4075 15.1803 19.8639 15.0423 20.3812C14.9044 20.8986 14.9434 21.4472 15.1532 21.9399C15.3629 22.4325 15.7314 22.8409 16.2 23.1C16.4396 23.321 16.6039 23.6116 16.6698 23.9309C16.7358 24.2502 16.7 24.5821 16.5676 24.88C16.4352 25.1779 16.2128 25.4269 15.9316 25.5919C15.6504 25.7569 15.3246 25.8296 15 25.8" stroke="#6A5AE0" stroke-width="2" stroke-linecap="round" stroke-linejoin="round"/>
<path d="M9.59998 13.7999C9.93135 13.7999 10.2 13.5312 10.2 13.1999C10.2 12.8685 9.93135 12.5999 9.59998 12.5999C9.26861 12.5999 8.99998 12.8685 8.99998 13.1999C8.99998 13.5312 9.26861 13.7999 9.59998 13.7999Z" fill="#6A5AE0" stroke="#6A5AE0" stroke-width="2" stroke-linecap="round" stroke-linejoin="round"/>
<path d="M15 10.1998C15.3313 10.1998 15.6 9.93113 15.6 9.59976C15.6 9.26839 15.3313 8.99976 15 8.99976C14.6686 8.99976 14.4 9.26839 14.4 9.59976C14.4 9.93113 14.6686 10.1998 15 10.1998Z" fill="#6A5AE0" stroke="#6A5AE0" stroke-width="2" stroke-linecap="round" stroke-linejoin="round"/>
<path d="M20.4 13.7999C20.7313 13.7999 21 13.5312 21 13.1999C21 12.8685 20.7313 12.5999 20.4 12.5999C20.0686 12.5999 19.8 12.8685 19.8 13.1999C19.8 13.5312 20.0686 13.7999 20.4 13.7999Z" fill="#6A5AE0" stroke="#6A5AE0" stroke-width="2" stroke-linecap="round" stroke-linejoin="round"/>
</svg>
