<svg width="20" height="20" viewBox="0 0 20 20" fill="none" xmlns="http://www.w3.org/2000/svg">
<g opacity="0.5" clip-path="url(#clip0_179_6494)">
<path d="M15 6.66675H8.33332C7.41285 6.66675 6.66666 7.41294 6.66666 8.33341V15.0001C6.66666 15.9206 7.41285 16.6667 8.33332 16.6667H15C15.9205 16.6667 16.6667 15.9206 16.6667 15.0001V8.33341C16.6667 7.41294 15.9205 6.66675 15 6.66675Z" stroke="#0C092A" stroke-width="1.5" stroke-linecap="round" stroke-linejoin="round"/>
<path d="M13.3333 6.66659V4.99992C13.3333 4.55789 13.1577 4.13397 12.8452 3.82141C12.5326 3.50885 12.1087 3.33325 11.6667 3.33325H5.00001C4.55798 3.33325 4.13406 3.50885 3.8215 3.82141C3.50894 4.13397 3.33334 4.55789 3.33334 4.99992V11.6666C3.33334 12.1086 3.50894 12.5325 3.8215 12.8451C4.13406 13.1577 4.55798 13.3333 5.00001 13.3333H6.66668" stroke="#0C092A" stroke-width="1.5" stroke-linecap="round" stroke-linejoin="round"/>
</g>
<defs>
<clipPath id="clip0_179_6494">
<rect width="20" height="20" fill="white"/>
</clipPath>
</defs>
</svg>
