<svg width="30" height="30" viewBox="0 0 30 30" fill="none" xmlns="http://www.w3.org/2000/svg">
<path d="M4.20004 23.3998C5.84184 22.4519 7.70424 21.9529 9.60003 21.9529C11.4958 21.9529 13.3582 22.4519 15 23.3998C16.6418 22.4519 18.5042 21.9529 20.4 21.9529C22.2958 21.9529 24.1582 22.4519 25.8 23.3998" stroke="#6A5AE0" stroke-width="2" stroke-linecap="round" stroke-linejoin="round"/>
<path d="M4.20004 7.79995C5.84184 6.85206 7.70424 6.35303 9.60003 6.35303C11.4958 6.35303 13.3582 6.85206 15 7.79995C16.6418 6.85206 18.5042 6.35303 20.4 6.35303C22.2958 6.35303 24.1582 6.85206 25.8 7.79995" stroke="#6A5AE0" stroke-width="2" stroke-linecap="round" stroke-linejoin="round"/>
<path d="M4.20004 7.7998V23.3998" stroke="#6A5AE0" stroke-width="2" stroke-linecap="round" stroke-linejoin="round"/>
<path d="M15 7.7998V23.3998" stroke="#6A5AE0" stroke-width="2" stroke-linecap="round" stroke-linejoin="round"/>
<path d="M25.8 7.7998V23.3998" stroke="#6A5AE0" stroke-width="2" stroke-linecap="round" stroke-linejoin="round"/>
</svg>
