<svg width="32" height="32" viewBox="0 0 32 32" fill="none" xmlns="http://www.w3.org/2000/svg">
<circle cx="16" cy="16" r="16" fill="#FF8FA2"/>
<g clip-path="url(#clip0_242_141)">
<path d="M9.33333 11.8333H11.8333C12.0543 11.8333 12.2663 11.7455 12.4226 11.5893C12.5789 11.433 12.6667 11.221 12.6667 11V10.1667C12.6667 9.72464 12.8423 9.30072 13.1548 8.98816C13.4674 8.67559 13.8913 8.5 14.3333 8.5C14.7754 8.5 15.1993 8.67559 15.5118 8.98816C15.8244 9.30072 16 9.72464 16 10.1667V11C16 11.221 16.0878 11.433 16.2441 11.5893C16.4004 11.7455 16.6123 11.8333 16.8333 11.8333H19.3333C19.5543 11.8333 19.7663 11.9211 19.9226 12.0774C20.0789 12.2337 20.1667 12.4457 20.1667 12.6667V15.1667C20.1667 15.3877 20.2545 15.5996 20.4107 15.7559C20.567 15.9122 20.779 16 21 16H21.8333C22.2754 16 22.6993 16.1756 23.0118 16.4882C23.3244 16.8007 23.5 17.2246 23.5 17.6667C23.5 18.1087 23.3244 18.5326 23.0118 18.8452C22.6993 19.1577 22.2754 19.3333 21.8333 19.3333H21C20.779 19.3333 20.567 19.4211 20.4107 19.5774C20.2545 19.7337 20.1667 19.9457 20.1667 20.1667V22.6667C20.1667 22.8877 20.0789 23.0996 19.9226 23.2559C19.7663 23.4122 19.5543 23.5 19.3333 23.5H16.8333C16.6123 23.5 16.4004 23.4122 16.2441 23.2559C16.0878 23.0996 16 22.8877 16 22.6667V21.8333C16 21.3913 15.8244 20.9674 15.5118 20.6548C15.1993 20.3423 14.7754 20.1667 14.3333 20.1667C13.8913 20.1667 13.4674 20.3423 13.1548 20.6548C12.8423 20.9674 12.6667 21.3913 12.6667 21.8333V22.6667C12.6667 22.8877 12.5789 23.0996 12.4226 23.2559C12.2663 23.4122 12.0543 23.5 11.8333 23.5H9.33333C9.11232 23.5 8.90036 23.4122 8.74408 23.2559C8.5878 23.0996 8.5 22.8877 8.5 22.6667V20.1667C8.5 19.9457 8.5878 19.7337 8.74408 19.5774C8.90036 19.4211 9.11232 19.3333 9.33333 19.3333H10.1667C10.6087 19.3333 11.0326 19.1577 11.3452 18.8452C11.6577 18.5326 11.8333 18.1087 11.8333 17.6667C11.8333 17.2246 11.6577 16.8007 11.3452 16.4882C11.0326 16.1756 10.6087 16 10.1667 16H9.33333C9.11232 16 8.90036 15.9122 8.74408 15.7559C8.5878 15.5996 8.5 15.3877 8.5 15.1667V12.6667C8.5 12.4457 8.5878 12.2337 8.74408 12.0774C8.90036 11.9211 9.11232 11.8333 9.33333 11.8333" stroke="white" stroke-width="2" stroke-linecap="round" stroke-linejoin="round"/>
</g>
<defs>
<clipPath id="clip0_242_141">
<rect width="20" height="20" fill="white" transform="translate(6 6)"/>
</clipPath>
</defs>
</svg>
