<svg width="181" height="270" viewBox="0 0 181 270" fill="none" xmlns="http://www.w3.org/2000/svg">
<path d="M86.9198 68.7816L87.1475 61.0902C87.1475 61.0902 86.3896 61.1493 85.2549 61.2109C79.1005 61.545 74.6971 57.2413 74.7125 51.0778C74.7207 47.8138 75.0503 44.1852 76.0906 40.9621L96.2536 38.655L97.6881 49.9965C98.3673 48.0369 103.669 45.7913 105.134 48.5975C108.309 54.6783 96.9555 58.7726 96.9555 58.7726L98.1084 68.8741" fill="#FFCCD7"/>
<path d="M102.731 51.228L98.6955 53.2142" stroke="#0C092A" stroke-linecap="square"/>
<path d="M82.2974 49.2671L81.5539 52.8275L83.1493 53.132" stroke="#001833" stroke-linecap="square"/>
<path opacity="0.399344" fill-rule="evenodd" clip-rule="evenodd" d="M87.1476 61.0901L93.5903 59.7388L87.1785 63.9758L87.1476 61.0901Z" fill="#0C092A"/>
<path fill-rule="evenodd" clip-rule="evenodd" d="M85.3803 49.0411C85.2476 49.7582 85.7345 50.4445 86.4673 50.574C87.2004 50.7038 87.9019 50.2276 88.0345 49.5108C88.1672 48.7938 87.6803 48.1074 86.9475 47.9777C86.2144 47.8481 85.5127 48.3241 85.3803 49.0411Z" fill="#001833"/>
<path fill-rule="evenodd" clip-rule="evenodd" d="M77.369 49.0411C77.2363 49.7582 77.7232 50.4445 78.456 50.574C79.1891 50.7038 79.8906 50.2276 80.0233 49.5108C80.1559 48.7938 79.669 48.1074 78.9362 47.9777C78.2031 47.8481 77.5014 48.3241 77.369 49.0411Z" fill="#001833"/>
<path d="M85.5808 55.2004C85.5808 55.2004 84.227 57.3585 81.5455 57.1756" stroke="#001833"/>
<path d="M101.499 47.5724C102.394 44.3155 105.634 32.2934 105.253 30.2411C104.811 27.8626 103.118 24.9428 94.4207 21.8802C87.0516 19.2855 82.8948 21.1644 81.6356 22.7631C79.7197 25.1957 76.0907 40.9622 76.0907 40.9622C76.0907 40.9622 79.0934 43.0524 89.7415 42.6919C89.7415 42.6919 88.2675 48.9624 94.31 48.6021C94.31 48.6021 93.6625 50.7137 96.5866 51.3779C98.191 48.9374 100.32 47.9511 101.499 47.5724Z" fill="#001833"/>
<path fill-rule="evenodd" clip-rule="evenodd" d="M139.946 221.792L131.846 214.478L134.66 207.08L151.995 219.755L137.952 243.892C137.952 243.892 137.501 237.894 138.235 231.249C138.743 226.659 139.946 221.792 139.946 221.792ZM61.8939 237.771L63.7439 231.899L71.5764 232.307L65.0576 248.433L40.0175 234.149C47.4483 231.934 61.8939 237.771 61.8939 237.771Z" fill="#0D0B6D"/>
<path fill-rule="evenodd" clip-rule="evenodd" d="M133.888 216.342L134.778 207.073L144.756 214.508L139.946 221.793L133.888 216.342ZM63.4182 232.891L71.1619 233.578L68.3032 240.404L61.894 237.771L63.4182 232.891Z" fill="#FFCCD7"/>
<path d="M78.0916 139.435L56.4896 234.534L62.4396 236.028H62.4422L69.3687 237.771L69.4033 237.779L71.8009 238.381C71.8009 238.381 82.8066 204.197 92.4955 173.7C94.8531 177.48 97.5087 181.216 100.497 184.849C121.729 210.663 134.72 221.697 134.72 221.697L136.652 218.83L136.657 218.823L141.3 211.934L144.659 206.951C144.659 206.951 115.585 179.932 102.503 141.923C104.803 134.523 106.397 129.241 106.806 127.55C109.15 117.912 109.198 113.495 109.198 113.143H84.0627L73.983 113.143C74.3502 119.425 75.364 128.766 78.0915 139.435L78.0916 139.435Z" fill="#B9B2F0"/>
<path fill-rule="evenodd" clip-rule="evenodd" d="M56.4896 234.534L62.4395 236.028H62.4422L69.3687 237.771L69.4033 237.779L71.8009 238.381C71.8009 238.381 82.8067 204.197 92.4956 173.7C96.2768 161.795 99.8558 150.453 102.503 141.923C104.803 134.523 106.396 129.241 106.806 127.55C109.15 117.912 109.198 113.495 109.198 113.143H84.0626L78.0917 139.435L56.4896 234.534Z" fill="#B9B2F0"/>
<path fill-rule="evenodd" clip-rule="evenodd" d="M65.4701 118.627C65.4701 118.627 69.0541 119.056 69.7364 120.582C71.6877 124.95 67.6443 132.756 67.6443 132.756C67.6443 132.756 69.3575 131.762 69.6983 132.632C69.8503 133.019 70.1941 136.112 63.7755 136.32C63.0941 136.342 61.4546 135.023 61.4546 135.023C61.4546 135.023 62.6499 137.195 60.8197 137.622C60.8197 137.622 57.87 133.416 57.8248 132.48C57.7798 131.544 58.7266 126.807 59.2383 125.85C59.7503 124.893 65.4701 118.627 65.4701 118.627ZM113.941 126.245C114.563 124.497 115.114 123.57 115.114 123.57L124.473 124.003C125.423 126.58 125.526 127.465 125.758 129.462C125.769 129.552 125.779 129.644 125.791 129.739C126.003 131.557 126.017 133.385 125.295 135.818C124.831 137.381 124.335 138.71 124.077 138.654C123.427 138.513 123.403 137.717 123.403 137.717L123.709 136.236L123.848 134.791C123.848 134.791 121.539 141.19 121.343 141.154C120.651 141.03 120.541 139.908 120.541 139.908C120.541 139.908 119.818 142.117 119.454 142.037C118.527 141.833 118.615 140.81 118.615 140.81C118.615 140.81 118.322 141.055 118.098 140.993C117.259 140.762 117.284 139.344 117.299 138.513C117.3 138.446 117.301 138.383 117.301 138.325C117.301 138.325 117.673 135.709 117.597 134.902C117.211 130.794 116.544 129.817 116.179 129.282C116.144 129.231 116.112 129.184 116.084 129.139C115.51 129.511 115.298 130.149 115.073 130.826C114.909 131.319 114.738 131.832 114.416 132.279C113.437 133.639 110.708 134.925 112.234 131.808C113.081 130.078 113.292 129.013 113.487 128.025C113.602 127.445 113.712 126.891 113.941 126.245Z" fill="#FFCCD7"/>
<path opacity="0.150646" d="M66.3336 124.269C66.3336 124.269 65.4328 127.507 62.3418 128.515C61.2609 128.868 61.531 133.033 58.8818 132.535" stroke="#0C092A" stroke-width="3"/>
<path fill-rule="evenodd" clip-rule="evenodd" d="M99.0098 68.9631L97.8185 64.0594L92.6402 64.3745L89.0798 68.687L86.7648 64.7287L85.1123 64.8303L84.599 69.4085C77.0611 72.2381 75.746 75.0061 74.0964 78.4784C73.919 78.8518 73.7378 79.2333 73.5445 79.624C71.3691 84.0205 74.0248 114.537 74.0248 114.537L106.676 113.064C106.676 113.064 102.252 69.2944 99.3538 68.997C99.2394 68.9852 99.1247 68.9739 99.0098 68.9631Z" fill="#EFEFEF"/>
<path d="M74.6874 114.588L73.156 90.4546" stroke="#12173A" stroke-width="5"/>
<path fill-rule="evenodd" clip-rule="evenodd" d="M113.809 132.934L116.134 143.298L98.6579 144.7C98.6579 144.7 97.1569 95.0981 97.3043 80.5149C97.3719 73.8368 99.3535 68.9994 99.3535 68.9994C99.3535 68.9994 107.121 71.2363 108.881 72.3809C113.03 75.0772 122.046 87.994 123.651 94.8221C126.171 105.541 125.91 124.069 125.91 124.069L112.674 123.457L108.861 103.322L108.279 108.476L113.088 129.795C112.922 130.326 112.785 130.728 112.674 130.999C112.122 132.357 111.806 133.147 111.872 133.442C111.934 133.717 112.206 133.882 112.873 133.547C113.049 133.459 113.361 133.254 113.809 132.934ZM73.0497 123.46L71.2482 127.137L59.6676 120.83L69.1141 97.5225C69.1141 97.5225 71.5715 79.4703 73.0523 77.0599C75.9161 72.3993 84.5424 69.4316 84.5424 69.4316C84.5424 69.4316 84.5398 69.4342 84.5398 69.4368C84.454 69.6528 84.385 70.9034 84.2302 73.7067C84.1255 75.6017 83.9817 78.2063 83.767 81.6805C83.2923 89.3629 78.7894 144.501 78.7894 144.501L72.56 143.78L73.0497 123.46Z" fill="#09074A"/>
<path fill-rule="evenodd" clip-rule="evenodd" d="M105.385 84.1695L97.5256 100.511C97.5256 100.511 97.2941 82.5352 97.401 78.2105C97.4763 75.167 99.3534 68.9994 99.3534 68.9994L102.473 71.5291C104.454 73.1348 104.964 75.9035 103.68 78.0847L103.639 78.155L104.271 78.716C105.827 80.0964 106.279 82.3097 105.385 84.1695ZM84.5423 69.4316L82.3467 100.356L76.6171 85.1351C75.7847 82.9239 76.4548 80.4391 78.294 78.9177L78.538 78.7159L78.4287 78.1636C78.0173 76.0878 78.8116 73.9592 80.4928 72.6308L84.5423 69.4316Z" fill="#0C092A"/>
<path opacity="0.197498" d="M108.924 103.652L108.154 99.8922L104.263 92.8605" stroke="#0C092A" stroke-width="5"/>
</svg>
