<svg width="30" height="30" viewBox="0 0 30 30" fill="none" xmlns="http://www.w3.org/2000/svg">
<path d="M9.00004 16.2002H7.80004C6.47456 16.2002 5.40004 17.2747 5.40004 18.6002V22.2002C5.40004 23.5257 6.47456 24.6002 7.80004 24.6002H9.00004C10.3255 24.6002 11.4 23.5257 11.4 22.2002V18.6002C11.4 17.2747 10.3255 16.2002 9.00004 16.2002Z" fill="#6A5AE0" stroke="#6A5AE0" stroke-width="2" stroke-linecap="round" stroke-linejoin="round"/>
<path d="M22.2 16.2002H21C19.6746 16.2002 18.6 17.2747 18.6 18.6002V22.2002C18.6 23.5257 19.6746 24.6002 21 24.6002H22.2C23.5255 24.6002 24.6 23.5257 24.6 22.2002V18.6002C24.6 17.2747 23.5255 16.2002 22.2 16.2002Z" fill="#6A5AE0" stroke="#6A5AE0" stroke-width="2" stroke-linecap="round" stroke-linejoin="round"/>
<path d="M5.40004 18.6001V15.0001C5.40004 12.4541 6.41147 10.0123 8.21181 8.21192C10.0122 6.41157 12.454 5.40015 15 5.40015C17.5461 5.40015 19.9879 6.41157 21.7883 8.21192C23.5886 10.0123 24.6 12.4541 24.6 15.0001V18.6001" stroke="#6A5AE0" stroke-width="2" stroke-linecap="round" stroke-linejoin="round"/>
</svg>
