<svg width="56" height="56" viewBox="0 0 56 56" fill="none" xmlns="http://www.w3.org/2000/svg">
<g clip-path="url(#clip0_172_7075)">
<rect width="56" height="56" rx="20" fill="#C4D0FB"/>
<rect x="8" y="16" width="40" height="50" rx="8" fill="white"/>
<rect x="14" y="22" width="12" height="12" rx="2" fill="#6A5AE0"/>
<path d="M17.2891 31H18.5051L18.8971 29.728H20.9691L21.3611 31H22.7131L20.8571 25.28H19.1691L17.2891 31ZM19.9371 26.336L20.6891 28.808H19.1771L19.9371 26.336Z" fill="white"/>
<rect x="14" y="38" width="12" height="12" rx="2" fill="#C4D0FB"/>
<rect x="30" y="22" width="12" height="12" rx="2" fill="#C4D0FB"/>
<rect x="30" y="38" width="12" height="12" rx="2" fill="#C4D0FB"/>
<path d="M33.9793 31H36.3313C37.6513 31 38.3393 30.448 38.3393 29.4V29.368C38.3393 28.6 37.9393 28.176 37.1953 28.024C37.8353 27.84 38.1233 27.4 38.1233 26.8V26.768C38.1233 25.792 37.4753 25.28 36.2273 25.28H33.9793V31ZM35.2433 30.104V28.464H36.0673C36.7713 28.464 37.0593 28.736 37.0593 29.264V29.296C37.0593 29.816 36.7713 30.104 36.1313 30.104H35.2433ZM35.2433 27.632V26.168H36.0113C36.6193 26.168 36.8913 26.384 36.8913 26.864V26.896C36.8913 27.408 36.6433 27.632 36.0193 27.632H35.2433Z" fill="white"/>
<path d="M35.0097 45.992V42.288H35.5217C36.7297 42.288 37.2337 42.92 37.2337 44.096V44.16C37.2337 45.344 36.6897 45.992 35.5377 45.992H35.0097ZM33.7137 47H35.5777C37.5857 47 38.5857 45.856 38.5857 44.144V44.08C38.5857 42.368 37.5937 41.28 35.5857 41.28H33.7137V47Z" fill="white"/>
<path d="M20.1998 47.088C21.6078 47.088 22.6238 46.36 22.7678 44.944H21.4958C21.3918 45.68 20.8958 46.04 20.1838 46.04C19.2398 46.04 18.6958 45.352 18.6958 44.168V44.104C18.6958 42.92 19.2718 42.216 20.1758 42.216C20.8958 42.216 21.2798 42.584 21.3758 43.272H22.7038C22.5678 41.864 21.5438 41.192 20.1678 41.192C18.5438 41.192 17.3278 42.376 17.3278 44.112V44.176C17.3278 45.936 18.3278 47.088 20.1998 47.088Z" fill="white"/>
</g>
<defs>
<clipPath id="clip0_172_7075">
<rect width="56" height="56" rx="20" fill="white"/>
</clipPath>
</defs>
</svg>
