<svg width="56" height="56" viewBox="0 0 56 56" fill="none" xmlns="http://www.w3.org/2000/svg">
<g clip-path="url(#clip0_172_7105)">
<rect width="56" height="56" rx="20" fill="#C4D0FB"/>
<rect x="8" y="16" width="40" height="50" rx="8" fill="white"/>
<line x1="34.75" y1="26" x2="34.75" y2="46" stroke="#C4D0FB" stroke-width="1.5"/>
<path d="M22.3667 45C22.2067 45 22.0707 44.944 21.9587 44.832C21.8467 44.72 21.7907 44.584 21.7907 44.424V31.2H17.3507C17.1907 31.2 17.0547 31.144 16.9427 31.032C16.8307 30.92 16.7747 30.776 16.7747 30.6V28.8C16.7747 28.624 16.8227 28.48 16.9187 28.368C17.0307 28.256 17.1747 28.2 17.3507 28.2H29.6147C29.7907 28.2 29.9347 28.256 30.0467 28.368C30.1587 28.48 30.2147 28.624 30.2147 28.8V30.6C30.2147 30.776 30.1587 30.92 30.0467 31.032C29.9347 31.144 29.7907 31.2 29.6147 31.2H25.1987V44.424C25.1987 44.584 25.1427 44.72 25.0307 44.832C24.9347 44.944 24.7987 45 24.6227 45H22.3667Z" fill="#6A5AE0"/>
</g>
<defs>
<clipPath id="clip0_172_7105">
<rect width="56" height="56" rx="20" fill="white"/>
</clipPath>
</defs>
</svg>
