<svg width="30" height="29" viewBox="0 0 30 29" fill="none" xmlns="http://www.w3.org/2000/svg">
<path d="M11.4 3.6001H18.6" stroke="#6A5AE0" stroke-width="2" stroke-linecap="round" stroke-linejoin="round"/>
<path d="M12.6 10.8H17.4" stroke="#6A5AE0" stroke-width="2" stroke-linecap="round" stroke-linejoin="round"/>
<path d="M12.6 3.6001V10.8001L7.79999 24.0001C7.74209 24.1166 7.71203 24.2449 7.71219 24.375C7.71234 24.5051 7.7427 24.6333 7.80087 24.7497C7.85904 24.866 7.94343 24.9672 8.0474 25.0454C8.15137 25.1236 8.27207 25.1765 8.39999 25.2001H21.6C21.7279 25.1765 21.8486 25.1236 21.9526 25.0454C22.0565 24.9672 22.1409 24.866 22.1991 24.7497C22.2573 24.6333 22.2876 24.5051 22.2878 24.375C22.2879 24.2449 22.2579 24.1166 22.2 24.0001L17.4 10.8001V3.6001" stroke="#6A5AE0" stroke-width="2" stroke-linecap="round" stroke-linejoin="round"/>
</svg>
