<svg width="30" height="30" viewBox="0 0 30 30" fill="none" xmlns="http://www.w3.org/2000/svg">
<path d="M15 25.8002C20.9646 25.8002 25.8 20.9649 25.8 15.0002C25.8 9.03552 20.9646 4.2002 15 4.2002C9.0353 4.2002 4.19997 9.03552 4.19997 15.0002C4.19997 20.9649 9.0353 25.8002 15 25.8002Z" stroke="#6A5AE0" stroke-width="2" stroke-linecap="round" stroke-linejoin="round"/>
<path d="M7.37996 7.38013L22.62 22.6201" stroke="#6A5AE0" stroke-width="2" stroke-linecap="round" stroke-linejoin="round"/>
<path d="M7.37996 22.6201L22.62 7.38013" stroke="#6A5AE0" stroke-width="2" stroke-linecap="round" stroke-linejoin="round"/>
<path d="M15 4.2002C15 7.06453 16.1378 9.81156 18.1632 11.8369C20.1886 13.8623 22.9356 15.0002 25.8 15.0002" stroke="#6A5AE0" stroke-width="2" stroke-linecap="round" stroke-linejoin="round"/>
<path d="M4.19997 15C7.06431 15 9.81133 16.1379 11.8367 18.1632C13.8621 20.1886 15 22.9357 15 25.8" stroke="#6A5AE0" stroke-width="2" stroke-linecap="round" stroke-linejoin="round"/>
</svg>
