<svg width="30" height="29" viewBox="0 0 30 29" fill="none" xmlns="http://www.w3.org/2000/svg">
<path d="M24.6 9.6001H17.4C16.7373 9.6001 16.2 10.1374 16.2 10.8001V22.8001C16.2 23.4628 16.7373 24.0001 17.4 24.0001H24.6C25.2628 24.0001 25.8 23.4628 25.8 22.8001V10.8001C25.8 10.1374 25.2628 9.6001 24.6 9.6001Z" stroke="#6A5AE0" stroke-width="2" stroke-linecap="round" stroke-linejoin="round"/>
<path d="M22.2 9.60005V6.00005C22.2 5.68179 22.0736 5.37656 21.8486 5.15152C21.6235 4.92648 21.3183 4.80005 21 4.80005H5.40004C5.08178 4.80005 4.77655 4.92648 4.55151 5.15152C4.32646 5.37656 4.20004 5.68179 4.20004 6.00005V20.4C4.20004 20.7183 4.32646 21.0235 4.55151 21.2486C4.77655 21.4736 5.08178 21.6 5.40004 21.6H16.2" stroke="#6A5AE0" stroke-width="2" stroke-linecap="round" stroke-linejoin="round"/>
<path d="M19.8 10.8H22.2" stroke="#6A5AE0" stroke-width="2" stroke-linecap="round" stroke-linejoin="round"/>
</svg>
