<svg width="30" height="30" viewBox="0 0 30 30" fill="none" xmlns="http://www.w3.org/2000/svg">
<path d="M15 17.3998C17.6509 17.3998 19.8 15.2508 19.8 12.5998C19.8 9.94884 17.6509 7.7998 15 7.7998C12.349 7.7998 10.2 9.94884 10.2 12.5998C10.2 15.2508 12.349 17.3998 15 17.3998Z" stroke="#6A5AE0" stroke-width="2" stroke-linecap="round" stroke-linejoin="round"/>
<path d="M8.69997 19.8C9.7127 20.6796 10.8982 21.3377 12.1804 21.7319C13.4626 22.1261 14.813 22.2478 16.145 22.0891C17.477 21.9304 18.761 21.4948 19.9147 20.8104C21.0683 20.1259 22.0661 19.2077 22.8437 18.1147C23.6214 17.0218 24.1619 15.7782 24.4304 14.464C24.6989 13.1497 24.6896 11.7938 24.4029 10.4834C24.1163 9.17296 23.5587 7.93699 22.766 6.85487C21.9733 5.77275 20.963 4.86841 19.8 4.19995" stroke="#6A5AE0" stroke-width="2" stroke-linecap="round" stroke-linejoin="round"/>
<path d="M15 22.2V27" stroke="#6A5AE0" stroke-width="2" stroke-linecap="round" stroke-linejoin="round"/>
<path d="M10.2 26.9998H19.8" stroke="#6A5AE0" stroke-width="2" stroke-linecap="round" stroke-linejoin="round"/>
</svg>
