<svg width="16" height="16" viewBox="0 0 16 16" fill="none" xmlns="http://www.w3.org/2000/svg">
<g clip-path="url(#clip0_135_8113)">
<path d="M15.6667 4.33773C15.5761 4.01455 15.3996 3.72196 15.156 3.49106C14.9055 3.25306 14.5985 3.08282 14.264 2.99639C13.012 2.66639 7.99602 2.66639 7.99602 2.66639C5.9049 2.6426 3.8143 2.74724 1.73602 2.97973C1.40148 3.07253 1.09506 3.24658 0.844015 3.48639C0.597348 3.72373 0.418681 4.01639 0.325348 4.33706C0.101143 5.54489 -0.00779059 6.77129 1.4727e-05 7.99973C-0.00798527 9.22706 0.100681 10.4531 0.325348 11.6624C0.416681 11.9817 0.594681 12.2731 0.842015 12.5084C1.08935 12.7437 1.39735 12.9137 1.73602 13.0037C3.00468 13.3331 7.99602 13.3331 7.99602 13.3331C10.0898 13.3569 12.1831 13.2522 14.264 13.0197C14.5985 12.9333 14.9055 12.7631 15.156 12.5251C15.4027 12.2897 15.578 11.9971 15.666 11.6784C15.8961 10.471 16.0079 9.24412 16 8.01506C16.0173 6.78079 15.9056 5.5481 15.6667 4.33706V4.33773ZM6.40135 10.2824V5.71773L10.5747 8.00039L6.40135 10.2824Z" fill="#EB5757"/>
</g>
<defs>
<clipPath id="clip0_135_8113">
<rect width="16" height="16" fill="white"/>
</clipPath>
</defs>
</svg>
