<svg width="40" height="40" viewBox="0 0 40 40" fill="none" xmlns="http://www.w3.org/2000/svg">
<g clip-path="url(#clip0_242_124)">
<rect width="40" height="40" rx="20" fill="#C4D0FB"/>
<circle cx="20" cy="20" r="20" fill="#C4D0FB"/>
<path fill-rule="evenodd" clip-rule="evenodd" d="M19.9999 9.90918C15.7825 9.90918 12.3635 13.3281 12.3635 17.5455V18.3864C11.5896 18.5162 10.9999 19.1893 10.9999 20.0001V21.9092C10.9999 22.7345 11.6109 23.417 12.4051 23.5293C12.687 26.2302 14.3767 28.5124 16.7274 29.629V32.1571C10.9447 32.5092 6.36365 37.3105 6.36365 43.1818H33.6364C33.6364 37.3106 29.0555 32.5093 23.2728 32.1571V29.6288C25.6233 28.5121 27.3128 26.2301 27.5946 23.5294C28.389 23.4171 28.9999 22.7345 28.9999 21.9092V20.0001C28.9999 19.1893 28.4102 18.5162 27.6363 18.3863V17.5455C27.6363 13.3281 24.2173 9.90918 19.9999 9.90918Z" fill="#D0C6AC"/>
<mask id="mask0_242_124" style="mask-type:luminance" maskUnits="userSpaceOnUse" x="6" y="9" width="28" height="35">
<path fill-rule="evenodd" clip-rule="evenodd" d="M19.9999 9.90918C15.7825 9.90918 12.3635 13.3281 12.3635 17.5455V18.3864C11.5896 18.5162 10.9999 19.1893 10.9999 20.0001V21.9092C10.9999 22.7345 11.6109 23.417 12.4051 23.5293C12.687 26.2302 14.3767 28.5124 16.7274 29.629V32.1571C10.9447 32.5092 6.36365 37.3105 6.36365 43.1818H33.6364C33.6364 37.3106 29.0555 32.5093 23.2728 32.1571V29.6288C25.6233 28.5121 27.3128 26.2301 27.5946 23.5294C28.389 23.4171 28.9999 22.7345 28.9999 21.9092V20.0001C28.9999 19.1893 28.4102 18.5162 27.6363 18.3863V17.5455C27.6363 13.3281 24.2173 9.90918 19.9999 9.90918Z" fill="white"/>
</mask>
<g mask="url(#mask0_242_124)">
<rect x="2.00006" y="9.90918" width="36" height="33.2727" fill="#FFCCD7"/>
<path fill-rule="evenodd" clip-rule="evenodd" d="M12.3635 22.7275V23.8186C12.3635 28.036 15.7824 31.455 19.9999 31.455C24.2173 31.455 27.6362 28.036 27.6362 23.8186V22.7275C27.6362 26.945 24.2173 30.3639 19.9999 30.3639C15.7824 30.3639 12.3635 26.945 12.3635 22.7275Z" fill="black" fill-opacity="0.1"/>
</g>
<path fill-rule="evenodd" clip-rule="evenodd" d="M20 35.9615C22.0334 35.9615 23.6818 34.4352 23.6818 32.5524C23.6818 32.4313 23.675 32.3117 23.6617 32.1938C29.2589 32.729 33.6364 37.4441 33.6364 43.1817H6.36365C6.36365 37.4442 10.741 32.7291 16.3383 32.1939C16.325 32.3117 16.3181 32.4313 16.3181 32.5524C16.3181 34.4352 17.9665 35.9615 20 35.9615Z" fill="#909292"/>
<mask id="mask1_242_124" style="mask-type:luminance" maskUnits="userSpaceOnUse" x="6" y="32" width="28" height="12">
<path fill-rule="evenodd" clip-rule="evenodd" d="M20 35.9615C22.0334 35.9615 23.6818 34.4352 23.6818 32.5524C23.6818 32.4313 23.675 32.3117 23.6617 32.1938C29.259 32.729 33.6364 37.4441 33.6364 43.1817H6.36365C6.36365 37.4442 10.741 32.7291 16.3383 32.1939C16.325 32.3117 16.3181 32.4313 16.3181 32.5524C16.3181 34.4352 17.9665 35.9615 20 35.9615Z" fill="white"/>
</mask>
<g mask="url(#mask1_242_124)">
<rect x="2.00006" y="28.1816" width="36" height="15" fill="#909292"/>
</g>
<path fill-rule="evenodd" clip-rule="evenodd" d="M24.3144 43.1819C24.7782 41.5347 25.0456 39.5968 25.0456 37.5228C25.0456 35.6272 24.8222 33.8451 24.4296 32.2948C29.6542 33.1673 33.6364 37.7096 33.6364 43.1819H24.3144ZM15.8222 43.1819H6.36365C6.36365 37.66 10.4183 33.085 15.7128 32.272C15.3166 33.8276 15.091 35.6178 15.091 37.5228C15.091 39.5968 15.3584 41.5347 15.8222 43.1819Z" fill="#0C1626"/>
<path fill-rule="evenodd" clip-rule="evenodd" d="M26.6819 39.9089L27.0744 39.6145C27.8088 39.0637 28.8209 39.0726 29.5455 39.6362L26.6819 39.9089Z" fill="#E6E6E6"/>
<path fill-rule="evenodd" clip-rule="evenodd" d="M15.7726 32C14.9544 35.9545 16.4544 43.1818 16.4544 43.1818H14.2726L12.3635 38.2727L13.1817 37.0455L12.3635 36.2273L14.9544 32.1364C14.9544 32.1364 15.3692 32.0073 15.7726 32Z" fill="#0C092A"/>
<path fill-rule="evenodd" clip-rule="evenodd" d="M24.2271 32C25.0453 35.9545 23.5453 43.1818 23.5453 43.1818H25.7271L27.6362 38.2727L26.818 37.0455L27.6362 36.2273L25.0453 32.1364C25.0453 32.1364 24.6306 32.0073 24.2271 32Z" fill="#0C092A"/>
<path fill-rule="evenodd" clip-rule="evenodd" d="M16.7273 31.1187C15.8038 31.7455 15.2272 32.6347 15.2272 33.6208C15.2272 34.63 15.831 35.5377 16.7926 36.1665L17.6028 35.5283L18.2273 35.5735L18.091 35.1438L18.09 35.1445L18.1015 35.1355C17.2697 34.707 16.7274 34.0044 16.7273 33.2103C16.7273 33.2103 16.7273 33.2103 16.7273 33.2103V31.1187ZM23.2728 33.2103C23.2728 33.2103 23.2728 33.2103 23.2728 33.2103C23.2728 34.0044 22.7304 34.707 21.8985 35.1355L21.9091 35.1438L21.7727 35.5735L22.3971 35.5283L23.2073 36.1665C24.1689 35.5377 24.7727 34.63 24.7727 33.6208C24.7727 32.6348 24.1962 31.7457 23.2728 31.1188V33.2103Z" fill="#0C092A"/>
<path d="M18.0909 25.4544C18.0909 26.1869 18.9307 26.6816 20 26.6816C21.0694 26.6816 21.9091 26.1869 21.9091 25.4544C21.9091 25.3037 21.7796 25.1816 21.6364 25.1816C21.4601 25.1816 21.3814 25.3051 21.3637 25.4544C21.1942 25.855 20.775 26.0975 20 26.1362C19.225 26.0975 18.8058 25.855 18.6364 25.4544C18.6186 25.3051 18.54 25.1816 18.3637 25.1816C18.2204 25.1816 18.0909 25.3037 18.0909 25.4544Z" fill="#0C092A"/>
<path fill-rule="evenodd" clip-rule="evenodd" d="M18.3636 22.7271C18.3636 23.3295 19.0963 23.818 20 23.818C20.9037 23.818 21.6364 23.3295 21.6364 22.7271" fill="black" fill-opacity="0.16"/>
<ellipse cx="16.4546" cy="20.2723" rx="0.818182" ry="0.818182" fill="#0C092A"/>
<ellipse cx="23.5457" cy="20.2723" rx="0.818182" ry="0.818182" fill="#0C092A"/>
<path d="M14.4951 18.5212C15.0289 17.77 16.4925 17.3488 17.7532 17.6584C17.8994 17.6943 18.0471 17.6048 18.0831 17.4586C18.119 17.3123 18.0295 17.1646 17.8832 17.1287C16.4192 16.7691 14.7244 17.2569 14.0504 18.2052C13.9632 18.328 13.992 18.4983 14.1148 18.5855C14.2375 18.6728 14.4078 18.644 14.4951 18.5212Z" fill="#0C092A"/>
<path d="M25.5051 18.5212C24.9713 17.77 23.5077 17.3488 22.247 17.6584C22.1007 17.6943 21.953 17.6048 21.9171 17.4586C21.8812 17.3123 21.9707 17.1646 22.1169 17.1287C23.581 16.7691 25.2758 17.2569 25.9497 18.2052C26.037 18.328 26.0082 18.4983 25.8854 18.5855C25.7626 18.6728 25.5924 18.644 25.5051 18.5212Z" fill="#0C092A"/>
<mask id="mask2_242_124" style="mask-type:luminance" maskUnits="userSpaceOnUse" x="2" y="5" width="36" height="39">
<rect x="2.00006" y="5" width="36" height="38.1818" fill="white"/>
</mask>
<g mask="url(#mask2_242_124)">
<path fill-rule="evenodd" clip-rule="evenodd" d="M20.0689 27.6148C18.4992 27.6664 17.799 28.4167 17.2716 27.6542C16.8758 27.0818 17.0414 26.1193 17.4113 25.5778C17.9375 24.8071 18.6513 25.1799 19.4495 25.092C19.6666 25.0681 19.8846 25.0078 20.0689 24.9092C20.2532 25.0078 20.4712 25.0681 20.6882 25.092C21.4865 25.1799 22.2003 24.8071 22.7266 25.5778C23.0963 26.1193 23.2619 27.0818 22.8662 27.6542C22.3388 28.4167 21.6386 27.5633 20.0689 27.6148ZM27.6897 18.3638C27.2228 20.2831 27.0082 22.2411 26.6696 24.1826C26.599 24.5873 26.5218 24.9905 26.4398 25.3933C26.4225 25.4778 26.4056 25.7919 26.3222 25.8316C26.0698 25.9522 25.5554 25.311 25.4178 25.1663C25.0723 24.8028 24.7298 24.4359 24.3091 24.1507C23.4589 23.5743 22.4635 23.2334 21.4278 23.1526C20.9944 23.1187 20.4085 23.1778 20.0001 23.4243C19.5917 23.1778 19.0057 23.1187 18.5723 23.1526C17.5366 23.2334 16.5412 23.5743 15.691 24.1507C15.2703 24.4359 14.9278 24.8028 14.5822 25.1663C14.4447 25.311 13.9303 25.9522 13.6778 25.8316C13.5945 25.7919 13.5775 25.4778 13.5603 25.3933C13.4783 24.9905 13.401 24.5873 13.3305 24.1826C12.9919 22.2411 12.7774 20.2831 12.3104 18.3638C12.1745 18.3638 12.0553 20.9203 12.0401 21.1585C11.9784 22.1259 11.9064 23.0718 11.9984 24.0401C12.1572 25.7104 12.3227 27.8048 13.5954 29.0803C14.7454 30.2328 16.4151 30.4737 17.8552 31.2012C18.0406 31.2949 18.2866 31.4105 18.5518 31.5053C18.8313 31.7184 19.3854 31.8638 20.0238 31.8638C20.6934 31.8638 21.2703 31.7039 21.5347 31.4735C21.7666 31.3855 21.9798 31.2846 22.1448 31.2012C23.5849 30.4736 25.2547 30.2328 26.4047 29.0803C27.6774 27.8048 27.8429 25.7104 28.0017 24.0401C28.0937 23.0718 28.0216 22.1259 27.96 21.1585C27.9448 20.9203 27.8256 18.3638 27.6897 18.3638Z" fill="#0C092A"/>
<mask id="mask3_242_124" style="mask-type:luminance" maskUnits="userSpaceOnUse" x="11" y="18" width="18" height="14">
<path fill-rule="evenodd" clip-rule="evenodd" d="M20.0689 27.6148C18.4992 27.6664 17.799 28.4167 17.2716 27.6542C16.8758 27.0818 17.0414 26.1193 17.4113 25.5778C17.9375 24.8071 18.6513 25.1799 19.4495 25.092C19.6666 25.0681 19.8846 25.0078 20.0689 24.9092C20.2532 25.0078 20.4712 25.0681 20.6882 25.092C21.4865 25.1799 22.2003 24.8071 22.7266 25.5778C23.0963 26.1193 23.2619 27.0818 22.8662 27.6542C22.3388 28.4167 21.6386 27.5633 20.0689 27.6148ZM27.6897 18.3638C27.2228 20.2831 27.0082 22.2411 26.6696 24.1826C26.599 24.5873 26.5218 24.9905 26.4398 25.3933C26.4225 25.4778 26.4056 25.7919 26.3222 25.8316C26.0698 25.9522 25.5554 25.311 25.4178 25.1663C25.0723 24.8028 24.7298 24.4359 24.3091 24.1507C23.4589 23.5743 22.4635 23.2334 21.4278 23.1526C20.9944 23.1187 20.4085 23.1778 20.0001 23.4243C19.5917 23.1778 19.0057 23.1187 18.5723 23.1526C17.5366 23.2334 16.5412 23.5743 15.691 24.1507C15.2703 24.4359 14.9278 24.8028 14.5822 25.1663C14.4447 25.311 13.9303 25.9522 13.6778 25.8316C13.5945 25.7919 13.5775 25.4778 13.5603 25.3933C13.4783 24.9905 13.401 24.5873 13.3305 24.1826C12.9919 22.2411 12.7774 20.2831 12.3104 18.3638C12.1745 18.3638 12.0553 20.9203 12.0401 21.1585C11.9784 22.1259 11.9064 23.0718 11.9984 24.0401C12.1572 25.7104 12.3227 27.8048 13.5954 29.0803C14.7454 30.2328 16.4151 30.4737 17.8552 31.2012C18.0406 31.2949 18.2866 31.4105 18.5518 31.5053C18.8313 31.7184 19.3854 31.8638 20.0238 31.8638C20.6934 31.8638 21.2703 31.7039 21.5347 31.4735C21.7666 31.3855 21.9798 31.2846 22.1448 31.2012C23.5849 30.4736 25.2547 30.2328 26.4047 29.0803C27.6774 27.8048 27.8429 25.7104 28.0017 24.0401C28.0937 23.0718 28.0216 22.1259 27.96 21.1585C27.9448 20.9203 27.8256 18.3638 27.6897 18.3638Z" fill="white"/>
</mask>
<g mask="url(#mask3_242_124)">
<rect x="8.54541" y="14.8184" width="22.9091" height="20.7273" fill="#0C092A"/>
</g>
<path fill-rule="evenodd" clip-rule="evenodd" d="M14.7161 12.0936C14.7329 12.0862 14.6913 12.0833 14.5913 12.0851C14.7128 12.0848 14.7545 12.0877 14.7161 12.0936ZM13.6069 9.94997C13.6066 9.94729 13.6092 9.97057 13.6069 9.94997V9.94997ZM28.286 14.6496C28.25 14.1973 28.1862 13.7478 28.079 13.3058C27.9938 12.9546 27.8775 12.6194 27.7399 12.2843C27.6568 12.0819 27.4627 11.8038 27.4399 11.5854C27.4174 11.3703 27.5853 11.1319 27.6211 10.8815C27.6559 10.6377 27.65 10.3814 27.6 10.1398C27.4864 9.59128 27.1099 9.08115 26.5286 8.93815C26.3988 8.90621 26.1244 8.94557 26.0327 8.86999C25.9276 8.78332 25.8543 8.48805 25.7591 8.36962C25.4877 8.03199 25.0644 7.81456 24.6179 7.89036C24.2892 7.94616 24.478 8.01414 24.2315 7.82065C24.0945 7.71309 23.9921 7.54885 23.859 7.4324C23.6589 7.25747 23.4294 7.10771 23.1919 6.98482C22.5705 6.66327 21.8618 6.42954 21.1677 6.31561C19.9015 6.10777 18.5502 6.28897 17.3229 6.61825C16.7122 6.7821 16.0974 6.99003 15.5302 7.26502C15.2869 7.38292 15.1466 7.48073 14.893 7.51161C14.4936 7.56024 14.1554 7.55781 13.7771 7.72718C12.613 8.24836 12.0887 9.45748 12.5417 10.6146C12.6328 10.8473 12.7562 11.0516 12.9262 11.2396C13.1336 11.4688 13.2086 11.4237 13.03 11.6872C12.7629 12.0813 12.5377 12.5015 12.3544 12.9379C11.8732 14.0836 11.7927 15.3739 11.824 16.5958C11.835 17.0235 11.8533 17.4565 11.9208 17.8802C11.9499 18.0635 11.9581 18.4083 12.0956 18.5444C12.1654 18.6134 12.2648 18.6519 12.364 18.6244C12.5971 18.5598 12.517 18.3878 12.5224 18.2281C12.5496 17.4258 12.5128 16.716 12.7036 15.9234C12.8446 15.3378 13.0795 14.8059 13.3839 14.2822C13.771 13.6162 14.1888 13.0313 14.7212 12.461C14.8463 12.3269 14.8737 12.27 15.0415 12.2603C15.1686 12.253 15.3545 12.34 15.478 12.3701C15.7505 12.4365 16.0234 12.5022 16.3008 12.5469C16.8108 12.6291 17.3158 12.6346 17.8303 12.6185C18.843 12.5868 19.8601 12.5158 20.8419 12.2607C21.494 12.0914 22.0721 11.7874 22.6967 11.5646C22.7079 11.5607 22.8644 11.4491 22.8918 11.4537C22.9302 11.46 23.1614 11.7026 23.2005 11.7332C23.504 11.9712 23.8369 12.0711 24.1646 12.2554C24.5687 12.4827 24.1774 12.1575 24.4003 12.4407C24.4652 12.5232 24.4985 12.6761 24.5506 12.7695C24.7164 13.0672 24.9471 13.3288 25.223 13.5364C25.4896 13.7369 25.8903 13.8338 26.0262 14.0948C26.131 14.2962 26.1664 14.5699 26.251 14.7849C26.4729 15.3488 26.766 15.8747 27.059 16.4058C27.2951 16.8338 27.5534 17.2077 27.5796 17.6968C27.5887 17.8671 27.4268 18.8883 27.8214 18.5777C27.8799 18.5317 28.006 18.011 28.0319 17.9227C28.137 17.5637 28.1744 17.1889 28.2221 16.82C28.3168 16.0864 28.3479 15.3885 28.286 14.6496Z" fill="#28354B"/>
<mask id="mask4_242_124" style="mask-type:luminance" maskUnits="userSpaceOnUse" x="11" y="6" width="18" height="13">
<path fill-rule="evenodd" clip-rule="evenodd" d="M14.7161 12.0936C14.7329 12.0862 14.6913 12.0833 14.5913 12.0851C14.7128 12.0848 14.7545 12.0877 14.7161 12.0936ZM13.6069 9.94997C13.6066 9.94729 13.6092 9.97057 13.6069 9.94997V9.94997ZM28.286 14.6496C28.25 14.1973 28.1862 13.7478 28.079 13.3058C27.9938 12.9546 27.8775 12.6194 27.7399 12.2843C27.6568 12.0819 27.4627 11.8038 27.4399 11.5854C27.4174 11.3703 27.5853 11.1319 27.6211 10.8815C27.6559 10.6377 27.65 10.3814 27.6 10.1398C27.4864 9.59128 27.1099 9.08115 26.5286 8.93815C26.3988 8.90621 26.1244 8.94557 26.0327 8.86999C25.9276 8.78332 25.8543 8.48805 25.7591 8.36962C25.4877 8.03199 25.0644 7.81456 24.6179 7.89036C24.2892 7.94616 24.478 8.01414 24.2315 7.82065C24.0945 7.71309 23.9921 7.54885 23.859 7.4324C23.6589 7.25747 23.4294 7.10771 23.1919 6.98482C22.5705 6.66327 21.8618 6.42954 21.1677 6.31561C19.9015 6.10777 18.5502 6.28897 17.3229 6.61825C16.7122 6.7821 16.0974 6.99003 15.5302 7.26502C15.2869 7.38292 15.1466 7.48073 14.893 7.51161C14.4936 7.56024 14.1554 7.55781 13.7771 7.72718C12.613 8.24836 12.0887 9.45748 12.5417 10.6146C12.6328 10.8473 12.7562 11.0516 12.9262 11.2396C13.1336 11.4688 13.2086 11.4237 13.03 11.6872C12.7629 12.0813 12.5377 12.5015 12.3544 12.9379C11.8732 14.0836 11.7927 15.3739 11.824 16.5958C11.835 17.0235 11.8533 17.4565 11.9208 17.8802C11.9499 18.0635 11.9581 18.4083 12.0956 18.5444C12.1654 18.6134 12.2648 18.6519 12.364 18.6244C12.5971 18.5598 12.517 18.3878 12.5224 18.2281C12.5496 17.4258 12.5128 16.716 12.7036 15.9234C12.8446 15.3378 13.0795 14.8059 13.3839 14.2822C13.771 13.6162 14.1888 13.0313 14.7212 12.461C14.8463 12.3269 14.8737 12.27 15.0415 12.2603C15.1686 12.253 15.3545 12.34 15.478 12.3701C15.7505 12.4365 16.0234 12.5022 16.3008 12.5469C16.8108 12.6291 17.3158 12.6346 17.8303 12.6185C18.843 12.5868 19.8601 12.5158 20.8419 12.2607C21.494 12.0914 22.0721 11.7874 22.6967 11.5646C22.7079 11.5607 22.8644 11.4491 22.8918 11.4537C22.9302 11.46 23.1614 11.7026 23.2005 11.7332C23.504 11.9712 23.8369 12.0711 24.1646 12.2554C24.5687 12.4827 24.1774 12.1575 24.4003 12.4407C24.4652 12.5232 24.4985 12.6761 24.5506 12.7695C24.7164 13.0672 24.9471 13.3288 25.223 13.5364C25.4896 13.7369 25.8903 13.8338 26.0262 14.0948C26.131 14.2962 26.1664 14.5699 26.251 14.7849C26.4729 15.3488 26.766 15.8747 27.059 16.4058C27.2951 16.8338 27.5534 17.2077 27.5796 17.6968C27.5887 17.8671 27.4267 18.8883 27.8214 18.5777C27.8798 18.5317 28.006 18.011 28.0319 17.9227C28.137 17.5637 28.1744 17.1889 28.2221 16.82C28.3168 16.0864 28.3479 15.3885 28.286 14.6496Z" fill="white"/>
</mask>
<g mask="url(#mask4_242_124)">
<rect x="1.99976" y="5" width="36" height="38.1818" fill="#0C092A"/>
</g>
</g>
</g>
<defs>
<clipPath id="clip0_242_124">
<rect width="40" height="40" rx="20" fill="white"/>
</clipPath>
</defs>
</svg>
