<svg width="56" height="56" viewBox="0 0 56 56" fill="none" xmlns="http://www.w3.org/2000/svg">
<circle cx="28" cy="28" r="28" fill="#FFD6DD"/>
<mask id="mask0_199_5935" style="mask-type:alpha" maskUnits="userSpaceOnUse" x="0" y="0" width="56" height="56">
<circle cx="28" cy="28" r="28" fill="#C4C4C4"/>
</mask>
<g mask="url(#mask0_199_5935)">
<path fill-rule="evenodd" clip-rule="evenodd" d="M29 14.4963C23.3767 14.4963 18.8182 19.0549 18.8182 24.6782V25.7145C17.7863 25.8876 17 26.785 17 27.8661V30.3596C17 31.4626 17.8184 32.3744 18.8811 32.5209C19.2785 36.0916 21.5225 39.1049 24.6364 40.5842V43.9313C16.9351 44.3459 10.8182 50.7218 10.8182 58.5264H47.1818C47.1818 50.7218 41.0649 44.3459 33.3636 43.9313V40.5842C36.4776 39.1049 38.7215 36.0916 39.1189 32.5209C40.1816 32.3744 41 31.4626 41 30.3596V27.8661C41 26.785 40.2137 25.8876 39.1818 25.7145V24.6782C39.1818 19.0549 34.6233 14.4963 29 14.4963Z" fill="#D0C6AC"/>
<mask id="mask1_199_5935" style="mask-type:alpha" maskUnits="userSpaceOnUse" x="10" y="14" width="38" height="45">
<path fill-rule="evenodd" clip-rule="evenodd" d="M29 14.4963C23.3767 14.4963 18.8182 19.0549 18.8182 24.6782V25.7145C17.7863 25.8876 17 26.785 17 27.8661V30.3596C17 31.4626 17.8184 32.3744 18.8811 32.5209C19.2785 36.0916 21.5225 39.1049 24.6364 40.5842V43.9313C16.9351 44.3459 10.8182 50.7218 10.8182 58.5264H47.1818C47.1818 50.7218 41.0649 44.3459 33.3636 43.9313V40.5842C36.4776 39.1049 38.7215 36.0916 39.1189 32.5209C40.1816 32.3744 41 31.4626 41 30.3596V27.8661C41 26.785 40.2137 25.8876 39.1818 25.7145V24.6782C39.1818 19.0549 34.6233 14.4963 29 14.4963Z" fill="white"/>
</mask>
<g mask="url(#mask1_199_5935)">
<rect x="5" y="14.4963" width="48" height="44.0301" fill="#FFBF75"/>
<path fill-rule="evenodd" clip-rule="evenodd" d="M18.8182 31.3821V32.8257C18.8182 38.449 23.3767 43.0075 29 43.0075C34.6233 43.0075 39.1818 38.449 39.1818 32.8257V31.3821C39.1818 37.0054 34.6233 41.5639 29 41.5639C23.3767 41.5639 18.8182 37.0053 18.8182 31.3821Z" fill="black" fill-opacity="0.1"/>
</g>
<path fill-rule="evenodd" clip-rule="evenodd" d="M24.6364 41.3284C21.4396 42.082 19.1597 43.6379 18.8534 45.4717C14.0867 47.8795 10.8182 52.8212 10.8182 58.5263H47.1818C47.1818 52.8212 43.9133 47.8795 39.1466 45.4717C38.8403 43.6379 36.5604 42.082 33.3636 41.3284V44.4184C33.3636 46.8283 31.41 48.782 29 48.782C26.59 48.782 24.6364 46.8283 24.6364 44.4184V41.3284Z" fill="#B7C1DB"/>
<mask id="mask2_199_5935" style="mask-type:alpha" maskUnits="userSpaceOnUse" x="10" y="41" width="38" height="18">
<path fill-rule="evenodd" clip-rule="evenodd" d="M24.6364 41.3284C21.4396 42.082 19.1597 43.6379 18.8534 45.4717C14.0867 47.8795 10.8182 52.8212 10.8182 58.5263H47.1818C47.1818 52.8212 43.9133 47.8795 39.1466 45.4717C38.8403 43.6379 36.5604 42.082 33.3636 41.3284V44.4184C33.3636 46.8283 31.41 48.782 29 48.782C26.59 48.782 24.6364 46.8283 24.6364 44.4184V41.3284Z" fill="white"/>
</mask>
<g mask="url(#mask2_199_5935)">
<rect x="5" y="38.6768" width="48" height="19.8496" fill="#FF6990"/>
<path fill-rule="evenodd" clip-rule="evenodd" d="M23.5455 50.106C23.0961 49.9541 22.6706 49.784 22.2727 49.5977V58.5264H23.5455V50.106ZM34.4545 50.106C34.9039 49.9541 35.3294 49.784 35.7273 49.5977V56.4465C35.7273 56.7979 35.4424 57.0828 35.0909 57.0828C34.7395 57.0828 34.4545 56.7979 34.4545 56.4465V50.106Z" fill="#F4F4F4"/>
<path fill-rule="evenodd" clip-rule="evenodd" d="M29 50.9475C34.6233 50.9475 39.1818 48.5238 39.1818 45.5339C39.1818 43.7541 37.5664 42.175 35.0726 41.1882C38.6716 42.0947 41.0909 43.7823 41.0909 45.7144C41.0909 48.6045 35.6776 50.9475 29 50.9475ZM22.9273 41.1882C20.4336 42.175 18.8182 43.7541 18.8182 45.5339C18.8182 48.5238 23.3767 50.9475 29 50.9475C22.3224 50.9475 16.9091 48.6045 16.9091 45.7144C16.9091 43.7823 19.3284 42.0947 22.9273 41.1882Z" fill="black" fill-opacity="0.16"/>
</g>
<path fill-rule="evenodd" clip-rule="evenodd" d="M26.4545 34.8872C26.4545 36.2825 27.5942 37.4135 29 37.4135C30.4058 37.4135 31.5455 36.2825 31.5455 34.8872" fill="#0C092A"/>
<g opacity="0.3">
<path fill-rule="evenodd" clip-rule="evenodd" d="M26.8182 31.4585C26.8182 32.2558 27.795 32.9021 29 32.9021C30.205 32.9021 31.1818 32.2558 31.1818 31.4585" fill="#0C092A"/>
</g>
<ellipse cx="24.2727" cy="28.2104" rx="1.09091" ry="1.08271" fill="#0C092A"/>
<ellipse cx="33.7273" cy="28.2104" rx="1.09091" ry="1.08271" fill="#0C092A"/>
<path d="M21.66 25.8933C22.3718 24.8992 24.3232 24.3418 26.0042 24.7515C26.1992 24.799 26.3961 24.6806 26.444 24.4871C26.4919 24.2935 26.3726 24.098 26.1776 24.0505C24.2255 23.5747 21.9658 24.2202 21.0672 25.4751C20.9509 25.6376 20.9893 25.8629 21.153 25.9784C21.3167 26.0938 21.5437 26.0557 21.66 25.8933Z" fill="#0C092A"/>
<path d="M36.34 25.8933C35.6282 24.8992 33.6768 24.3418 31.9958 24.7515C31.8008 24.799 31.6039 24.6806 31.556 24.4871C31.5081 24.2935 31.6274 24.098 31.8224 24.0505C33.7745 23.5747 36.0342 24.2202 36.9328 25.4751C37.0491 25.6376 37.0107 25.8629 36.847 25.9784C36.6833 26.0938 36.4563 26.0557 36.34 25.8933Z" fill="#0C092A"/>
<mask id="mask3_199_5935" style="mask-type:alpha" maskUnits="userSpaceOnUse" x="5" y="8" width="48" height="51">
<rect x="5" y="8" width="48" height="50.5263" fill="white"/>
</mask>
<g mask="url(#mask3_199_5935)">
<path fill-rule="evenodd" clip-rule="evenodd" d="M24.1906 33.5658C24.4864 33.3898 24.7737 33.2189 25.0706 33.1063C26.0142 32.7485 27.7652 32.85 29.0001 33.4971C30.235 32.85 31.9859 32.7485 32.9295 33.1063C33.2265 33.2189 33.5137 33.3898 33.8096 33.5658C34.5595 34.012 35.3643 34.4908 36.5204 34.1343C36.5874 34.1136 36.653 34.1734 36.6329 34.239C36.3831 35.0528 34.9951 35.6101 34.5234 35.6284C33.395 35.672 32.3866 35.2203 31.4096 34.7827C30.6017 34.4208 29.8153 34.0686 29.0001 34.0139C28.1849 34.0686 27.3984 34.4208 26.5905 34.7827C25.6135 35.2203 24.6052 35.672 23.4768 35.6284C23.005 35.6101 21.617 35.0528 21.3673 34.239C21.3472 34.1734 21.4127 34.1136 21.4798 34.1343C22.6359 34.4908 23.4406 34.012 24.1906 33.5658Z" fill="#28354B"/>
<mask id="mask4_199_5935" style="mask-type:alpha" maskUnits="userSpaceOnUse" x="21" y="32" width="16" height="4">
<path fill-rule="evenodd" clip-rule="evenodd" d="M24.1906 33.5658C24.4864 33.3898 24.7737 33.2189 25.0706 33.1063C26.0142 32.7485 27.7652 32.85 29.0001 33.4971C30.235 32.85 31.9859 32.7485 32.9295 33.1063C33.2265 33.2189 33.5137 33.3898 33.8096 33.5658C34.5595 34.012 35.3643 34.4908 36.5204 34.1343C36.5874 34.1136 36.653 34.1734 36.6329 34.239C36.3831 35.0528 34.9951 35.6101 34.5234 35.6284C33.395 35.672 32.3866 35.2203 31.4096 34.7827C30.6017 34.4208 29.8153 34.0686 29.0001 34.0139C28.1849 34.0686 27.3984 34.4208 26.5905 34.7827C25.6135 35.2203 24.6052 35.672 23.4768 35.6284C23.005 35.6101 21.617 35.0528 21.3673 34.239C21.3472 34.1734 21.4127 34.1136 21.4798 34.1343C22.6359 34.4908 23.4406 34.012 24.1906 33.5658Z" fill="white"/>
</mask>
<g mask="url(#mask4_199_5935)">
<rect x="13.7273" y="20.9924" width="30.5455" height="27.4286" fill="#0C092A"/>
</g>
<path fill-rule="evenodd" clip-rule="evenodd" d="M37.5727 15.2036C37.0709 14.6948 36.4883 14.2628 35.9217 13.8297C35.7966 13.7342 35.6696 13.6411 35.5474 13.5419C35.5196 13.5194 35.2349 13.3171 35.2008 13.2426C35.1189 13.0635 35.1664 13.203 35.1777 12.9892C35.192 12.7188 35.7474 11.9553 35.3329 11.7802C35.1506 11.7032 34.8254 11.9082 34.6505 11.9758C34.3084 12.1083 33.9621 12.2213 33.6085 12.3187C33.7779 11.9837 34.101 11.3129 33.4938 11.4925C33.0208 11.6323 32.58 11.9919 32.1047 12.1611C32.2619 11.9052 32.8909 11.1124 32.3226 11.068C32.1457 11.0542 31.6311 11.3835 31.4407 11.4537C30.8704 11.6641 30.2879 11.8001 29.6891 11.9072C27.6531 12.2714 25.2722 12.1675 23.3885 13.0875C21.9363 13.7967 20.5023 14.8972 19.6633 16.2985C18.8548 17.6491 18.5523 19.1273 18.3831 20.6751C18.2589 21.8109 18.2488 22.9851 18.3069 24.1251C18.3259 24.4986 18.3682 26.2203 18.9149 25.6989C19.1873 25.4391 19.1853 24.39 19.2539 24.0349C19.3904 23.3284 19.5218 22.6188 19.7494 21.9349C20.1506 20.7297 20.6238 19.4459 21.6231 18.6159C22.2644 18.0832 22.7147 17.3634 23.3284 16.826C23.604 16.5847 23.3937 16.6098 23.8369 16.6415C24.1346 16.6628 24.4337 16.6709 24.7321 16.6786C25.4222 16.6964 26.1135 16.6919 26.8039 16.6943C28.1942 16.6993 29.578 16.7188 30.967 16.6465C31.5843 16.6144 32.2033 16.5971 32.8189 16.5404C33.1628 16.5087 33.773 16.29 34.0561 16.4571C34.3151 16.6101 34.5842 17.1095 34.7702 17.314C35.2097 17.7973 35.7338 18.1664 36.2477 18.5628C37.3194 19.3891 37.8604 20.427 38.1859 21.7184C38.5102 23.0051 38.4192 24.1987 38.8206 25.4649C38.8912 25.6875 39.078 26.0712 39.3082 25.7273C39.351 25.6634 39.3399 25.3123 39.3399 25.1102C39.3399 24.2946 39.548 23.6827 39.5454 22.8618C39.5352 20.3658 39.4539 17.1111 37.5727 15.2036Z" fill="#0C092A"/>
<mask id="mask5_199_5935" style="mask-type:alpha" maskUnits="userSpaceOnUse" x="18" y="11" width="22" height="15">
<path fill-rule="evenodd" clip-rule="evenodd" d="M37.5727 15.2036C37.0709 14.6948 36.4883 14.2628 35.9217 13.8297C35.7966 13.7342 35.6696 13.6411 35.5474 13.5419C35.5196 13.5194 35.2349 13.3171 35.2008 13.2426C35.1189 13.0635 35.1664 13.203 35.1777 12.9892C35.192 12.7188 35.7474 11.9553 35.3329 11.7802C35.1506 11.7032 34.8254 11.9082 34.6505 11.9758C34.3084 12.1083 33.9621 12.2213 33.6085 12.3187C33.7779 11.9837 34.101 11.3129 33.4938 11.4925C33.0208 11.6323 32.58 11.9919 32.1047 12.1611C32.2619 11.9052 32.8909 11.1124 32.3226 11.068C32.1457 11.0542 31.6311 11.3835 31.4407 11.4537C30.8704 11.6641 30.2879 11.8001 29.6891 11.9072C27.6531 12.2714 25.2722 12.1675 23.3885 13.0875C21.9363 13.7967 20.5023 14.8972 19.6633 16.2985C18.8548 17.6491 18.5523 19.1273 18.3831 20.6751C18.2589 21.8109 18.2488 22.9851 18.3069 24.1251C18.3259 24.4986 18.3682 26.2203 18.9149 25.6989C19.1873 25.4391 19.1853 24.39 19.2539 24.0349C19.3904 23.3284 19.5218 22.6188 19.7494 21.9349C20.1506 20.7297 20.6238 19.4459 21.6231 18.6159C22.2644 18.0832 22.7147 17.3634 23.3284 16.826C23.604 16.5847 23.3937 16.6098 23.8369 16.6415C24.1346 16.6628 24.4337 16.6709 24.7321 16.6786C25.4222 16.6964 26.1135 16.6919 26.8039 16.6943C28.1942 16.6993 29.578 16.7188 30.967 16.6465C31.5843 16.6144 32.2033 16.5971 32.8189 16.5404C33.1628 16.5087 33.773 16.29 34.0561 16.4571C34.3151 16.6101 34.5842 17.1095 34.7702 17.314C35.2097 17.7973 35.7338 18.1664 36.2477 18.5628C37.3194 19.3891 37.8604 20.427 38.1859 21.7184C38.5102 23.0051 38.4192 24.1987 38.8206 25.4649C38.8912 25.6875 39.078 26.0712 39.3082 25.7273C39.351 25.6634 39.3399 25.3123 39.3399 25.1102C39.3399 24.2946 39.548 23.6827 39.5454 22.8618C39.5352 20.3658 39.4539 17.1111 37.5727 15.2036Z" fill="white"/>
</mask>
<g mask="url(#mask5_199_5935)">
<rect x="5" y="8" width="48" height="50.5263" fill="#0C092A"/>
</g>
</g>
</g>
</svg>
