<svg width="56" height="56" viewBox="0 0 56 56" fill="none" xmlns="http://www.w3.org/2000/svg">
<circle cx="28" cy="28" r="28" fill="#FFD6DD"/>
<mask id="mask0_199_7781" style="mask-type:alpha" maskUnits="userSpaceOnUse" x="0" y="0" width="56" height="56">
<circle cx="28" cy="28" r="28" fill="#C4C4C4"/>
</mask>
<g mask="url(#mask0_199_7781)">
<path fill-rule="evenodd" clip-rule="evenodd" d="M28 14.4961C22.3767 14.4961 17.8182 19.0546 17.8182 24.6779V25.7142C16.7863 25.8874 16 26.7848 16 27.8659V30.3594C16 31.4624 16.8184 32.3742 17.8811 32.5207C18.2785 36.0914 20.5224 39.1047 23.6364 40.5839V43.9311C15.9351 44.3456 9.81818 50.7215 9.81818 58.5262H46.1818C46.1818 50.7215 40.0649 44.3456 32.3636 43.9311V40.5839C35.4775 39.1047 37.7215 36.0914 38.1188 32.5207C39.1816 32.3742 40 31.4624 40 30.3594V27.8659C40 26.7848 39.2137 25.8874 38.1818 25.7142V24.6779C38.1818 19.0546 33.6233 14.4961 28 14.4961Z" fill="#D0C6AC"/>
<mask id="mask1_199_7781" style="mask-type:alpha" maskUnits="userSpaceOnUse" x="9" y="14" width="38" height="45">
<path fill-rule="evenodd" clip-rule="evenodd" d="M28 14.4961C22.3767 14.4961 17.8182 19.0546 17.8182 24.6779V25.7142C16.7863 25.8874 16 26.7848 16 27.8659V30.3594C16 31.4624 16.8184 32.3742 17.8811 32.5207C18.2785 36.0914 20.5224 39.1047 23.6364 40.5839V43.9311C15.9351 44.3456 9.81818 50.7215 9.81818 58.5262H46.1818C46.1818 50.7215 40.0649 44.3456 32.3636 43.9311V40.5839C35.4775 39.1047 37.7215 36.0914 38.1188 32.5207C39.1816 32.3742 40 31.4624 40 30.3594V27.8659C40 26.7848 39.2137 25.8874 38.1818 25.7142V24.6779C38.1818 19.0546 33.6233 14.4961 28 14.4961Z" fill="white"/>
</mask>
<g mask="url(#mask1_199_7781)">
<rect x="4" y="14.4961" width="48" height="44.0301" fill="#EDB98A"/>
<path fill-rule="evenodd" clip-rule="evenodd" d="M17.8182 31.3818V32.8254C17.8182 38.4487 22.3767 43.0073 28 43.0073C33.6233 43.0073 38.1818 38.4487 38.1818 32.8254V31.3818C38.1818 37.0051 33.6233 41.5637 28 41.5637C22.3767 41.5637 17.8182 37.0051 17.8182 31.3818Z" fill="black" fill-opacity="0.1"/>
</g>
<path fill-rule="evenodd" clip-rule="evenodd" d="M28 48.9716C30.7112 48.9716 32.9091 46.9518 32.9091 44.4603C32.9091 44.2969 32.8996 44.1355 32.8812 43.9766C40.3364 44.6374 46.1818 50.8991 46.1818 58.5261H9.81818C9.81818 50.8991 15.6636 44.6374 23.1188 43.9766C23.1004 44.1355 23.0909 44.2969 23.0909 44.4603C23.0909 46.9518 25.2888 48.9716 28 48.9716Z" fill="#E6E6E6"/>
<mask id="mask2_199_7781" style="mask-type:alpha" maskUnits="userSpaceOnUse" x="9" y="43" width="38" height="16">
<path fill-rule="evenodd" clip-rule="evenodd" d="M28 48.9716C30.7112 48.9716 32.9091 46.9518 32.9091 44.4603C32.9091 44.2969 32.8996 44.1355 32.8812 43.9766C40.3364 44.6374 46.1818 50.8991 46.1818 58.5261H9.81818C9.81818 50.8991 15.6636 44.6374 23.1188 43.9766C23.1004 44.1355 23.0909 44.2969 23.0909 44.4603C23.0909 46.9518 25.2888 48.9716 28 48.9716Z" fill="white"/>
</mask>
<g mask="url(#mask2_199_7781)">
<rect x="4" y="38.6768" width="48" height="19.8496" fill="#FF7096"/>
</g>
<path fill-rule="evenodd" clip-rule="evenodd" d="M23.6364 42.5693C22.4059 43.3999 21.6364 44.5847 21.6364 45.8998C21.6364 47.2348 22.4294 48.4355 23.6924 49.2677L24.8038 48.3988L25.6364 48.4586L25.4545 47.89L25.4687 47.8789C24.3595 47.3119 23.6364 46.3821 23.6364 45.3312C23.6364 45.3312 23.6364 45.3312 23.6364 45.3312V42.5693ZM32.3636 45.3312C32.3636 45.3312 32.3636 45.3312 32.3636 45.3312C32.3636 46.3821 31.6404 47.3119 30.5313 47.8789L30.5454 47.89L30.3636 48.4586L31.1962 48.3988L32.2234 49.2019C33.4296 48.3729 34.1818 47.2001 34.1818 45.8998C34.1818 44.6507 33.4876 43.5192 32.3636 42.6971V45.3312Z" fill="#F2F2F2"/>
<path d="M25.4545 35.0679C25.4545 36.0373 26.5742 36.692 28 36.692C29.4258 36.692 30.5454 36.0373 30.5454 35.0679C30.5454 34.8686 30.3728 34.707 30.1818 34.707C29.9468 34.707 29.8418 34.8704 29.8182 35.0679C29.5923 35.5981 29.0333 35.919 28 35.9702C26.9667 35.919 26.4077 35.5981 26.1818 35.0679C26.1581 34.8704 26.0532 34.707 25.8182 34.707C25.6272 34.707 25.4545 34.8686 25.4545 35.0679Z" fill="black" fill-opacity="0.6"/>
<path fill-rule="evenodd" clip-rule="evenodd" d="M25.8182 31.458C25.8182 32.2553 26.795 32.9016 28 32.9016C29.205 32.9016 30.1818 32.2553 30.1818 31.458" fill="black" fill-opacity="0.16"/>
<ellipse cx="23.2727" cy="28.2106" rx="1.09091" ry="1.08271" fill="black" fill-opacity="0.6"/>
<ellipse cx="32.7273" cy="28.2106" rx="1.09091" ry="1.08271" fill="black" fill-opacity="0.6"/>
<path d="M20.66 25.893C21.3718 24.899 23.3232 24.3415 25.0042 24.7512C25.1992 24.7988 25.3961 24.6804 25.444 24.4868C25.4919 24.2932 25.3726 24.0978 25.1776 24.0503C23.2255 23.5745 20.9658 24.2199 20.0672 25.4749C19.9509 25.6374 19.9893 25.8627 20.153 25.9781C20.3167 26.0936 20.5437 26.0555 20.66 25.893Z" fill="black" fill-opacity="0.6"/>
<path d="M35.34 25.893C34.6282 24.899 32.6768 24.3415 30.9958 24.7512C30.8008 24.7988 30.6039 24.6804 30.556 24.4868C30.5081 24.2932 30.6274 24.0978 30.8224 24.0503C32.7745 23.5745 35.0342 24.2199 35.9328 25.4749C36.0491 25.6374 36.0107 25.8627 35.847 25.9781C35.6833 26.0936 35.4563 26.0555 35.34 25.893Z" fill="black" fill-opacity="0.6"/>
<mask id="mask3_199_7781" style="mask-type:alpha" maskUnits="userSpaceOnUse" x="4" y="8" width="48" height="51">
<rect x="4" y="8" width="48" height="50.5263" fill="white"/>
</mask>
<g mask="url(#mask3_199_7781)">
<path fill-rule="evenodd" clip-rule="evenodd" d="M12.9091 24.3308C12.9091 25.1519 13.2172 25.8904 13.7915 26.2748C13.956 26.3849 14.2407 26.4416 14.5454 26.4673V40.842C14.5454 41.6393 15.1966 42.2856 16 42.2856H23.6363V40.5914C20.4489 39.0886 18.173 35.9906 17.8561 32.3369C16.8056 32.1808 16 31.2815 16 30.1954V27.8496C16 27.2197 16.2709 26.6526 16.7035 26.2569C18.8016 25.7843 21.0855 24.8969 23.3348 23.6081C25.5406 22.3442 27.4261 20.8585 28.8765 19.3236C28.2534 20.7507 27.499 22.0008 26.6131 23.0739C28.9177 22.0773 30.4868 20.475 31.3206 18.2669C31.3893 18.4333 31.4609 18.5994 31.5353 18.7653C33.3999 22.9219 36.6032 25.8679 39.8556 26.8396C39.9489 27.2204 40 27.576 40 27.8496V30.1954C40 31.2815 39.1944 32.1808 38.1439 32.3369C37.8269 35.9906 35.551 39.0886 32.3636 40.5914V42.2856H35.6363C38.8496 42.2856 41.4545 39.7003 41.4545 36.5112V27.155V26.7442C41.4545 26.7316 41.4526 26.7151 41.4489 26.6948C41.4355 25.677 41.3982 23.2892 41.3382 22.8376C40.4685 16.2964 34.8283 11.248 28 11.248C21.4391 11.248 15.975 15.9088 14.7272 22.0751C13.7231 22.0751 12.9091 23.085 12.9091 24.3308Z" fill="#944F23"/>
<mask id="mask4_199_7781" style="mask-type:alpha" maskUnits="userSpaceOnUse" x="12" y="11" width="30" height="32">
<path fill-rule="evenodd" clip-rule="evenodd" d="M12.9091 24.3308C12.9091 25.1519 13.2172 25.8904 13.7915 26.2748C13.956 26.3849 14.2407 26.4416 14.5454 26.4673V40.842C14.5454 41.6393 15.1966 42.2856 16 42.2856H23.6363V40.5914C20.4489 39.0886 18.173 35.9906 17.8561 32.3369C16.8056 32.1808 16 31.2815 16 30.1954V27.8496C16 27.2197 16.2709 26.6526 16.7035 26.2569C18.8016 25.7843 21.0855 24.8969 23.3348 23.6081C25.5406 22.3442 27.4261 20.8585 28.8765 19.3236C28.2534 20.7507 27.499 22.0008 26.6131 23.0739C28.9177 22.0773 30.4868 20.475 31.3206 18.2669C31.3893 18.4333 31.4609 18.5994 31.5353 18.7653C33.3999 22.9219 36.6032 25.8679 39.8556 26.8396C39.9489 27.2204 40 27.576 40 27.8496V30.1954C40 31.2815 39.1944 32.1808 38.1439 32.3369C37.8269 35.9906 35.551 39.0886 32.3636 40.5914V42.2856H35.6363C38.8496 42.2856 41.4545 39.7003 41.4545 36.5112V27.155V26.7442C41.4545 26.7316 41.4526 26.7151 41.4489 26.6948C41.4355 25.677 41.3982 23.2892 41.3382 22.8376C40.4685 16.2964 34.8283 11.248 28 11.248C21.4391 11.248 15.975 15.9088 14.7272 22.0751C13.7231 22.0751 12.9091 23.085 12.9091 24.3308Z" fill="white"/>
</mask>
<g mask="url(#mask4_199_7781)">
<rect x="3.81818" y="8" width="48.3636" height="50.5263" fill="#2C1B18"/>
</g>
<g opacity="0.439991">
<path fill-rule="evenodd" clip-rule="evenodd" d="M31.5353 18.7653C33.7058 23.6038 37.6901 26.8019 41.4545 27.155V24.6014C41.4545 17.2266 35.4307 11.248 28 11.248C21.4391 11.248 15.975 15.9088 14.7856 22.0763C14.7663 22.0755 14.7468 22.0751 14.7272 22.0751C13.7231 22.0751 12.9091 23.085 12.9091 24.3308C12.9091 25.5004 13.6266 26.4621 14.5454 26.5753V26.6031C14.6029 26.5979 14.6606 26.5923 14.7186 26.5864C14.7215 26.5864 14.7243 26.5864 14.7272 26.5864C14.8453 26.5864 14.9608 26.5724 15.0726 26.5458C17.5838 26.2281 20.4871 25.2398 23.3348 23.6081C25.5406 22.3442 27.4261 20.8585 28.8765 19.3236C28.2534 20.7507 27.499 22.0008 26.6131 23.0739C28.9177 22.0773 30.4868 20.475 31.3206 18.2669C31.3893 18.4333 31.4609 18.5994 31.5353 18.7653Z" fill="white" fill-opacity="0.16"/>
</g>
</g>
</g>
</svg>
