<svg width="56" height="56" viewBox="0 0 56 56" fill="none" xmlns="http://www.w3.org/2000/svg">
<circle cx="28" cy="28" r="28" fill="#C9F2E9"/>
<mask id="mask0_199_7494" style="mask-type:alpha" maskUnits="userSpaceOnUse" x="0" y="0" width="56" height="56">
<circle cx="28" cy="28" r="28" fill="#C4C4C4"/>
</mask>
<g mask="url(#mask0_199_7494)">
<path fill-rule="evenodd" clip-rule="evenodd" d="M28 14.4961C22.3767 14.4961 17.8182 19.0546 17.8182 24.6779V25.7142C16.7863 25.8874 16 26.7848 16 27.8659V30.3594C16 31.4624 16.8184 32.3742 17.8811 32.5207C18.2785 36.0914 20.5224 39.1047 23.6364 40.5839V43.9311C15.9351 44.3456 9.81818 50.7215 9.81818 58.5262H46.1818C46.1818 50.7215 40.0649 44.3456 32.3636 43.9311V40.5839C35.4775 39.1047 37.7215 36.0914 38.1188 32.5207C39.1816 32.3742 40 31.4624 40 30.3594V27.8659C40 26.7848 39.2137 25.8874 38.1818 25.7142V24.6779C38.1818 19.0546 33.6233 14.4961 28 14.4961Z" fill="#D0C6AC"/>
<mask id="mask1_199_7494" style="mask-type:alpha" maskUnits="userSpaceOnUse" x="9" y="14" width="38" height="45">
<path fill-rule="evenodd" clip-rule="evenodd" d="M28 14.4961C22.3767 14.4961 17.8182 19.0546 17.8182 24.6779V25.7142C16.7863 25.8874 16 26.7848 16 27.8659V30.3594C16 31.4624 16.8184 32.3742 17.8811 32.5207C18.2785 36.0914 20.5224 39.1047 23.6364 40.5839V43.9311C15.9351 44.3456 9.81818 50.7215 9.81818 58.5262H46.1818C46.1818 50.7215 40.0649 44.3456 32.3636 43.9311V40.5839C35.4775 39.1047 37.7215 36.0914 38.1188 32.5207C39.1816 32.3742 40 31.4624 40 30.3594V27.8659C40 26.7848 39.2137 25.8874 38.1818 25.7142V24.6779C38.1818 19.0546 33.6233 14.4961 28 14.4961Z" fill="white"/>
</mask>
<g mask="url(#mask1_199_7494)">
<rect x="4" y="14.4961" width="48" height="44.0301" fill="#C9824B"/>
<path fill-rule="evenodd" clip-rule="evenodd" d="M17.8182 31.3818V32.8254C17.8182 38.4487 22.3767 43.0073 28 43.0073C33.6233 43.0073 38.1818 38.4487 38.1818 32.8254V31.3818C38.1818 37.0051 33.6233 41.5637 28 41.5637C22.3767 41.5637 17.8182 37.0051 17.8182 31.3818Z" fill="black" fill-opacity="0.1"/>
</g>
<path fill-rule="evenodd" clip-rule="evenodd" d="M28.0909 48.0296C31.4548 48.0296 34.1818 46.2942 34.1818 44.1535C34.1818 44.1529 34.1818 44.1523 34.1818 44.1517C41.0052 45.3811 46.1818 51.3495 46.1818 58.5269H9.81818C9.81818 51.2858 15.0871 45.2753 22.0002 44.1201C22.0001 44.1312 22 44.1424 22 44.1535C22 46.2942 24.727 48.0296 28.0909 48.0296Z" fill="#E6E6E6"/>
<mask id="mask2_199_7494" style="mask-type:alpha" maskUnits="userSpaceOnUse" x="9" y="44" width="38" height="15">
<path fill-rule="evenodd" clip-rule="evenodd" d="M28.0909 48.0296C31.4548 48.0296 34.1818 46.2942 34.1818 44.1535C34.1818 44.1529 34.1818 44.1523 34.1818 44.1517C41.0052 45.3811 46.1818 51.3495 46.1818 58.5269H9.81818C9.81818 51.2858 15.0871 45.2753 22.0002 44.1201C22.0001 44.1312 22 44.1424 22 44.1535C22 46.2942 24.727 48.0296 28.0909 48.0296Z" fill="white"/>
</mask>
<g mask="url(#mask2_199_7494)">
<rect x="4" y="38.6768" width="48" height="19.8496" fill="#C2FF5F"/>
<g opacity="0.6">
<ellipse cx="28.0909" cy="44.424" rx="7.20638" ry="4.85663" fill="black" fill-opacity="0.16"/>
</g>
</g>
<path d="M25.4546 35.0679C25.4546 36.0373 26.5742 36.692 28 36.692C29.4258 36.692 30.5455 36.0373 30.5455 35.0679C30.5455 34.8686 30.3728 34.707 30.1818 34.707C29.9468 34.707 29.8419 34.8704 29.8182 35.0679C29.5923 35.5981 29.0333 35.919 28 35.9702C26.9667 35.919 26.4077 35.5981 26.1818 35.0679C26.1582 34.8704 26.0532 34.707 25.8182 34.707C25.6272 34.707 25.4546 34.8686 25.4546 35.0679Z" fill="#0C092A"/>
<path fill-rule="evenodd" clip-rule="evenodd" d="M25.8182 31.458C25.8182 32.2553 26.795 32.9016 28 32.9016C29.205 32.9016 30.1818 32.2553 30.1818 31.458" fill="black" fill-opacity="0.16"/>
<ellipse cx="23.2727" cy="28.2106" rx="1.09091" ry="1.08271" fill="#0C092A"/>
<ellipse cx="32.7273" cy="28.2106" rx="1.09091" ry="1.08271" fill="#0C092A"/>
<path d="M20.7228 25.8881C20.9947 24.1696 23.2833 22.9974 24.9388 23.7539C25.1212 23.8373 25.3372 23.7581 25.4212 23.577C25.5052 23.396 25.4254 23.1816 25.243 23.0983C23.1543 22.1438 20.3519 23.5791 20.0044 25.7761C19.9732 25.973 20.1088 26.1577 20.3072 26.1886C20.5056 26.2196 20.6917 26.085 20.7228 25.8881Z" fill="#0C092A"/>
<path d="M35.2771 25.8881C35.0053 24.1696 32.7166 22.9974 31.0612 23.7539C30.8788 23.8373 30.6628 23.7581 30.5788 23.577C30.4948 23.396 30.5746 23.1816 30.757 23.0983C32.8457 22.1438 35.6481 23.5791 35.9956 25.7761C36.0268 25.973 35.8912 26.1577 35.6928 26.1886C35.4944 26.2196 35.3083 26.085 35.2771 25.8881Z" fill="#0C092A"/>
<mask id="mask3_199_7494" style="mask-type:alpha" maskUnits="userSpaceOnUse" x="4" y="8" width="48" height="51">
<rect x="4" y="8" width="48" height="50.5263" fill="white"/>
</mask>
<g mask="url(#mask3_199_7494)">
<path fill-rule="evenodd" clip-rule="evenodd" d="M27.9996 33.071C27.5449 32.4691 25.7693 32.2141 24.4948 32.4441C22.7397 32.7611 21.9958 34.6642 22.221 35.0092C22.3613 35.2241 22.6722 35.1522 22.9955 35.0775C23.1435 35.0433 23.2941 35.0085 23.4321 35.0003C23.7022 34.9844 24.0393 35.0397 24.4222 35.1026C25.3278 35.2513 26.4896 35.442 27.6272 34.8306C27.7747 34.7513 27.9013 34.6356 27.9996 34.4969C28.098 34.6356 28.2245 34.7513 28.372 34.8306C29.5096 35.442 30.6714 35.2513 31.577 35.1026C31.9599 35.0397 32.297 34.9844 32.5672 35.0003C32.7052 35.0085 32.8558 35.0433 33.0038 35.0775C33.327 35.1522 33.6379 35.2241 33.7783 35.0092C34.0035 34.6642 33.2596 32.7611 31.5044 32.4441C30.23 32.2141 28.4543 32.4691 27.9996 33.071Z" fill="#0C092A"/>
<mask id="mask4_199_7494" style="mask-type:alpha" maskUnits="userSpaceOnUse" x="22" y="32" width="12" height="4">
<path fill-rule="evenodd" clip-rule="evenodd" d="M27.9996 33.071C27.5449 32.4691 25.7693 32.2141 24.4948 32.4441C22.7397 32.7611 21.9958 34.6642 22.221 35.0092C22.3613 35.2241 22.6722 35.1522 22.9955 35.0775C23.1435 35.0433 23.2941 35.0085 23.4321 35.0003C23.7022 34.9844 24.0393 35.0397 24.4222 35.1026C25.3278 35.2513 26.4896 35.442 27.6272 34.8306C27.7747 34.7513 27.9013 34.6356 27.9996 34.4969C28.098 34.6356 28.2245 34.7513 28.372 34.8306C29.5096 35.442 30.6714 35.2513 31.577 35.1026C31.9599 35.0397 32.297 34.9844 32.5672 35.0003C32.7052 35.0085 32.8558 35.0433 33.0038 35.0775C33.327 35.1522 33.6379 35.2241 33.7783 35.0092C34.0035 34.6642 33.2596 32.7611 31.5044 32.4441C30.23 32.2141 28.4543 32.4691 27.9996 33.071Z" fill="white"/>
</mask>
<g mask="url(#mask4_199_7494)">
<rect x="12.7273" y="20.9922" width="30.5455" height="27.4286" fill="#0C092A"/>
</g>
<path fill-rule="evenodd" clip-rule="evenodd" d="M37.9472 18.1278C38.1093 18.7137 38.3403 20.2842 37.934 20.8043C37.7983 20.978 36.872 20.4906 36.4857 20.2788C36.2597 20.1549 36.0465 20.0368 35.8435 19.9245C33.1316 18.4238 32.2552 17.9389 27.4992 18.0076C22.3872 18.0814 18.885 20.4585 18.688 20.7016C18.5509 20.8708 18.376 21.3225 18.2321 22.5807C18.1865 22.979 18.1738 23.4773 18.1612 23.9724C18.1339 25.0411 18.107 26.0945 17.751 26.0926C17.3075 26.0903 17.2111 21.8005 17.4025 20.0987C17.4097 20.0351 17.4218 19.9592 17.4349 19.8774C17.4755 19.6235 17.5252 19.3128 17.4632 19.135C17.4352 19.055 17.3649 19.0062 17.2928 18.9562C17.1799 18.878 17.0628 18.7968 17.0969 18.5881C17.1354 18.3526 17.2954 18.3303 17.4539 18.3082C17.5574 18.2938 17.6603 18.2795 17.7284 18.206C17.9335 17.9843 17.8107 17.869 17.6706 17.7372C17.5877 17.6594 17.4988 17.5759 17.4678 17.4613C17.3525 17.0352 17.6539 16.9029 17.9563 16.7701C17.9794 16.76 18.0025 16.7498 18.0254 16.7396C18.1503 16.6836 18.2259 16.6644 18.2838 16.6497C18.3915 16.6223 18.4378 16.6105 18.6266 16.4064C18.2391 16.1245 18.0988 15.7404 18.6295 15.5343C18.7312 15.4949 18.9062 15.4967 19.0839 15.4987C19.3004 15.501 19.5209 15.5034 19.6178 15.4311C19.6448 15.4111 19.6622 15.3354 19.6777 15.268C19.6887 15.2203 19.6987 15.1767 19.7105 15.1601C19.9559 14.8116 19.935 14.5468 19.9066 14.1876C19.9024 14.1341 19.898 14.0786 19.8943 14.0204C19.8707 13.6526 19.8739 13.315 20.3176 13.2783C20.5003 13.2631 20.6619 13.3488 20.8212 13.4332C20.9201 13.4855 21.0181 13.5374 21.1197 13.5645C21.2787 13.6069 21.3195 13.6431 21.3598 13.6426C21.3941 13.6421 21.428 13.6151 21.534 13.5427C21.7499 13.3951 21.7722 13.1729 21.7948 12.9489C21.8146 12.7529 21.8345 12.5554 21.9842 12.4053C22.2707 12.1183 22.493 12.2915 22.7107 12.4612C22.8277 12.5525 22.9434 12.6426 23.0671 12.6597C23.5299 12.7237 23.6242 12.4679 23.7256 12.1924C23.7924 12.011 23.8624 11.8211 24.0429 11.7085C24.3755 11.5012 24.5241 11.7 24.6673 11.8914C24.758 12.0126 24.8464 12.1309 24.978 12.1412C25.1605 12.1554 25.4337 11.9438 25.6759 11.7562C25.824 11.6415 25.9605 11.5358 26.0577 11.496C26.4702 11.3271 26.7697 11.5076 27.0731 11.6904C27.329 11.8446 27.5876 12.0004 27.9189 11.9492C27.9731 11.9409 28.0231 11.9326 28.0699 11.925C28.477 11.8583 28.6349 11.8324 29.0601 12.0985C29.3674 12.2907 29.5183 12.2628 29.7398 12.2218C29.85 12.2014 29.9776 12.1778 30.1507 12.1764C30.3527 12.1749 30.5117 12.2661 30.665 12.354C30.7911 12.4264 30.9133 12.4965 31.0523 12.5108C31.1292 12.5188 31.2045 12.483 31.2812 12.4464C31.3577 12.41 31.4355 12.373 31.5177 12.378C31.85 12.398 32.0066 12.6474 32.164 12.8983C32.2855 13.0918 32.4075 13.2862 32.6112 13.3768C32.9057 13.5078 33.2359 13.4216 33.5515 13.3392C33.6938 13.3021 33.8331 13.2658 33.9648 13.2504C34.6848 13.1666 34.5607 13.6055 34.4284 14.0731C34.3706 14.2775 34.3113 14.4874 34.3201 14.6614C34.5289 14.7098 34.7392 14.6339 34.9493 14.5581C35.1479 14.4864 35.3463 14.4149 35.5428 14.4485C36.1606 14.5544 35.9525 15.1742 35.8048 15.6142C35.8003 15.6276 35.7959 15.6408 35.7915 15.6539C35.907 15.6518 36.071 15.617 36.2555 15.5779C36.776 15.4675 37.4589 15.3227 37.67 15.7816C37.7572 15.9712 37.6725 16.1984 37.5901 16.4199C37.5332 16.5727 37.4773 16.7227 37.4796 16.8557C37.4843 17.1312 37.6088 17.3781 37.7334 17.6255C37.8162 17.7899 37.8992 17.9545 37.9472 18.1278ZM37.7019 21.2827C37.7481 21.3146 37.7795 21.3362 37.7875 21.3407C38.107 21.5191 38.3599 23.3074 38.3722 23.9913C38.3798 24.4133 38.3867 26.0225 37.937 25.8834C37.8001 25.8411 37.5911 24.9891 37.5614 24.4905C37.5317 23.9919 37.2463 22.2955 36.8084 21.515C36.7845 21.4723 36.7499 21.422 36.7128 21.368C36.5948 21.1962 36.4514 20.9874 36.5456 20.8726C36.6769 20.7126 36.805 20.7688 36.9565 20.8353C36.9822 20.8465 37.0086 20.8581 37.0357 20.869C37.1936 20.9321 37.5395 21.1707 37.7019 21.2827Z" fill="#2E3257"/>
<mask id="mask5_199_7494" style="mask-type:alpha" maskUnits="userSpaceOnUse" x="17" y="11" width="22" height="16">
<path fill-rule="evenodd" clip-rule="evenodd" d="M37.9472 18.1278C38.1093 18.7137 38.3403 20.2842 37.934 20.8043C37.7983 20.978 36.872 20.4906 36.4857 20.2788C36.2597 20.1549 36.0465 20.0368 35.8435 19.9245C33.1316 18.4238 32.2552 17.9389 27.4992 18.0076C22.3872 18.0814 18.885 20.4585 18.688 20.7016C18.5509 20.8708 18.376 21.3225 18.2321 22.5807C18.1865 22.979 18.1738 23.4773 18.1612 23.9724C18.1339 25.0411 18.107 26.0945 17.751 26.0926C17.3075 26.0903 17.2111 21.8005 17.4025 20.0987C17.4097 20.0351 17.4218 19.9592 17.4349 19.8774C17.4755 19.6235 17.5252 19.3128 17.4632 19.135C17.4352 19.055 17.3649 19.0062 17.2928 18.9562C17.1799 18.878 17.0628 18.7968 17.0969 18.5881C17.1354 18.3526 17.2954 18.3303 17.4539 18.3082C17.5574 18.2938 17.6603 18.2795 17.7284 18.206C17.9335 17.9843 17.8107 17.869 17.6706 17.7372C17.5877 17.6594 17.4988 17.5759 17.4678 17.4613C17.3525 17.0352 17.6539 16.9029 17.9563 16.7701C17.9794 16.76 18.0025 16.7498 18.0254 16.7396C18.1503 16.6836 18.2259 16.6644 18.2838 16.6497C18.3915 16.6223 18.4378 16.6105 18.6266 16.4064C18.2391 16.1245 18.0988 15.7404 18.6295 15.5343C18.7312 15.4949 18.9062 15.4967 19.0839 15.4987C19.3004 15.501 19.5209 15.5034 19.6178 15.4311C19.6448 15.4111 19.6622 15.3354 19.6777 15.268C19.6887 15.2203 19.6987 15.1767 19.7105 15.1601C19.9559 14.8116 19.935 14.5468 19.9066 14.1876C19.9024 14.1341 19.898 14.0786 19.8943 14.0204C19.8707 13.6526 19.8739 13.315 20.3176 13.2783C20.5003 13.2631 20.6619 13.3488 20.8212 13.4332C20.9201 13.4855 21.0181 13.5374 21.1197 13.5645C21.2787 13.6069 21.3195 13.6431 21.3598 13.6426C21.3941 13.6421 21.428 13.6151 21.534 13.5427C21.7499 13.3951 21.7722 13.1729 21.7948 12.9489C21.8146 12.7529 21.8345 12.5554 21.9842 12.4053C22.2707 12.1183 22.493 12.2915 22.7107 12.4612C22.8277 12.5525 22.9434 12.6426 23.0671 12.6597C23.5299 12.7237 23.6242 12.4679 23.7256 12.1924C23.7924 12.011 23.8624 11.8211 24.0429 11.7085C24.3755 11.5012 24.5241 11.7 24.6673 11.8914C24.758 12.0126 24.8464 12.1309 24.978 12.1412C25.1605 12.1554 25.4337 11.9438 25.6759 11.7562C25.824 11.6415 25.9605 11.5358 26.0577 11.496C26.4702 11.3271 26.7697 11.5076 27.0731 11.6904C27.329 11.8446 27.5876 12.0004 27.9189 11.9492C27.9731 11.9409 28.0231 11.9326 28.0699 11.925C28.477 11.8583 28.6349 11.8324 29.0601 12.0985C29.3674 12.2907 29.5183 12.2628 29.7398 12.2218C29.85 12.2014 29.9776 12.1778 30.1507 12.1764C30.3527 12.1749 30.5117 12.2661 30.665 12.354C30.7911 12.4264 30.9133 12.4965 31.0523 12.5108C31.1292 12.5188 31.2045 12.483 31.2812 12.4464C31.3577 12.41 31.4355 12.373 31.5177 12.378C31.85 12.398 32.0066 12.6474 32.164 12.8983C32.2855 13.0918 32.4075 13.2862 32.6112 13.3768C32.9057 13.5078 33.2359 13.4216 33.5515 13.3392C33.6938 13.3021 33.8331 13.2658 33.9648 13.2504C34.6848 13.1666 34.5607 13.6055 34.4284 14.0731C34.3706 14.2775 34.3113 14.4874 34.3201 14.6614C34.5289 14.7098 34.7392 14.6339 34.9493 14.5581C35.1479 14.4864 35.3463 14.4149 35.5428 14.4485C36.1606 14.5544 35.9525 15.1742 35.8048 15.6142C35.8003 15.6276 35.7959 15.6408 35.7915 15.6539C35.907 15.6518 36.071 15.617 36.2555 15.5779C36.776 15.4675 37.4589 15.3227 37.67 15.7816C37.7572 15.9712 37.6725 16.1984 37.5901 16.4199C37.5332 16.5727 37.4773 16.7227 37.4796 16.8557C37.4843 17.1312 37.6088 17.3781 37.7334 17.6255C37.8162 17.7899 37.8992 17.9545 37.9472 18.1278ZM37.7019 21.2827C37.7481 21.3146 37.7795 21.3362 37.7875 21.3407C38.107 21.5191 38.3599 23.3074 38.3722 23.9913C38.3798 24.4133 38.3867 26.0225 37.937 25.8834C37.8001 25.8411 37.5911 24.9891 37.5614 24.4905C37.5317 23.9919 37.2463 22.2955 36.8084 21.515C36.7845 21.4723 36.7499 21.422 36.7128 21.368C36.5948 21.1962 36.4514 20.9874 36.5456 20.8726C36.6769 20.7126 36.805 20.7688 36.9565 20.8353C36.9822 20.8465 37.0086 20.8581 37.0357 20.869C37.1936 20.9321 37.5395 21.1707 37.7019 21.2827Z" fill="white"/>
</mask>
<g mask="url(#mask5_199_7494)">
<rect x="4" y="8" width="48" height="50.5263" fill="#0C092A"/>
</g>
</g>
</g>
</svg>
