<svg width="56" height="56" viewBox="0 0 56 56" fill="none" xmlns="http://www.w3.org/2000/svg">
<g clip-path="url(#clip0_199_17055)">
<rect width="56" height="56" rx="28" fill="#C4D0FB"/>
<circle cx="28" cy="28" r="28" fill="#FFD6DD"/>
<path fill-rule="evenodd" clip-rule="evenodd" d="M28 13.873C22.0956 13.873 17.3091 18.6595 17.3091 24.564V25.7411C16.2256 25.9229 15.4 26.8652 15.4 28.0003V30.6731C15.4 31.8285 16.2553 32.7841 17.3674 32.9413C17.762 36.7224 20.1274 39.9173 23.4182 41.4806V45.0201C15.3224 45.5131 8.9091 52.235 8.9091 60.4548H47.0909C47.0909 52.235 40.6776 45.5131 32.5818 45.0201V41.4806C35.8726 39.9173 38.238 36.7224 38.6327 32.9413C39.7447 32.7841 40.6 31.8285 40.6 30.6731V28.0003C40.6 26.8652 39.7744 25.9229 38.6909 25.7411V24.564C38.6909 18.6595 33.9044 13.873 28 13.873Z" fill="#D0C6AC"/>
<mask id="mask0_199_17055" style="mask-type:alpha" maskUnits="userSpaceOnUse" x="8" y="13" width="40" height="48">
<path fill-rule="evenodd" clip-rule="evenodd" d="M28 13.873C22.0956 13.873 17.3091 18.6595 17.3091 24.564V25.7411C16.2256 25.9229 15.4 26.8652 15.4 28.0003V30.6731C15.4 31.8285 16.2553 32.7841 17.3674 32.9413C17.762 36.7224 20.1274 39.9173 23.4182 41.4806V45.0201C15.3224 45.5131 8.9091 52.235 8.9091 60.4548H47.0909C47.0909 52.235 40.6776 45.5131 32.5818 45.0201V41.4806C35.8726 39.9173 38.238 36.7224 38.6327 32.9413C39.7447 32.7841 40.6 31.8285 40.6 30.6731V28.0003C40.6 26.8652 39.7744 25.9229 38.6909 25.7411V24.564C38.6909 18.6595 33.9044 13.873 28 13.873Z" fill="white"/>
</mask>
<g mask="url(#mask0_199_17055)">
<rect x="2.8" y="13.873" width="50.4" height="46.5818" fill="#D08B5B"/>
<path fill-rule="evenodd" clip-rule="evenodd" d="M17.3091 31.8184V33.3458C17.3091 39.2502 22.0956 44.0367 28 44.0367C33.9044 44.0367 38.6909 39.2502 38.6909 33.3458V31.8184C38.6909 37.7228 33.9044 42.5093 28 42.5093C22.0956 42.5093 17.3091 37.7228 17.3091 31.8184Z" fill="black" fill-opacity="0.1"/>
</g>
<path fill-rule="evenodd" clip-rule="evenodd" d="M28 50.3459C30.8468 50.3459 33.1546 48.2091 33.1546 45.5732C33.1546 45.4037 33.145 45.2362 33.1264 45.0713C40.9626 45.8206 47.0909 52.4217 47.0909 60.4542H8.9091C8.9091 52.4217 15.0374 45.8206 22.8736 45.0713C22.855 45.2362 22.8455 45.4037 22.8455 45.5732C22.8455 48.2091 25.1532 50.3459 28 50.3459Z" fill="#909292"/>
<mask id="mask1_199_17055" style="mask-type:alpha" maskUnits="userSpaceOnUse" x="8" y="45" width="40" height="16">
<path fill-rule="evenodd" clip-rule="evenodd" d="M28 50.3459C30.8468 50.3459 33.1546 48.2091 33.1546 45.5732C33.1546 45.4037 33.145 45.2362 33.1264 45.0713C40.9626 45.8206 47.0909 52.4217 47.0909 60.4542H8.9091C8.9091 52.4217 15.0374 45.8206 22.8736 45.0713C22.855 45.2362 22.8455 45.4037 22.8455 45.5732C22.8455 48.2091 25.1532 50.3459 28 50.3459Z" fill="white"/>
</mask>
<g mask="url(#mask1_199_17055)">
<rect x="2.8" y="39.4541" width="50.4" height="21" fill="#909292"/>
</g>
<path fill-rule="evenodd" clip-rule="evenodd" d="M34.0401 60.4546C34.6893 58.1484 35.0636 55.4354 35.0636 52.5319C35.0636 49.8779 34.7509 47.383 34.2013 45.2126C41.5158 46.434 47.0909 52.7932 47.0909 60.4546H34.0401ZM22.1509 60.4546H8.9091C8.9091 52.7239 14.5855 46.319 21.9977 45.1807C21.4431 47.3586 21.1273 49.8649 21.1273 52.5319C21.1273 55.4354 21.5016 58.1484 22.1509 60.4546Z" fill="#0C1626"/>
<path fill-rule="evenodd" clip-rule="evenodd" d="M37.3546 55.8725L37.9041 55.4603C38.9322 54.6892 40.3492 54.7017 41.3636 55.4907L37.3546 55.8725Z" fill="#E6E6E6"/>
<path fill-rule="evenodd" clip-rule="evenodd" d="M22.0818 44.7998C20.9364 50.3362 23.0364 60.4543 23.0364 60.4543H19.9818L17.3091 53.5816L18.4546 51.8634L17.3091 50.718L20.9364 44.9907C20.9364 44.9907 21.517 44.8101 22.0818 44.7998Z" fill="#0C092A"/>
<path fill-rule="evenodd" clip-rule="evenodd" d="M33.9182 44.7998C35.0636 50.3362 32.9636 60.4543 32.9636 60.4543H36.0182L38.6909 53.5816L37.5455 51.8634L38.6909 50.718L35.0636 44.9907C35.0636 44.9907 34.483 44.8101 33.9182 44.7998Z" fill="#0C092A"/>
<path fill-rule="evenodd" clip-rule="evenodd" d="M23.4182 43.5664C22.1253 44.444 21.3182 45.6888 21.3182 47.0694C21.3182 48.4823 22.1635 49.7529 23.5098 50.6334L24.644 49.7399L25.5182 49.8031L25.3273 49.2016L25.3421 49.1899C24.1775 48.59 23.4182 47.6063 23.4182 46.4945C23.4182 46.4945 23.4182 46.4945 23.4182 46.4945V43.5664ZM32.5818 46.4945C32.5818 46.4945 32.5818 46.4945 32.5818 46.4945C32.5818 47.6063 31.8225 48.59 30.6579 49.1899L30.6727 49.2016L30.4818 49.8031L31.3561 49.7399L32.4902 50.6334C33.8365 49.7529 34.6818 48.4823 34.6818 47.0694C34.6818 45.6888 33.8747 44.444 32.5818 43.5664V46.4945Z" fill="#0C092A"/>
<path d="M25.3273 35.6357C25.3273 36.6612 26.5029 37.3539 28 37.3539C29.4971 37.3539 30.6727 36.6612 30.6727 35.6357C30.6727 35.4249 30.4914 35.2539 30.2909 35.2539C30.0441 35.2539 29.934 35.4267 29.9091 35.6357C29.6719 36.1966 29.085 36.5361 28 36.5903C26.915 36.5361 26.3281 36.1966 26.0909 35.6357C26.0661 35.4267 25.9559 35.2539 25.7091 35.2539C25.5086 35.2539 25.3273 35.4249 25.3273 35.6357Z" fill="#0C092A"/>
<path fill-rule="evenodd" clip-rule="evenodd" d="M25.7091 31.8184C25.7091 32.6618 26.7348 33.3456 28 33.3456C29.2652 33.3456 30.2909 32.6618 30.2909 31.8184" fill="black" fill-opacity="0.16"/>
<ellipse cx="23.0364" cy="28.3818" rx="1.14545" ry="1.14545" fill="#0C092A"/>
<ellipse cx="32.9636" cy="28.3818" rx="1.14545" ry="1.14545" fill="#0C092A"/>
<path d="M20.293 25.9298C21.0404 24.8781 23.0894 24.2884 24.8544 24.7218C25.0592 24.7721 25.2659 24.6469 25.3162 24.4421C25.3665 24.2373 25.2413 24.0305 25.0365 23.9802C22.9868 23.4769 20.6141 24.1598 19.6706 25.4874C19.5484 25.6593 19.5887 25.8977 19.7606 26.0198C19.9325 26.142 20.1709 26.1017 20.293 25.9298Z" fill="#0C092A"/>
<path d="M35.707 25.9298C34.9596 24.8781 32.9106 24.2884 31.1456 24.7218C30.9409 24.7721 30.7341 24.6469 30.6838 24.4421C30.6335 24.2373 30.7587 24.0305 30.9635 23.9802C33.0132 23.4769 35.3859 24.1598 36.3295 25.4874C36.4516 25.6593 36.4113 25.8977 36.2394 26.0198C36.0675 26.142 35.8291 26.1017 35.707 25.9298Z" fill="#0C092A"/>
<mask id="mask2_199_17055" style="mask-type:alpha" maskUnits="userSpaceOnUse" x="2" y="7" width="52" height="54">
<rect x="2.8" y="7" width="50.4" height="53.4545" fill="white"/>
</mask>
<g mask="url(#mask2_199_17055)">
<path fill-rule="evenodd" clip-rule="evenodd" d="M28.0964 38.6604C25.8988 38.7326 24.9185 39.7831 24.1802 38.7155C23.6261 37.9142 23.8579 36.5667 24.3757 35.8086C25.1124 34.7297 26.1118 35.2515 27.2293 35.1284C27.5331 35.095 27.8383 35.0106 28.0964 34.8726C28.3545 35.0106 28.6596 35.095 28.9635 35.1284C30.081 35.2515 31.0804 34.7297 31.8171 35.8086C32.3348 36.5667 32.5667 37.9142 32.0125 38.7155C31.2743 39.7831 30.294 38.5883 28.0964 38.6604ZM38.7656 25.709C38.1118 28.396 37.8114 31.1373 37.3374 33.8553C37.2386 34.4219 37.1304 34.9865 37.0156 35.5503C36.9915 35.6687 36.9677 36.1083 36.8511 36.164C36.4977 36.3328 35.7775 35.4352 35.5849 35.2325C35.1012 34.7236 34.6217 34.21 34.0326 33.8106C32.8424 33.0037 31.4489 32.5265 29.9988 32.4133C29.3922 32.3659 28.5718 32.4486 28 32.7937C27.4283 32.4486 26.6079 32.3659 26.0012 32.4133C24.5511 32.5265 23.1576 33.0037 21.9674 33.8106C21.3783 34.21 20.8988 34.7236 20.4151 35.2325C20.2225 35.4352 19.5023 36.3328 19.1489 36.164C19.0323 36.1083 19.0085 35.6687 18.9844 35.5503C18.8696 34.9865 18.7614 34.4219 18.6626 33.8553C18.1887 31.1373 17.8883 28.396 17.2345 25.709C17.0443 25.709 16.8774 29.2881 16.8561 29.6216C16.7697 30.976 16.6689 32.3002 16.7978 33.6558C17.02 35.9942 17.2517 38.9264 19.0335 40.7121C20.6435 42.3256 22.9811 42.6629 24.9973 43.6814C25.2568 43.8126 25.6012 43.9745 25.9725 44.1071C26.3637 44.4055 27.1395 44.609 28.0332 44.609C28.9707 44.609 29.7784 44.3851 30.1485 44.0626C30.4732 43.9394 30.7716 43.7982 31.0027 43.6814C33.0188 42.6627 35.3565 42.3256 36.9665 40.7121C38.7483 38.9264 38.98 35.9942 39.2023 33.6558C39.3311 32.3002 39.2303 30.976 39.1439 29.6216C39.1226 29.2881 38.9557 25.709 38.7656 25.709Z" fill="#0C092A"/>
<mask id="mask3_199_17055" style="mask-type:alpha" maskUnits="userSpaceOnUse" x="16" y="25" width="24" height="20">
<path fill-rule="evenodd" clip-rule="evenodd" d="M28.0964 38.6604C25.8988 38.7326 24.9185 39.7831 24.1802 38.7155C23.6261 37.9142 23.8579 36.5667 24.3757 35.8086C25.1124 34.7297 26.1118 35.2515 27.2293 35.1284C27.5331 35.095 27.8383 35.0106 28.0964 34.8726C28.3545 35.0106 28.6596 35.095 28.9635 35.1284C30.081 35.2515 31.0804 34.7297 31.8171 35.8086C32.3348 36.5667 32.5667 37.9142 32.0125 38.7155C31.2743 39.7831 30.294 38.5883 28.0964 38.6604ZM38.7656 25.709C38.1118 28.396 37.8114 31.1373 37.3374 33.8553C37.2386 34.4219 37.1304 34.9865 37.0156 35.5503C36.9915 35.6687 36.9677 36.1083 36.8511 36.164C36.4977 36.3328 35.7775 35.4352 35.5849 35.2325C35.1012 34.7236 34.6217 34.21 34.0326 33.8106C32.8424 33.0037 31.4489 32.5265 29.9988 32.4133C29.3922 32.3659 28.5718 32.4486 28 32.7937C27.4283 32.4486 26.6079 32.3659 26.0012 32.4133C24.5511 32.5265 23.1576 33.0037 21.9674 33.8106C21.3783 34.21 20.8988 34.7236 20.4151 35.2325C20.2225 35.4352 19.5023 36.3328 19.1489 36.164C19.0323 36.1083 19.0085 35.6687 18.9844 35.5503C18.8696 34.9865 18.7614 34.4219 18.6626 33.8553C18.1887 31.1373 17.8883 28.396 17.2345 25.709C17.0443 25.709 16.8774 29.2881 16.8561 29.6216C16.7697 30.976 16.6689 32.3002 16.7978 33.6558C17.02 35.9942 17.2517 38.9264 19.0335 40.7121C20.6435 42.3256 22.9811 42.6629 24.9973 43.6814C25.2568 43.8126 25.6012 43.9745 25.9725 44.1071C26.3637 44.4055 27.1395 44.609 28.0332 44.609C28.9707 44.609 29.7784 44.3851 30.1485 44.0626C30.4732 43.9394 30.7716 43.7982 31.0027 43.6814C33.0188 42.6627 35.3565 42.3256 36.9665 40.7121C38.7483 38.9264 38.98 35.9942 39.2023 33.6558C39.3311 32.3002 39.2303 30.976 39.1439 29.6216C39.1226 29.2881 38.9557 25.709 38.7656 25.709Z" fill="white"/>
</mask>
<g mask="url(#mask3_199_17055)">
<rect x="11.9636" y="20.7451" width="32.0727" height="29.0182" fill="#0C092A"/>
</g>
<path fill-rule="evenodd" clip-rule="evenodd" d="M20.6029 16.931C20.6264 16.9206 20.5681 16.9166 20.4281 16.919C20.5983 16.9187 20.6565 16.9227 20.6029 16.931ZM19.0498 13.9298C19.0493 13.9261 19.053 13.9587 19.0498 13.9298V13.9298ZM39.6006 20.5094C39.5502 19.8762 39.4608 19.2468 39.3107 18.6281C39.1915 18.1363 39.0286 17.6671 38.836 17.198C38.7197 16.9145 38.448 16.5252 38.4161 16.2194C38.3846 15.9183 38.6196 15.5846 38.6698 15.2339C38.7185 14.8927 38.7102 14.5339 38.6402 14.1957C38.4811 13.4277 37.9541 12.7135 37.1402 12.5133C36.9585 12.4686 36.5744 12.5237 36.446 12.4179C36.2988 12.2965 36.1963 11.8832 36.063 11.7174C35.683 11.2447 35.0903 10.9403 34.4653 11.0464C34.005 11.1245 34.2694 11.2197 33.9243 10.9488C33.7325 10.7982 33.5891 10.5683 33.4028 10.4053C33.1226 10.1604 32.8013 9.9507 32.4688 9.77865C31.5989 9.32848 30.6067 9.00125 29.635 8.84175C27.8624 8.55077 25.9704 8.80446 24.2522 9.26546C23.3972 9.49484 22.5365 9.78594 21.7424 10.1709C21.4019 10.336 21.2054 10.4729 20.8504 10.5162C20.2912 10.5842 19.8177 10.5808 19.2881 10.818C17.6584 11.5476 16.9244 13.2404 17.5586 14.8603C17.6861 15.1861 17.8588 15.4722 18.0969 15.7353C18.3873 16.0562 18.4923 15.993 18.2422 16.362C17.8683 16.9137 17.553 17.5021 17.2964 18.113C16.6227 19.7169 16.5099 21.5234 16.5538 23.234C16.5692 23.8328 16.5948 24.439 16.6893 25.0321C16.73 25.2889 16.7415 25.7716 16.934 25.962C17.0317 26.0586 17.1709 26.1125 17.3098 26.074C17.6362 25.9836 17.5239 25.7428 17.5315 25.5192C17.5697 24.396 17.5182 23.4023 17.7853 22.2926C17.9826 21.4728 18.3115 20.7281 18.7376 19.995C19.2796 19.0626 19.8646 18.2437 20.6098 17.4453C20.7851 17.2575 20.8233 17.1779 21.0583 17.1643C21.2362 17.1541 21.4965 17.2759 21.6694 17.3181C22.0508 17.411 22.433 17.5029 22.8213 17.5655C23.5353 17.6806 24.2423 17.6883 24.9627 17.6658C26.3804 17.6214 27.8043 17.522 29.1789 17.1649C30.0918 16.9279 30.9012 16.5023 31.7756 16.1904C31.7912 16.1848 32.0104 16.0287 32.0488 16.035C32.1024 16.0439 32.4262 16.3836 32.4809 16.4264C32.9057 16.7596 33.3718 16.8995 33.8307 17.1575C34.3964 17.4756 33.8485 17.0204 34.1605 17.4169C34.2515 17.5324 34.2981 17.7465 34.371 17.8773C34.6032 18.294 34.9261 18.6602 35.3124 18.9508C35.6856 19.2316 36.2466 19.3672 36.4369 19.7327C36.5836 20.0146 36.6331 20.3978 36.7515 20.6988C37.0622 21.4883 37.4725 22.2245 37.8828 22.9681C38.2134 23.5673 38.5749 24.0907 38.6117 24.7755C38.6244 25.0138 38.3976 26.4436 38.9501 26.0087C39.032 25.9443 39.2086 25.2153 39.2448 25.0916C39.3921 24.589 39.4444 24.0643 39.5111 23.5479C39.6437 22.5209 39.6872 21.5438 39.6006 20.5094Z" fill="#28354B"/>
<mask id="mask4_199_17055" style="mask-type:alpha" maskUnits="userSpaceOnUse" x="16" y="8" width="24" height="19">
<path fill-rule="evenodd" clip-rule="evenodd" d="M20.6029 16.931C20.6264 16.9206 20.5681 16.9166 20.4281 16.919C20.5983 16.9187 20.6565 16.9227 20.6029 16.931ZM19.0497 13.9298C19.0493 13.9261 19.0529 13.9587 19.0497 13.9298V13.9298ZM39.6006 20.5094C39.5502 19.8762 39.4608 19.2468 39.3107 18.6281C39.1915 18.1363 39.0286 17.6671 38.836 17.198C38.7197 16.9145 38.448 16.5252 38.4161 16.2194C38.3846 15.9183 38.6196 15.5846 38.6698 15.2339C38.7185 14.8927 38.7102 14.5339 38.6402 14.1957C38.4811 13.4277 37.9541 12.7135 37.1402 12.5133C36.9585 12.4686 36.5744 12.5237 36.446 12.4179C36.2988 12.2965 36.1963 11.8832 36.063 11.7174C35.683 11.2447 35.0903 10.9403 34.4653 11.0464C34.005 11.1245 34.2693 11.2197 33.9243 10.9488C33.7324 10.7982 33.5891 10.5683 33.4027 10.4053C33.1226 10.1604 32.8013 9.9507 32.4688 9.77865C31.5989 9.32848 30.6067 9.00125 29.635 8.84175C27.8623 8.55077 25.9704 8.80446 24.2522 9.26546C23.3972 9.49484 22.5365 9.78594 21.7424 10.1709C21.4019 10.336 21.2054 10.4729 20.8504 10.5162C20.2912 10.5842 19.8177 10.5808 19.2881 10.818C17.6584 11.5476 16.9244 13.2404 17.5585 14.8603C17.6861 15.1861 17.8588 15.4722 18.0969 15.7353C18.3872 16.0562 18.4923 15.993 18.2422 16.362C17.8683 16.9137 17.553 17.5021 17.2964 18.113C16.6226 19.7169 16.5099 21.5234 16.5538 23.234C16.5691 23.8328 16.5948 24.439 16.6892 25.0321C16.73 25.2889 16.7415 25.7716 16.934 25.962C17.0317 26.0586 17.1709 26.1125 17.3098 26.074C17.6361 25.9836 17.5239 25.7428 17.5315 25.5192C17.5697 24.396 17.5181 23.4023 17.7853 22.2926C17.9826 21.4728 18.3115 20.7281 18.7376 19.995C19.2795 19.0626 19.8645 18.2437 20.6098 17.4453C20.785 17.2575 20.8233 17.1779 21.0583 17.1643C21.2362 17.1541 21.4965 17.2759 21.6694 17.3181C22.0508 17.411 22.4329 17.5029 22.8213 17.5655C23.5353 17.6806 24.2422 17.6883 24.9627 17.6658C26.3804 17.6214 27.8043 17.522 29.1789 17.1649C30.0918 16.9279 30.9012 16.5023 31.7756 16.1904C31.7912 16.1848 32.0104 16.0287 32.0488 16.035C32.1024 16.0439 32.4262 16.3836 32.4808 16.4264C32.9057 16.7596 33.3718 16.8995 33.8306 17.1575C34.3964 17.4756 33.8485 17.0204 34.1605 17.4169C34.2515 17.5324 34.2981 17.7465 34.371 17.8773C34.6031 18.294 34.9261 18.6602 35.3124 18.9508C35.6856 19.2316 36.2465 19.3672 36.4369 19.7327C36.5836 20.0146 36.6331 20.3978 36.7515 20.6988C37.0622 21.4883 37.4725 22.2245 37.8828 22.9681C38.2134 23.5673 38.5749 24.0907 38.6116 24.7755C38.6244 25.0138 38.3976 26.4436 38.9501 26.0087C39.032 25.9443 39.2085 25.2153 39.2448 25.0916C39.392 24.589 39.4444 24.0643 39.5111 23.5479C39.6436 22.5209 39.6872 21.5438 39.6006 20.5094Z" fill="white"/>
</mask>
<g mask="url(#mask4_199_17055)">
<rect x="2.8" y="7" width="50.4" height="53.4545" fill="#0C092A"/>
</g>
</g>
</g>
<defs>
<clipPath id="clip0_199_17055">
<rect width="56" height="56" rx="28" fill="white"/>
</clipPath>
</defs>
</svg>
