<svg width="56" height="56" viewBox="0 0 56 56" fill="none" xmlns="http://www.w3.org/2000/svg">
<circle cx="28" cy="28" r="28" fill="#FFD6DD"/>
<mask id="mask0_547_903" style="mask-type:alpha" maskUnits="userSpaceOnUse" x="0" y="0" width="56" height="56">
<circle cx="28" cy="28" r="28" fill="#C4C4C4"/>
</mask>
<g mask="url(#mask0_547_903)">
<path fill-rule="evenodd" clip-rule="evenodd" d="M28.0001 14.4962C22.3768 14.4962 17.8182 19.0547 17.8182 24.678V25.7144C16.7863 25.8875 16.0001 26.7849 16.0001 27.866V30.3595C16.0001 31.4625 16.8185 32.3743 17.8812 32.5208C18.2786 36.0915 20.5225 39.1048 23.6364 40.584V43.9312C15.9352 44.3458 9.81824 50.7217 9.81824 58.5263H46.1819C46.1819 50.7217 40.0649 44.3457 32.3637 43.9312V40.584C35.4776 39.1048 37.7215 36.0915 38.1189 32.5208C39.1816 32.3743 40.0001 31.4625 40.0001 30.3595V27.866C40.0001 26.7849 39.2138 25.8875 38.1819 25.7144V24.678C38.1819 19.0547 33.6233 14.4962 28.0001 14.4962Z" fill="#D0C6AC"/>
<mask id="mask1_547_903" style="mask-type:alpha" maskUnits="userSpaceOnUse" x="9" y="14" width="38" height="45">
<path fill-rule="evenodd" clip-rule="evenodd" d="M28.0001 14.4962C22.3768 14.4962 17.8182 19.0547 17.8182 24.678V25.7144C16.7863 25.8875 16.0001 26.7849 16.0001 27.866V30.3595C16.0001 31.4625 16.8185 32.3743 17.8812 32.5208C18.2786 36.0915 20.5225 39.1048 23.6364 40.584V43.9312C15.9352 44.3458 9.81824 50.7217 9.81824 58.5263H46.1819C46.1819 50.7217 40.0649 44.3457 32.3637 43.9312V40.584C35.4776 39.1048 37.7215 36.0915 38.1189 32.5208C39.1816 32.3743 40.0001 31.4625 40.0001 30.3595V27.866C40.0001 26.7849 39.2138 25.8875 38.1819 25.7144V24.678C38.1819 19.0547 33.6233 14.4962 28.0001 14.4962Z" fill="white"/>
</mask>
<g mask="url(#mask1_547_903)">
<rect width="48" height="44.0301" transform="translate(4 14.4962)" fill="#FFCCD7"/>
<rect x="4" y="14.4962" width="48" height="44.0301" fill="#FFCCD7"/>
<path fill-rule="evenodd" clip-rule="evenodd" d="M17.8182 31.3821V32.8257C17.8182 38.449 22.3768 43.0075 28.0001 43.0075C33.6233 43.0075 38.1819 38.449 38.1819 32.8257V31.3821C38.1819 37.0053 33.6233 41.5639 28.0001 41.5639C22.3768 41.5639 17.8182 37.0053 17.8182 31.3821Z" fill="black" fill-opacity="0.1"/>
</g>
<path fill-rule="evenodd" clip-rule="evenodd" d="M28.091 50.5554C33.0615 50.5554 37.091 48.1737 37.091 45.2357C37.091 45.1543 37.0879 45.0734 37.0818 44.9929C42.4194 47.1671 46.1819 52.4073 46.1819 58.5264H9.81824C9.81824 52.3356 13.6695 47.0443 19.1068 44.9176C19.0963 45.0229 19.091 45.1289 19.091 45.2357C19.091 48.1737 23.1204 50.5554 28.091 50.5554Z" fill="#6223A9"/>
<mask id="mask2_547_903" style="mask-type:alpha" maskUnits="userSpaceOnUse" x="9" y="44" width="38" height="15">
<path fill-rule="evenodd" clip-rule="evenodd" d="M28.091 50.5554C33.0615 50.5554 37.091 48.1737 37.091 45.2357C37.091 45.1543 37.0879 45.0734 37.0818 44.9929C42.4194 47.1671 46.1819 52.4073 46.1819 58.5264H9.81824C9.81824 52.3356 13.6695 47.0443 19.1068 44.9176C19.0963 45.0229 19.091 45.1289 19.091 45.2357C19.091 48.1737 23.1204 50.5554 28.091 50.5554Z" fill="white"/>
</mask>
<g mask="url(#mask2_547_903)">
<rect x="4" y="38.6768" width="48" height="19.8496" fill="#6223A9"/>
</g>
<path fill-rule="evenodd" clip-rule="evenodd" d="M25.4546 34.8871C25.4546 36.2824 26.5942 37.4135 28 37.4135V37.4135C29.4059 37.4135 30.5455 36.2824 30.5455 34.8871" fill="#0C092A"/>
<g opacity="0.3">
<path fill-rule="evenodd" clip-rule="evenodd" d="M25.8182 31.4588C25.8182 32.2561 26.7951 32.9024 28.0001 32.9024V32.9024C29.205 32.9024 30.1819 32.2561 30.1819 31.4588" fill="#0C092A"/>
</g>
<ellipse cx="23.2728" cy="28.2104" rx="1.09091" ry="1.08271" fill="#0C092A"/>
<ellipse cx="32.7274" cy="28.2104" rx="1.09091" ry="1.08271" fill="#0C092A"/>
<path d="M20.6601 25.8932C21.3719 24.8991 23.3233 24.3417 25.0042 24.7514C25.1993 24.7989 25.3962 24.6805 25.4441 24.487C25.492 24.2934 25.3727 24.0979 25.1777 24.0504C23.2255 23.5746 20.9659 24.2201 20.0673 25.475C19.9509 25.6375 19.9893 25.8628 20.153 25.9783C20.3167 26.0937 20.5437 26.0556 20.6601 25.8932Z" fill="#0C092A"/>
<path d="M35.34 25.8932C34.6282 24.8991 32.6768 24.3417 30.9959 24.7514C30.8009 24.7989 30.6039 24.6805 30.556 24.487C30.5081 24.2934 30.6274 24.0979 30.8225 24.0504C32.7746 23.5746 35.0343 24.2201 35.9329 25.475C36.0492 25.6375 36.0108 25.8628 35.8471 25.9783C35.6834 26.0937 35.4564 26.0556 35.34 25.8932Z" fill="#0C092A"/>
<mask id="mask3_547_903" style="mask-type:alpha" maskUnits="userSpaceOnUse" x="4" y="8" width="48" height="51">
<rect x="4" y="8.00006" width="48" height="50.5263" fill="white"/>
</mask>
<g mask="url(#mask3_547_903)">
<path fill-rule="evenodd" clip-rule="evenodd" d="M11.091 34.1655C10.9788 28.6011 16.2399 16.9856 18.1819 14.6767C19.6225 12.964 23.5811 11.528 28.0001 11.6091C32.4192 11.6902 36.5204 12.6579 38.0001 14.4963C40.2408 17.2802 44.8853 27.8639 44.9092 34.1655C44.9262 38.6407 43.1751 43.1267 40.7274 43.3685C39.3454 43.505 37.5898 43.3278 35.4804 43.1148L35.4802 43.1148L35.4801 43.1148L35.4799 43.1148L35.4797 43.1148C34.5145 43.0173 33.4752 42.9124 32.3637 42.8266V40.5841C35.8036 38.95 38.1819 35.4438 38.1819 31.3821V26.3273C36.2713 25.2826 34.6447 24.0213 33.2896 22.7398C33.8997 23.8659 34.5975 24.8885 35.3844 25.6614C29.8238 24.113 25.98 20.9421 23.6764 18.456C22.6174 20.4552 20.7206 23.379 17.8182 25.6062V31.3821C17.8182 35.4438 20.1965 38.95 23.6364 40.5841V42.9617C22.3722 43.1335 21.1973 43.3514 20.1161 43.552C18.1436 43.9179 16.4829 44.2259 15.1609 44.0903C12.5749 43.8251 11.1812 38.6399 11.091 34.1655Z" fill="#E6E6E6"/>
<mask id="mask4_547_903" style="mask-type:alpha" maskUnits="userSpaceOnUse" x="11" y="11" width="34" height="34">
<path fill-rule="evenodd" clip-rule="evenodd" d="M11.091 34.1655C10.9788 28.6011 16.2399 16.9856 18.1819 14.6767C19.6225 12.964 23.5811 11.528 28.0001 11.6091C32.4192 11.6902 36.5204 12.6579 38.0001 14.4963C40.2408 17.2802 44.8853 27.8639 44.9092 34.1655C44.9262 38.6407 43.1751 43.1267 40.7274 43.3685C39.3454 43.505 37.5898 43.3278 35.4804 43.1148L35.4802 43.1148L35.4801 43.1148L35.4799 43.1148L35.4797 43.1148C34.5145 43.0173 33.4752 42.9124 32.3637 42.8266V40.5841C35.8036 38.95 38.1819 35.4438 38.1819 31.3821V26.3273C36.2713 25.2826 34.6447 24.0213 33.2896 22.7398C33.8997 23.8659 34.5975 24.8885 35.3844 25.6614C29.8238 24.113 25.98 20.9421 23.6764 18.456C22.6174 20.4552 20.7206 23.379 17.8182 25.6062V31.3821C17.8182 35.4438 20.1965 38.95 23.6364 40.5841V42.9617C22.3722 43.1335 21.1973 43.3514 20.1161 43.552C18.1436 43.9179 16.4829 44.2259 15.1609 44.0903C12.5749 43.8251 11.1812 38.6399 11.091 34.1655Z" fill="white"/>
</mask>
<g mask="url(#mask4_547_903)">
<rect x="3.81824" y="8.00006" width="48.3636" height="50.5263" fill="#0C092A"/>
</g>
</g>
</g>
</svg>
