<svg width="56" height="56" viewBox="0 0 56 56" fill="none" xmlns="http://www.w3.org/2000/svg">
<circle cx="28" cy="28" r="28" fill="#C4D0FB"/>
<mask id="mask0_199_8210" style="mask-type:alpha" maskUnits="userSpaceOnUse" x="0" y="0" width="56" height="56">
<circle cx="28" cy="28" r="28" fill="#C4C4C4"/>
</mask>
<g mask="url(#mask0_199_8210)">
<path fill-rule="evenodd" clip-rule="evenodd" d="M28 14.4961C22.3767 14.4961 17.8182 19.0546 17.8182 24.6779V25.7142C16.7863 25.8874 16 26.7848 16 27.8659V30.3594C16 31.4624 16.8184 32.3742 17.8811 32.5207C18.2785 36.0914 20.5224 39.1047 23.6364 40.5839V43.9311C15.9351 44.3456 9.81818 50.7215 9.81818 58.5262H46.1818C46.1818 50.7215 40.0649 44.3456 32.3636 43.9311V40.5839C35.4775 39.1047 37.7215 36.0914 38.1188 32.5207C39.1816 32.3742 40 31.4624 40 30.3594V27.8659C40 26.7848 39.2137 25.8874 38.1818 25.7142V24.6779C38.1818 19.0546 33.6233 14.4961 28 14.4961Z" fill="#D0C6AC"/>
<mask id="mask1_199_8210" style="mask-type:alpha" maskUnits="userSpaceOnUse" x="9" y="14" width="38" height="45">
<path fill-rule="evenodd" clip-rule="evenodd" d="M28 14.4961C22.3767 14.4961 17.8182 19.0546 17.8182 24.6779V25.7142C16.7863 25.8874 16 26.7848 16 27.8659V30.3594C16 31.4624 16.8184 32.3742 17.8811 32.5207C18.2785 36.0914 20.5224 39.1047 23.6364 40.5839V43.9311C15.9351 44.3456 9.81818 50.7215 9.81818 58.5262H46.1818C46.1818 50.7215 40.0649 44.3456 32.3636 43.9311V40.5839C35.4775 39.1047 37.7215 36.0914 38.1188 32.5207C39.1816 32.3742 40 31.4624 40 30.3594V27.8659C40 26.7848 39.2137 25.8874 38.1818 25.7142V24.6779C38.1818 19.0546 33.6233 14.4961 28 14.4961Z" fill="white"/>
</mask>
<g mask="url(#mask1_199_8210)">
<rect x="4" y="14.4961" width="48" height="44.0301" fill="#D08B5B"/>
<path fill-rule="evenodd" clip-rule="evenodd" d="M17.8182 31.3818V32.8254C17.8182 38.4487 22.3767 43.0073 28 43.0073C33.6233 43.0073 38.1818 38.4487 38.1818 32.8254V31.3818C38.1818 37.0051 33.6233 41.5637 28 41.5637C22.3767 41.5637 17.8182 37.0051 17.8182 31.3818Z" fill="black" fill-opacity="0.1"/>
</g>
<path fill-rule="evenodd" clip-rule="evenodd" d="M28.0909 48.0296C31.4548 48.0296 34.1818 46.2942 34.1818 44.1535C34.1818 44.1529 34.1818 44.1523 34.1818 44.1517C41.0052 45.3811 46.1818 51.3495 46.1818 58.5269H9.81818C9.81818 51.2858 15.0871 45.2753 22.0002 44.1201C22.0001 44.1312 22 44.1424 22 44.1535C22 46.2942 24.727 48.0296 28.0909 48.0296Z" fill="#E6E6E6"/>
<mask id="mask2_199_8210" style="mask-type:alpha" maskUnits="userSpaceOnUse" x="9" y="44" width="38" height="15">
<path fill-rule="evenodd" clip-rule="evenodd" d="M28.0909 48.0296C31.4548 48.0296 34.1818 46.2942 34.1818 44.1535C34.1818 44.1529 34.1818 44.1523 34.1818 44.1517C41.0052 45.3811 46.1818 51.3495 46.1818 58.5269H9.81818C9.81818 51.2858 15.0871 45.2753 22.0002 44.1201C22.0001 44.1312 22 44.1424 22 44.1535C22 46.2942 24.727 48.0296 28.0909 48.0296Z" fill="white"/>
</mask>
<g mask="url(#mask2_199_8210)">
<rect x="4" y="38.6768" width="48" height="19.8496" fill="#555FA8"/>
<g opacity="0.6">
<ellipse cx="28.0909" cy="44.424" rx="7.20638" ry="4.85663" fill="black" fill-opacity="0.16"/>
</g>
</g>
<path d="M25.4546 35.0679C25.4546 36.0373 26.5742 36.692 28 36.692C29.4258 36.692 30.5455 36.0373 30.5455 35.0679C30.5455 34.8686 30.3728 34.707 30.1818 34.707C29.9468 34.707 29.8419 34.8704 29.8182 35.0679C29.5923 35.5981 29.0333 35.919 28 35.9702C26.9667 35.919 26.4077 35.5981 26.1818 35.0679C26.1582 34.8704 26.0532 34.707 25.8182 34.707C25.6272 34.707 25.4546 34.8686 25.4546 35.0679Z" fill="black" fill-opacity="0.6"/>
<path fill-rule="evenodd" clip-rule="evenodd" d="M25.8182 31.458C25.8182 32.2553 26.795 32.9016 28 32.9016C29.205 32.9016 30.1818 32.2553 30.1818 31.458" fill="black" fill-opacity="0.16"/>
<ellipse cx="23.2727" cy="28.2106" rx="1.09091" ry="1.08271" fill="black" fill-opacity="0.6"/>
<ellipse cx="32.7273" cy="28.2106" rx="1.09091" ry="1.08271" fill="black" fill-opacity="0.6"/>
<path d="M20.66 25.893C21.3718 24.899 23.3232 24.3415 25.0042 24.7512C25.1992 24.7988 25.3961 24.6804 25.444 24.4868C25.4919 24.2932 25.3726 24.0978 25.1776 24.0503C23.2255 23.5745 20.9658 24.2199 20.0672 25.4749C19.9509 25.6374 19.9893 25.8627 20.153 25.9781C20.3167 26.0936 20.5437 26.0555 20.66 25.893Z" fill="black" fill-opacity="0.6"/>
<path d="M35.34 25.893C34.6282 24.899 32.6768 24.3415 30.9958 24.7512C30.8008 24.7988 30.6039 24.6804 30.556 24.4868C30.5081 24.2932 30.6274 24.0978 30.8224 24.0503C32.7745 23.5745 35.0342 24.2199 35.9328 25.4749C36.0491 25.6374 36.0107 25.8627 35.847 25.9781C35.6833 26.0936 35.4563 26.0555 35.34 25.893Z" fill="black" fill-opacity="0.6"/>
<mask id="mask3_199_8210" style="mask-type:alpha" maskUnits="userSpaceOnUse" x="4" y="8" width="48" height="51">
<rect x="4" y="8" width="48" height="50.5263" fill="white"/>
</mask>
<g mask="url(#mask3_199_8210)">
<path fill-rule="evenodd" clip-rule="evenodd" d="M17.9999 25.6842C17.9404 25.9048 17.6993 25.9528 17.6362 25.6842C17.5055 23.8259 17.6362 14.4467 27.9999 14.3158C38.3635 14.1848 38.4943 23.8259 38.3635 25.6842C38.3004 25.9528 38.0594 25.9048 37.9999 25.6842C38.084 25.4037 37.4006 20.4959 35.6362 19.188C35.3164 18.9672 34.3186 18.7567 32.9743 18.5995L33.6364 17.0225L32.3669 18.5345C31.0883 18.4093 29.574 18.3311 28.0567 18.33C24.5468 18.3275 21.0214 18.7338 20.3635 19.188C18.5991 20.4959 17.9158 25.4037 17.9999 25.6842Z" fill="#28354B"/>
<mask id="mask4_199_8210" style="mask-type:alpha" maskUnits="userSpaceOnUse" x="17" y="14" width="22" height="12">
<path fill-rule="evenodd" clip-rule="evenodd" d="M17.9999 25.6842C17.9404 25.9048 17.6993 25.9528 17.6362 25.6842C17.5055 23.8259 17.6362 14.4467 27.9999 14.3158C38.3635 14.1848 38.4943 23.8259 38.3635 25.6842C38.3004 25.9528 38.0594 25.9048 37.9999 25.6842C38.084 25.4037 37.4006 20.4959 35.6362 19.188C35.3164 18.9672 34.3186 18.7567 32.9743 18.5995L33.6364 17.0225L32.3669 18.5345C31.0883 18.4093 29.574 18.3311 28.0567 18.33C24.5468 18.3275 21.0214 18.7338 20.3635 19.188C18.5991 20.4959 17.9158 25.4037 17.9999 25.6842Z" fill="white"/>
</mask>
<g mask="url(#mask4_199_8210)">
<rect x="4" y="8" width="48" height="50.5263" fill="#2C1B18"/>
</g>
<g filter="url(#filter0_d_199_8210)">
<path fill-rule="evenodd" clip-rule="evenodd" d="M24.9542 26.0936C25.3854 26.0976 25.5892 26.1688 25.6627 26.6151C25.7371 27.0672 25.6648 27.5755 25.5789 28.0208C25.448 28.7007 25.2301 29.3669 24.723 29.8638C24.4559 30.1256 24.1301 30.3342 23.7836 30.4766C23.5995 30.5523 23.4052 30.6069 23.211 30.6483C23.1542 30.6604 22.6693 30.7267 22.9667 30.693C22.2727 30.7716 21.5198 30.7685 20.9402 30.3301C20.2979 29.8443 19.858 29.0755 19.6646 28.3097C19.5515 27.8617 19.3137 26.79 19.7482 26.4318C20.2459 26.0213 24.9542 26.0936 24.9542 26.0936ZM20.585 24.8693C19.5958 24.9031 18.9357 25.0756 18.4478 26.0564C17.5537 27.8539 19.0841 30.5496 20.7913 31.2842C22.7871 32.1431 25.0167 31.1926 26.0719 29.4736C26.6307 28.5635 26.9131 27.185 26.8949 26.1349C26.8718 24.7946 25.9285 24.7574 24.8198 24.7869L20.585 24.8693Z" fill="#44509F"/>
<path fill-rule="evenodd" clip-rule="evenodd" d="M31.0329 26.0936C30.6017 26.0977 30.3979 26.1688 30.3244 26.6151C30.25 27.0672 30.3224 27.5754 30.4081 28.0207C30.5392 28.7007 30.757 29.3668 31.2641 29.8638C31.5312 30.1255 31.857 30.3341 32.2036 30.4766C32.3876 30.5522 32.5819 30.6068 32.7762 30.6483C32.833 30.6604 33.3178 30.7267 33.0205 30.693C33.7144 30.7716 34.4673 30.7685 35.0469 30.3301C35.6892 29.8442 36.1291 29.0755 36.3225 28.3098C36.4357 27.8616 36.6734 26.7901 36.239 26.4317C35.7413 26.0213 31.0329 26.0936 31.0329 26.0936ZM35.4021 24.8693C36.3913 24.9031 37.0514 25.0757 37.5393 26.0564C38.4334 27.8539 36.903 30.5496 35.1959 31.2842C33.2 32.143 30.9704 31.1925 29.9152 29.4736C29.3565 28.5634 29.074 27.1849 29.0921 26.1348C29.1153 24.7946 30.0586 24.7574 31.1674 24.7869L35.4021 24.8693Z" fill="#44509F"/>
<path fill-rule="evenodd" clip-rule="evenodd" d="M18.9449 25.6698C18.3245 25.7044 17.6156 25.7127 17.0345 25.9789C16.4192 26.2608 16.3241 26.8991 17.0998 26.987C17.4493 27.0267 17.7991 26.9612 18.1431 26.9002C18.4249 26.8503 18.8076 26.8665 19.0739 26.7596C19.5701 26.5605 19.5382 25.6362 18.9449 25.6698Z" fill="#44509F"/>
<path fill-rule="evenodd" clip-rule="evenodd" d="M37.0429 25.6698C37.6632 25.7044 38.3721 25.7127 38.9532 25.9789C39.5686 26.2608 39.6637 26.8991 38.8879 26.987C38.5385 27.0267 38.1887 26.9612 37.8446 26.9002C37.5629 26.8503 37.1801 26.8665 36.9139 26.7596C36.4176 26.5605 36.4495 25.6362 37.0429 25.6698Z" fill="#44509F"/>
<path fill-rule="evenodd" clip-rule="evenodd" d="M29.8379 26.0463C29.4841 25.6312 28.5619 25.3916 27.9801 25.3916C27.3983 25.3916 26.5032 25.6312 26.1493 26.0463C25.9709 26.2555 25.9648 26.5355 26.2741 26.6667C26.6592 26.8302 27.003 26.5338 27.3113 26.3788C27.7055 26.1805 28.3111 26.2023 28.676 26.3788C28.9866 26.529 29.328 26.8302 29.7132 26.6667C30.0224 26.5355 30.0164 26.2555 29.8379 26.0463Z" fill="#44509F"/>
</g>
</g>
</g>
<defs>
<filter id="filter0_d_199_8210" x="16.5454" y="24.7812" width="22.8969" height="8.82422" filterUnits="userSpaceOnUse" color-interpolation-filters="sRGB">
<feFlood flood-opacity="0" result="BackgroundImageFix"/>
<feColorMatrix in="SourceAlpha" type="matrix" values="0 0 0 0 0 0 0 0 0 0 0 0 0 0 0 0 0 0 127 0" result="hardAlpha"/>
<feOffset dy="2"/>
<feColorMatrix type="matrix" values="0 0 0 0 0 0 0 0 0 0 0 0 0 0 0 0 0 0 0.1 0"/>
<feBlend mode="normal" in2="BackgroundImageFix" result="effect1_dropShadow_199_8210"/>
<feBlend mode="normal" in="SourceGraphic" in2="effect1_dropShadow_199_8210" result="shape"/>
</filter>
</defs>
</svg>
