<svg width="56" height="56" viewBox="0 0 56 56" fill="none" xmlns="http://www.w3.org/2000/svg">
<circle cx="28" cy="28" r="28" fill="#BF83FF"/>
<mask id="mask0_199_23685" style="mask-type:alpha" maskUnits="userSpaceOnUse" x="0" y="0" width="56" height="56">
<circle cx="28" cy="28" r="28" fill="#C4C4C4"/>
</mask>
<g mask="url(#mask0_199_23685)">
<path fill-rule="evenodd" clip-rule="evenodd" d="M28 14.4961C22.3767 14.4961 17.8182 19.0546 17.8182 24.6779V25.7142C16.7863 25.8874 16 26.7848 16 27.8659V30.3594C16 31.4624 16.8184 32.3742 17.8811 32.5207C18.2785 36.0914 20.5224 39.1047 23.6364 40.5839V43.9311C15.9351 44.3456 9.81818 50.7215 9.81818 58.5262H46.1818C46.1818 50.7215 40.0649 44.3456 32.3636 43.9311V40.5839C35.4775 39.1047 37.7215 36.0914 38.1188 32.5207C39.1816 32.3742 40 31.4624 40 30.3594V27.8659C40 26.7848 39.2137 25.8874 38.1818 25.7142V24.6779C38.1818 19.0546 33.6233 14.4961 28 14.4961Z" fill="#D0C6AC"/>
<mask id="mask1_199_23685" style="mask-type:alpha" maskUnits="userSpaceOnUse" x="9" y="14" width="38" height="45">
<path fill-rule="evenodd" clip-rule="evenodd" d="M28 14.4961C22.3767 14.4961 17.8182 19.0546 17.8182 24.6779V25.7142C16.7863 25.8874 16 26.7848 16 27.8659V30.3594C16 31.4624 16.8184 32.3742 17.8811 32.5207C18.2785 36.0914 20.5224 39.1047 23.6364 40.5839V43.9311C15.9351 44.3456 9.81818 50.7215 9.81818 58.5262H46.1818C46.1818 50.7215 40.0649 44.3456 32.3636 43.9311V40.5839C35.4775 39.1047 37.7215 36.0914 38.1188 32.5207C39.1816 32.3742 40 31.4624 40 30.3594V27.8659C40 26.7848 39.2137 25.8874 38.1818 25.7142V24.6779C38.1818 19.0546 33.6233 14.4961 28 14.4961Z" fill="white"/>
</mask>
<g mask="url(#mask1_199_23685)">
<rect width="48" height="44.0301" transform="translate(4 14.4961)" fill="#FFCCD7"/>
<rect x="4" y="14.4961" width="48" height="44.0301" fill="#FFCCD7"/>
<path fill-rule="evenodd" clip-rule="evenodd" d="M17.8182 31.3818V32.8254C17.8182 38.4487 22.3767 43.0073 28 43.0073C33.6233 43.0073 38.1818 38.4487 38.1818 32.8254V31.3818C38.1818 37.0051 33.6233 41.5637 28 41.5637C22.3767 41.5637 17.8182 37.0051 17.8182 31.3818Z" fill="black" fill-opacity="0.1"/>
</g>
<path fill-rule="evenodd" clip-rule="evenodd" d="M28.0909 50.5557C33.0615 50.5557 37.0909 48.174 37.0909 45.236C37.0909 45.1546 37.0878 45.0737 37.0817 44.9932C42.4194 47.1674 46.1818 52.4077 46.1818 58.5267H9.81818C9.81818 52.3359 13.6694 47.0446 19.1067 44.918C19.0962 45.0232 19.0909 45.1292 19.0909 45.236C19.0909 48.174 23.1203 50.5557 28.0909 50.5557Z" fill="#6223A9"/>
<mask id="mask2_199_23685" style="mask-type:alpha" maskUnits="userSpaceOnUse" x="9" y="44" width="38" height="15">
<path fill-rule="evenodd" clip-rule="evenodd" d="M28.0909 50.5557C33.0615 50.5557 37.0909 48.174 37.0909 45.236C37.0909 45.1546 37.0878 45.0737 37.0817 44.9932C42.4194 47.1674 46.1818 52.4077 46.1818 58.5267H9.81818C9.81818 52.3359 13.6694 47.0446 19.1067 44.918C19.0962 45.0232 19.0909 45.1292 19.0909 45.236C19.0909 48.174 23.1203 50.5557 28.0909 50.5557Z" fill="white"/>
</mask>
<g mask="url(#mask2_199_23685)">
<rect x="4" y="38.6768" width="48" height="19.8496" fill="#6223A9"/>
</g>
<path fill-rule="evenodd" clip-rule="evenodd" d="M25.4545 34.8877C25.4545 36.2829 26.5942 37.414 28 37.414C29.4058 37.414 30.5454 36.2829 30.5454 34.8877" fill="#0C092A"/>
<g opacity="0.3">
<path fill-rule="evenodd" clip-rule="evenodd" d="M25.8182 31.458C25.8182 32.2553 26.795 32.9016 28 32.9016C29.205 32.9016 30.1818 32.2553 30.1818 31.458" fill="#0C092A"/>
</g>
<ellipse cx="23.2727" cy="28.2106" rx="1.09091" ry="1.08271" fill="#0C092A"/>
<ellipse cx="32.7273" cy="28.2106" rx="1.09091" ry="1.08271" fill="#0C092A"/>
<path d="M20.66 25.893C21.3718 24.899 23.3232 24.3415 25.0042 24.7512C25.1992 24.7988 25.3961 24.6804 25.444 24.4868C25.4919 24.2932 25.3726 24.0978 25.1776 24.0503C23.2255 23.5745 20.9658 24.2199 20.0672 25.4749C19.9509 25.6374 19.9893 25.8627 20.153 25.9781C20.3167 26.0936 20.5437 26.0555 20.66 25.893Z" fill="#0C092A"/>
<path d="M35.34 25.893C34.6282 24.899 32.6768 24.3415 30.9958 24.7512C30.8008 24.7988 30.6039 24.6804 30.556 24.4868C30.5081 24.2932 30.6274 24.0978 30.8224 24.0503C32.7745 23.5745 35.0342 24.2199 35.9328 25.4749C36.0491 25.6374 36.0107 25.8627 35.847 25.9781C35.6833 26.0936 35.4563 26.0555 35.34 25.893Z" fill="#0C092A"/>
<mask id="mask3_199_23685" style="mask-type:alpha" maskUnits="userSpaceOnUse" x="4" y="8" width="48" height="51">
<rect x="4" y="8" width="48" height="50.5263" fill="white"/>
</mask>
<g mask="url(#mask3_199_23685)">
<path fill-rule="evenodd" clip-rule="evenodd" d="M11.0909 34.1651C10.9787 28.6007 16.2398 16.9853 18.1818 14.6764C19.6224 12.9637 23.581 11.5277 28.0001 11.6087C32.4191 11.6898 36.5204 12.6576 38.0001 14.496C40.2408 17.2799 44.8853 27.8635 44.9091 34.1651C44.9261 38.6403 43.175 43.1263 40.7273 43.3681C39.3453 43.5047 37.5898 43.3274 35.4803 43.1145L35.4801 43.1145L35.48 43.1145L35.4798 43.1144L35.4797 43.1144C34.5144 43.017 33.4751 42.9121 32.3636 42.8263V40.5838C35.8036 38.9497 38.1818 35.4435 38.1818 31.3818V26.327C36.2712 25.2823 34.6447 24.0211 33.2896 22.7396C33.8997 23.8656 34.5975 24.8882 35.3843 25.661C29.8238 24.1126 25.9799 20.9417 23.6763 18.4556C22.6173 20.4549 20.7206 23.3787 17.8182 25.6059V31.3818C17.8182 35.4435 20.1964 38.9497 23.6364 40.5838V42.9613C22.3722 43.1331 21.1972 43.3511 20.116 43.5516C18.1435 43.9175 16.4828 44.2256 15.1609 44.09C12.5749 43.8248 11.1812 38.6395 11.0909 34.1651Z" fill="#E6E6E6"/>
<mask id="mask4_199_23685" style="mask-type:alpha" maskUnits="userSpaceOnUse" x="11" y="11" width="34" height="34">
<path fill-rule="evenodd" clip-rule="evenodd" d="M11.0909 34.1651C10.9787 28.6007 16.2398 16.9853 18.1818 14.6764C19.6224 12.9637 23.581 11.5277 28.0001 11.6087C32.4191 11.6898 36.5204 12.6576 38.0001 14.496C40.2408 17.2799 44.8853 27.8635 44.9091 34.1651C44.9261 38.6403 43.175 43.1263 40.7273 43.3681C39.3453 43.5047 37.5898 43.3274 35.4803 43.1145L35.4801 43.1145L35.48 43.1145L35.4798 43.1144L35.4797 43.1144C34.5144 43.017 33.4751 42.9121 32.3636 42.8263V40.5838C35.8036 38.9497 38.1818 35.4435 38.1818 31.3818V26.327C36.2712 25.2823 34.6447 24.0211 33.2896 22.7396C33.8997 23.8656 34.5975 24.8882 35.3843 25.661C29.8238 24.1126 25.9799 20.9417 23.6763 18.4556C22.6173 20.4549 20.7206 23.3787 17.8182 25.6059V31.3818C17.8182 35.4435 20.1964 38.9497 23.6364 40.5838V42.9613C22.3722 43.1331 21.1972 43.3511 20.116 43.5516C18.1435 43.9175 16.4828 44.2256 15.1609 44.09C12.5749 43.8248 11.1812 38.6395 11.0909 34.1651Z" fill="white"/>
</mask>
<g mask="url(#mask4_199_23685)">
<rect x="3.81818" y="8" width="48.3636" height="50.5263" fill="#0C092A"/>
</g>
</g>
</g>
</svg>
